<?xml version="1.0" encoding="utf-8" standalone="no"?>
<!DOCTYPE svg PUBLIC "-//W3C//DTD SVG 1.1//EN"
  "http://www.w3.org/Graphics/SVG/1.1/DTD/svg11.dtd">
<svg xmlns:xlink="http://www.w3.org/1999/xlink" width="1001.004688pt" height="569.618838pt" viewBox="0 0 1001.004688 569.618838" xmlns="http://www.w3.org/2000/svg" version="1.1">
 <metadata>
  <rdf:RDF xmlns:dc="http://purl.org/dc/elements/1.1/" xmlns:cc="http://creativecommons.org/ns#" xmlns:rdf="http://www.w3.org/1999/02/22-rdf-syntax-ns#">
   <cc:Work>
    <dc:type rdf:resource="http://purl.org/dc/dcmitype/StillImage"/>
    <dc:date>2026-04-23T13:55:09.553586</dc:date>
    <dc:format>image/svg+xml</dc:format>
    <dc:creator>
     <cc:Agent>
      <dc:title>Matplotlib v3.7.1, https://matplotlib.org/</dc:title>
     </cc:Agent>
    </dc:creator>
   </cc:Work>
  </rdf:RDF>
 </metadata>
 <defs>
  <style type="text/css">*{stroke-linejoin: round; stroke-linecap: butt}</style>
 </defs>
 <g id="figure_1">
  <g id="patch_1">
   <path d="M 0 569.618838 
L 1001.004688 569.618838 
L 1001.004688 0 
L 0 0 
z
" style="fill: #ffffff"/>
  </g>
  <g id="axes_1">
   <g id="patch_2">
    <path d="M 36.144688 479.971471 
L 993.804688 479.971471 
L 993.804688 34.944 
L 36.144688 34.944 
z
" style="fill: #ffffff"/>
   </g>
   <g id="matplotlib.axis_1">
    <g id="xtick_1">
     <g id="line2d_1"/>
     <g id="text_1">
      <!-- Milpa Alta -->
      <g style="fill: #262626" transform="translate(56.846615 519.189202) rotate(-45) scale(0.1 -0.1)">
       <defs>
        <path id="ArialMT-4d" d="M 475 0 
L 475 4581 
L 1388 4581 
L 2472 1338 
Q 2622 884 2691 659 
Q 2769 909 2934 1394 
L 4031 4581 
L 4847 4581 
L 4847 0 
L 4263 0 
L 4263 3834 
L 2931 0 
L 2384 0 
L 1059 3900 
L 1059 0 
L 475 0 
z
" transform="scale(0.015625)"/>
        <path id="ArialMT-69" d="M 425 3934 
L 425 4581 
L 988 4581 
L 988 3934 
L 425 3934 
z
M 425 0 
L 425 3319 
L 988 3319 
L 988 0 
L 425 0 
z
" transform="scale(0.015625)"/>
        <path id="ArialMT-6c" d="M 409 0 
L 409 4581 
L 972 4581 
L 972 0 
L 409 0 
z
" transform="scale(0.015625)"/>
        <path id="ArialMT-70" d="M 422 -1272 
L 422 3319 
L 934 3319 
L 934 2888 
Q 1116 3141 1344 3267 
Q 1572 3394 1897 3394 
Q 2322 3394 2647 3175 
Q 2972 2956 3137 2557 
Q 3303 2159 3303 1684 
Q 3303 1175 3120 767 
Q 2938 359 2589 142 
Q 2241 -75 1856 -75 
Q 1575 -75 1351 44 
Q 1128 163 984 344 
L 984 -1272 
L 422 -1272 
z
M 931 1641 
Q 931 1000 1190 694 
Q 1450 388 1819 388 
Q 2194 388 2461 705 
Q 2728 1022 2728 1688 
Q 2728 2322 2467 2637 
Q 2206 2953 1844 2953 
Q 1484 2953 1207 2617 
Q 931 2281 931 1641 
z
" transform="scale(0.015625)"/>
        <path id="ArialMT-61" d="M 2588 409 
Q 2275 144 1986 34 
Q 1697 -75 1366 -75 
Q 819 -75 525 192 
Q 231 459 231 875 
Q 231 1119 342 1320 
Q 453 1522 633 1644 
Q 813 1766 1038 1828 
Q 1203 1872 1538 1913 
Q 2219 1994 2541 2106 
Q 2544 2222 2544 2253 
Q 2544 2597 2384 2738 
Q 2169 2928 1744 2928 
Q 1347 2928 1158 2789 
Q 969 2650 878 2297 
L 328 2372 
Q 403 2725 575 2942 
Q 747 3159 1072 3276 
Q 1397 3394 1825 3394 
Q 2250 3394 2515 3294 
Q 2781 3194 2906 3042 
Q 3031 2891 3081 2659 
Q 3109 2516 3109 2141 
L 3109 1391 
Q 3109 606 3145 398 
Q 3181 191 3288 0 
L 2700 0 
Q 2613 175 2588 409 
z
M 2541 1666 
Q 2234 1541 1622 1453 
Q 1275 1403 1131 1340 
Q 988 1278 909 1158 
Q 831 1038 831 891 
Q 831 666 1001 516 
Q 1172 366 1500 366 
Q 1825 366 2078 508 
Q 2331 650 2450 897 
Q 2541 1088 2541 1459 
L 2541 1666 
z
" transform="scale(0.015625)"/>
        <path id="ArialMT-20" transform="scale(0.015625)"/>
        <path id="ArialMT-41" d="M -9 0 
L 1750 4581 
L 2403 4581 
L 4278 0 
L 3588 0 
L 3053 1388 
L 1138 1388 
L 634 0 
L -9 0 
z
M 1313 1881 
L 2866 1881 
L 2388 3150 
Q 2169 3728 2063 4100 
Q 1975 3659 1816 3225 
L 1313 1881 
z
" transform="scale(0.015625)"/>
        <path id="ArialMT-74" d="M 1650 503 
L 1731 6 
Q 1494 -44 1306 -44 
Q 1000 -44 831 53 
Q 663 150 594 308 
Q 525 466 525 972 
L 525 2881 
L 113 2881 
L 113 3319 
L 525 3319 
L 525 4141 
L 1084 4478 
L 1084 3319 
L 1650 3319 
L 1650 2881 
L 1084 2881 
L 1084 941 
Q 1084 700 1114 631 
Q 1144 563 1211 522 
Q 1278 481 1403 481 
Q 1497 481 1650 503 
z
" transform="scale(0.015625)"/>
       </defs>
       <use xlink:href="#ArialMT-4d"/>
       <use xlink:href="#ArialMT-69" x="83.300781"/>
       <use xlink:href="#ArialMT-6c" x="105.517578"/>
       <use xlink:href="#ArialMT-70" x="127.734375"/>
       <use xlink:href="#ArialMT-61" x="183.349609"/>
       <use xlink:href="#ArialMT-20" x="238.964844"/>
       <use xlink:href="#ArialMT-41" x="261.248047"/>
       <use xlink:href="#ArialMT-6c" x="327.947266"/>
       <use xlink:href="#ArialMT-74" x="350.164062"/>
       <use xlink:href="#ArialMT-61" x="377.947266"/>
      </g>
     </g>
    </g>
    <g id="xtick_2">
     <g id="line2d_2"/>
     <g id="text_2">
      <!-- Gustavo A. Madero -->
      <g style="fill: #262626" transform="translate(110.316032 549.058939) rotate(-45) scale(0.1 -0.1)">
       <defs>
        <path id="ArialMT-47" d="M 2638 1797 
L 2638 2334 
L 4578 2338 
L 4578 638 
Q 4131 281 3656 101 
Q 3181 -78 2681 -78 
Q 2006 -78 1454 211 
Q 903 500 622 1047 
Q 341 1594 341 2269 
Q 341 2938 620 3517 
Q 900 4097 1425 4378 
Q 1950 4659 2634 4659 
Q 3131 4659 3532 4498 
Q 3934 4338 4162 4050 
Q 4391 3763 4509 3300 
L 3963 3150 
Q 3859 3500 3706 3700 
Q 3553 3900 3268 4020 
Q 2984 4141 2638 4141 
Q 2222 4141 1919 4014 
Q 1616 3888 1430 3681 
Q 1244 3475 1141 3228 
Q 966 2803 966 2306 
Q 966 1694 1177 1281 
Q 1388 869 1791 669 
Q 2194 469 2647 469 
Q 3041 469 3416 620 
Q 3791 772 3984 944 
L 3984 1797 
L 2638 1797 
z
" transform="scale(0.015625)"/>
        <path id="ArialMT-75" d="M 2597 0 
L 2597 488 
Q 2209 -75 1544 -75 
Q 1250 -75 995 37 
Q 741 150 617 320 
Q 494 491 444 738 
Q 409 903 409 1263 
L 409 3319 
L 972 3319 
L 972 1478 
Q 972 1038 1006 884 
Q 1059 663 1231 536 
Q 1403 409 1656 409 
Q 1909 409 2131 539 
Q 2353 669 2445 892 
Q 2538 1116 2538 1541 
L 2538 3319 
L 3100 3319 
L 3100 0 
L 2597 0 
z
" transform="scale(0.015625)"/>
        <path id="ArialMT-73" d="M 197 991 
L 753 1078 
Q 800 744 1014 566 
Q 1228 388 1613 388 
Q 2000 388 2187 545 
Q 2375 703 2375 916 
Q 2375 1106 2209 1216 
Q 2094 1291 1634 1406 
Q 1016 1563 777 1677 
Q 538 1791 414 1992 
Q 291 2194 291 2438 
Q 291 2659 392 2848 
Q 494 3038 669 3163 
Q 800 3259 1026 3326 
Q 1253 3394 1513 3394 
Q 1903 3394 2198 3281 
Q 2494 3169 2634 2976 
Q 2775 2784 2828 2463 
L 2278 2388 
Q 2241 2644 2061 2787 
Q 1881 2931 1553 2931 
Q 1166 2931 1000 2803 
Q 834 2675 834 2503 
Q 834 2394 903 2306 
Q 972 2216 1119 2156 
Q 1203 2125 1616 2013 
Q 2213 1853 2448 1751 
Q 2684 1650 2818 1456 
Q 2953 1263 2953 975 
Q 2953 694 2789 445 
Q 2625 197 2315 61 
Q 2006 -75 1616 -75 
Q 969 -75 630 194 
Q 291 463 197 991 
z
" transform="scale(0.015625)"/>
        <path id="ArialMT-76" d="M 1344 0 
L 81 3319 
L 675 3319 
L 1388 1331 
Q 1503 1009 1600 663 
Q 1675 925 1809 1294 
L 2547 3319 
L 3125 3319 
L 1869 0 
L 1344 0 
z
" transform="scale(0.015625)"/>
        <path id="ArialMT-6f" d="M 213 1659 
Q 213 2581 725 3025 
Q 1153 3394 1769 3394 
Q 2453 3394 2887 2945 
Q 3322 2497 3322 1706 
Q 3322 1066 3130 698 
Q 2938 331 2570 128 
Q 2203 -75 1769 -75 
Q 1072 -75 642 372 
Q 213 819 213 1659 
z
M 791 1659 
Q 791 1022 1069 705 
Q 1347 388 1769 388 
Q 2188 388 2466 706 
Q 2744 1025 2744 1678 
Q 2744 2294 2464 2611 
Q 2184 2928 1769 2928 
Q 1347 2928 1069 2612 
Q 791 2297 791 1659 
z
" transform="scale(0.015625)"/>
        <path id="ArialMT-2e" d="M 581 0 
L 581 641 
L 1222 641 
L 1222 0 
L 581 0 
z
" transform="scale(0.015625)"/>
        <path id="ArialMT-64" d="M 2575 0 
L 2575 419 
Q 2259 -75 1647 -75 
Q 1250 -75 917 144 
Q 584 363 401 755 
Q 219 1147 219 1656 
Q 219 2153 384 2558 
Q 550 2963 881 3178 
Q 1213 3394 1622 3394 
Q 1922 3394 2156 3267 
Q 2391 3141 2538 2938 
L 2538 4581 
L 3097 4581 
L 3097 0 
L 2575 0 
z
M 797 1656 
Q 797 1019 1065 703 
Q 1334 388 1700 388 
Q 2069 388 2326 689 
Q 2584 991 2584 1609 
Q 2584 2291 2321 2609 
Q 2059 2928 1675 2928 
Q 1300 2928 1048 2622 
Q 797 2316 797 1656 
z
" transform="scale(0.015625)"/>
        <path id="ArialMT-65" d="M 2694 1069 
L 3275 997 
Q 3138 488 2766 206 
Q 2394 -75 1816 -75 
Q 1088 -75 661 373 
Q 234 822 234 1631 
Q 234 2469 665 2931 
Q 1097 3394 1784 3394 
Q 2450 3394 2872 2941 
Q 3294 2488 3294 1666 
Q 3294 1616 3291 1516 
L 816 1516 
Q 847 969 1125 678 
Q 1403 388 1819 388 
Q 2128 388 2347 550 
Q 2566 713 2694 1069 
z
M 847 1978 
L 2700 1978 
Q 2663 2397 2488 2606 
Q 2219 2931 1791 2931 
Q 1403 2931 1139 2672 
Q 875 2413 847 1978 
z
" transform="scale(0.015625)"/>
        <path id="ArialMT-72" d="M 416 0 
L 416 3319 
L 922 3319 
L 922 2816 
Q 1116 3169 1280 3281 
Q 1444 3394 1641 3394 
Q 1925 3394 2219 3213 
L 2025 2691 
Q 1819 2813 1613 2813 
Q 1428 2813 1281 2702 
Q 1134 2591 1072 2394 
Q 978 2094 978 1738 
L 978 0 
L 416 0 
z
" transform="scale(0.015625)"/>
       </defs>
       <use xlink:href="#ArialMT-47"/>
       <use xlink:href="#ArialMT-75" x="77.783203"/>
       <use xlink:href="#ArialMT-73" x="133.398438"/>
       <use xlink:href="#ArialMT-74" x="183.398438"/>
       <use xlink:href="#ArialMT-61" x="211.181641"/>
       <use xlink:href="#ArialMT-76" x="266.796875"/>
       <use xlink:href="#ArialMT-6f" x="316.796875"/>
       <use xlink:href="#ArialMT-20" x="372.412109"/>
       <use xlink:href="#ArialMT-41" x="394.695312"/>
       <use xlink:href="#ArialMT-2e" x="461.394531"/>
       <use xlink:href="#ArialMT-20" x="489.177734"/>
       <use xlink:href="#ArialMT-4d" x="516.960938"/>
       <use xlink:href="#ArialMT-61" x="600.261719"/>
       <use xlink:href="#ArialMT-64" x="655.876953"/>
       <use xlink:href="#ArialMT-65" x="711.492188"/>
       <use xlink:href="#ArialMT-72" x="767.107422"/>
       <use xlink:href="#ArialMT-6f" x="800.408203"/>
      </g>
     </g>
    </g>
    <g id="xtick_3">
     <g id="line2d_3"/>
     <g id="text_3">
      <!-- Xochimilco -->
      <g style="fill: #262626" transform="translate(191.889629 522.720317) rotate(-45) scale(0.1 -0.1)">
       <defs>
        <path id="ArialMT-58" d="M 28 0 
L 1800 2388 
L 238 4581 
L 959 4581 
L 1791 3406 
Q 2050 3041 2159 2844 
Q 2313 3094 2522 3366 
L 3444 4581 
L 4103 4581 
L 2494 2422 
L 4228 0 
L 3478 0 
L 2325 1634 
Q 2228 1775 2125 1941 
Q 1972 1691 1906 1597 
L 756 0 
L 28 0 
z
" transform="scale(0.015625)"/>
        <path id="ArialMT-63" d="M 2588 1216 
L 3141 1144 
Q 3050 572 2676 248 
Q 2303 -75 1759 -75 
Q 1078 -75 664 370 
Q 250 816 250 1647 
Q 250 2184 428 2587 
Q 606 2991 970 3192 
Q 1334 3394 1763 3394 
Q 2303 3394 2647 3120 
Q 2991 2847 3088 2344 
L 2541 2259 
Q 2463 2594 2264 2762 
Q 2066 2931 1784 2931 
Q 1359 2931 1093 2626 
Q 828 2322 828 1663 
Q 828 994 1084 691 
Q 1341 388 1753 388 
Q 2084 388 2306 591 
Q 2528 794 2588 1216 
z
" transform="scale(0.015625)"/>
        <path id="ArialMT-68" d="M 422 0 
L 422 4581 
L 984 4581 
L 984 2938 
Q 1378 3394 1978 3394 
Q 2347 3394 2619 3248 
Q 2891 3103 3008 2847 
Q 3125 2591 3125 2103 
L 3125 0 
L 2563 0 
L 2563 2103 
Q 2563 2525 2380 2717 
Q 2197 2909 1863 2909 
Q 1613 2909 1392 2779 
Q 1172 2650 1078 2428 
Q 984 2206 984 1816 
L 984 0 
L 422 0 
z
" transform="scale(0.015625)"/>
        <path id="ArialMT-6d" d="M 422 0 
L 422 3319 
L 925 3319 
L 925 2853 
Q 1081 3097 1340 3245 
Q 1600 3394 1931 3394 
Q 2300 3394 2536 3241 
Q 2772 3088 2869 2813 
Q 3263 3394 3894 3394 
Q 4388 3394 4653 3120 
Q 4919 2847 4919 2278 
L 4919 0 
L 4359 0 
L 4359 2091 
Q 4359 2428 4304 2576 
Q 4250 2725 4106 2815 
Q 3963 2906 3769 2906 
Q 3419 2906 3187 2673 
Q 2956 2441 2956 1928 
L 2956 0 
L 2394 0 
L 2394 2156 
Q 2394 2531 2256 2718 
Q 2119 2906 1806 2906 
Q 1569 2906 1367 2781 
Q 1166 2656 1075 2415 
Q 984 2175 984 1722 
L 984 0 
L 422 0 
z
" transform="scale(0.015625)"/>
       </defs>
       <use xlink:href="#ArialMT-58"/>
       <use xlink:href="#ArialMT-6f" x="66.699219"/>
       <use xlink:href="#ArialMT-63" x="122.314453"/>
       <use xlink:href="#ArialMT-68" x="172.314453"/>
       <use xlink:href="#ArialMT-69" x="227.929688"/>
       <use xlink:href="#ArialMT-6d" x="250.146484"/>
       <use xlink:href="#ArialMT-69" x="333.447266"/>
       <use xlink:href="#ArialMT-6c" x="355.664062"/>
       <use xlink:href="#ArialMT-63" x="377.880859"/>
       <use xlink:href="#ArialMT-6f" x="427.880859"/>
      </g>
     </g>
    </g>
    <g id="xtick_4">
     <g id="line2d_4"/>
     <g id="text_4">
      <!-- Tlalpan -->
      <g style="fill: #262626" transform="translate(265.792775 511.722596) rotate(-45) scale(0.1 -0.1)">
       <defs>
        <path id="ArialMT-54" d="M 1659 0 
L 1659 4041 
L 150 4041 
L 150 4581 
L 3781 4581 
L 3781 4041 
L 2266 4041 
L 2266 0 
L 1659 0 
z
" transform="scale(0.015625)"/>
        <path id="ArialMT-6e" d="M 422 0 
L 422 3319 
L 928 3319 
L 928 2847 
Q 1294 3394 1984 3394 
Q 2284 3394 2536 3286 
Q 2788 3178 2913 3003 
Q 3038 2828 3088 2588 
Q 3119 2431 3119 2041 
L 3119 0 
L 2556 0 
L 2556 2019 
Q 2556 2363 2490 2533 
Q 2425 2703 2258 2804 
Q 2091 2906 1866 2906 
Q 1506 2906 1245 2678 
Q 984 2450 984 1813 
L 984 0 
L 422 0 
z
" transform="scale(0.015625)"/>
       </defs>
       <use xlink:href="#ArialMT-54"/>
       <use xlink:href="#ArialMT-6c" x="61.083984"/>
       <use xlink:href="#ArialMT-61" x="83.300781"/>
       <use xlink:href="#ArialMT-6c" x="138.916016"/>
       <use xlink:href="#ArialMT-70" x="161.132812"/>
       <use xlink:href="#ArialMT-61" x="216.748047"/>
       <use xlink:href="#ArialMT-6e" x="272.363281"/>
      </g>
     </g>
    </g>
    <g id="xtick_5">
     <g id="line2d_5"/>
     <g id="text_5">
      <!-- Iztapalapa -->
      <g style="fill: #262626" transform="translate(329.477675 521.161367) rotate(-45) scale(0.1 -0.1)">
       <defs>
        <path id="ArialMT-49" d="M 597 0 
L 597 4581 
L 1203 4581 
L 1203 0 
L 597 0 
z
" transform="scale(0.015625)"/>
        <path id="ArialMT-7a" d="M 125 0 
L 125 456 
L 2238 2881 
Q 1878 2863 1603 2863 
L 250 2863 
L 250 3319 
L 2963 3319 
L 2963 2947 
L 1166 841 
L 819 456 
Q 1197 484 1528 484 
L 3063 484 
L 3063 0 
L 125 0 
z
" transform="scale(0.015625)"/>
       </defs>
       <use xlink:href="#ArialMT-49"/>
       <use xlink:href="#ArialMT-7a" x="27.783203"/>
       <use xlink:href="#ArialMT-74" x="77.783203"/>
       <use xlink:href="#ArialMT-61" x="105.566406"/>
       <use xlink:href="#ArialMT-70" x="161.181641"/>
       <use xlink:href="#ArialMT-61" x="216.796875"/>
       <use xlink:href="#ArialMT-6c" x="272.412109"/>
       <use xlink:href="#ArialMT-61" x="294.628906"/>
       <use xlink:href="#ArialMT-70" x="350.244141"/>
       <use xlink:href="#ArialMT-61" x="405.859375"/>
      </g>
     </g>
    </g>
    <g id="xtick_6">
     <g id="line2d_6"/>
     <g id="text_6">
      <!-- Coyoacan -->
      <g style="fill: #262626" transform="translate(398.278604 520.457575) rotate(-45) scale(0.1 -0.1)">
       <defs>
        <path id="ArialMT-43" d="M 3763 1606 
L 4369 1453 
Q 4178 706 3683 314 
Q 3188 -78 2472 -78 
Q 1731 -78 1267 223 
Q 803 525 561 1097 
Q 319 1669 319 2325 
Q 319 3041 592 3573 
Q 866 4106 1370 4382 
Q 1875 4659 2481 4659 
Q 3169 4659 3637 4309 
Q 4106 3959 4291 3325 
L 3694 3184 
Q 3534 3684 3231 3912 
Q 2928 4141 2469 4141 
Q 1941 4141 1586 3887 
Q 1231 3634 1087 3207 
Q 944 2781 944 2328 
Q 944 1744 1114 1308 
Q 1284 872 1643 656 
Q 2003 441 2422 441 
Q 2931 441 3284 734 
Q 3638 1028 3763 1606 
z
" transform="scale(0.015625)"/>
        <path id="ArialMT-79" d="M 397 -1278 
L 334 -750 
Q 519 -800 656 -800 
Q 844 -800 956 -737 
Q 1069 -675 1141 -563 
Q 1194 -478 1313 -144 
Q 1328 -97 1363 -6 
L 103 3319 
L 709 3319 
L 1400 1397 
Q 1534 1031 1641 628 
Q 1738 1016 1872 1384 
L 2581 3319 
L 3144 3319 
L 1881 -56 
Q 1678 -603 1566 -809 
Q 1416 -1088 1222 -1217 
Q 1028 -1347 759 -1347 
Q 597 -1347 397 -1278 
z
" transform="scale(0.015625)"/>
       </defs>
       <use xlink:href="#ArialMT-43"/>
       <use xlink:href="#ArialMT-6f" x="72.216797"/>
       <use xlink:href="#ArialMT-79" x="127.832031"/>
       <use xlink:href="#ArialMT-6f" x="177.832031"/>
       <use xlink:href="#ArialMT-61" x="233.447266"/>
       <use xlink:href="#ArialMT-63" x="289.0625"/>
       <use xlink:href="#ArialMT-61" x="339.0625"/>
       <use xlink:href="#ArialMT-6e" x="394.677734"/>
      </g>
     </g>
    </g>
    <g id="xtick_7">
     <g id="line2d_7"/>
     <g id="text_7">
      <!-- Iztacalco -->
      <g style="fill: #262626" transform="translate(468.648978 516.435905) rotate(-45) scale(0.1 -0.1)">
       <use xlink:href="#ArialMT-49"/>
       <use xlink:href="#ArialMT-7a" x="27.783203"/>
       <use xlink:href="#ArialMT-74" x="77.783203"/>
       <use xlink:href="#ArialMT-61" x="105.566406"/>
       <use xlink:href="#ArialMT-63" x="161.181641"/>
       <use xlink:href="#ArialMT-61" x="211.181641"/>
       <use xlink:href="#ArialMT-6c" x="266.796875"/>
       <use xlink:href="#ArialMT-63" x="289.013672"/>
       <use xlink:href="#ArialMT-6f" x="339.013672"/>
      </g>
     </g>
    </g>
    <g id="xtick_8">
     <g id="line2d_8"/>
     <g id="text_8">
      <!-- Cuauhtemoc -->
      <g style="fill: #262626" transform="translate(530.959992 528.622449) rotate(-45) scale(0.1 -0.1)">
       <use xlink:href="#ArialMT-43"/>
       <use xlink:href="#ArialMT-75" x="72.216797"/>
       <use xlink:href="#ArialMT-61" x="127.832031"/>
       <use xlink:href="#ArialMT-75" x="183.447266"/>
       <use xlink:href="#ArialMT-68" x="239.0625"/>
       <use xlink:href="#ArialMT-74" x="294.677734"/>
       <use xlink:href="#ArialMT-65" x="322.460938"/>
       <use xlink:href="#ArialMT-6d" x="378.076172"/>
       <use xlink:href="#ArialMT-6f" x="461.376953"/>
       <use xlink:href="#ArialMT-63" x="516.992188"/>
      </g>
     </g>
    </g>
    <g id="xtick_9">
     <g id="line2d_9"/>
     <g id="text_9">
      <!-- Venustiano Carranza -->
      <g style="fill: #262626" transform="translate(586.391078 554.568848) rotate(-45) scale(0.1 -0.1)">
       <defs>
        <path id="ArialMT-56" d="M 1803 0 
L 28 4581 
L 684 4581 
L 1875 1253 
Q 2019 853 2116 503 
Q 2222 878 2363 1253 
L 3600 4581 
L 4219 4581 
L 2425 0 
L 1803 0 
z
" transform="scale(0.015625)"/>
       </defs>
       <use xlink:href="#ArialMT-56"/>
       <use xlink:href="#ArialMT-65" x="61.199219"/>
       <use xlink:href="#ArialMT-6e" x="116.814453"/>
       <use xlink:href="#ArialMT-75" x="172.429688"/>
       <use xlink:href="#ArialMT-73" x="228.044922"/>
       <use xlink:href="#ArialMT-74" x="278.044922"/>
       <use xlink:href="#ArialMT-69" x="305.828125"/>
       <use xlink:href="#ArialMT-61" x="328.044922"/>
       <use xlink:href="#ArialMT-6e" x="383.660156"/>
       <use xlink:href="#ArialMT-6f" x="439.275391"/>
       <use xlink:href="#ArialMT-20" x="494.890625"/>
       <use xlink:href="#ArialMT-43" x="522.673828"/>
       <use xlink:href="#ArialMT-61" x="594.890625"/>
       <use xlink:href="#ArialMT-72" x="650.505859"/>
       <use xlink:href="#ArialMT-72" x="683.806641"/>
       <use xlink:href="#ArialMT-61" x="717.107422"/>
       <use xlink:href="#ArialMT-6e" x="772.722656"/>
       <use xlink:href="#ArialMT-7a" x="828.337891"/>
       <use xlink:href="#ArialMT-61" x="878.337891"/>
      </g>
     </g>
    </g>
    <g id="xtick_10">
     <g id="line2d_10"/>
     <g id="text_10">
      <!-- Cuajimalpa de Morelos -->
      <g style="fill: #262626" transform="translate(651.659235 560.930599) rotate(-45) scale(0.1 -0.1)">
       <defs>
        <path id="ArialMT-6a" d="M 419 3928 
L 419 4581 
L 981 4581 
L 981 3928 
L 419 3928 
z
M -294 -1288 
L -188 -809 
Q -19 -853 78 -853 
Q 250 -853 334 -739 
Q 419 -625 419 -169 
L 419 3319 
L 981 3319 
L 981 -181 
Q 981 -794 822 -1034 
Q 619 -1347 147 -1347 
Q -81 -1347 -294 -1288 
z
" transform="scale(0.015625)"/>
       </defs>
       <use xlink:href="#ArialMT-43"/>
       <use xlink:href="#ArialMT-75" x="72.216797"/>
       <use xlink:href="#ArialMT-61" x="127.832031"/>
       <use xlink:href="#ArialMT-6a" x="183.447266"/>
       <use xlink:href="#ArialMT-69" x="205.664062"/>
       <use xlink:href="#ArialMT-6d" x="227.880859"/>
       <use xlink:href="#ArialMT-61" x="311.181641"/>
       <use xlink:href="#ArialMT-6c" x="366.796875"/>
       <use xlink:href="#ArialMT-70" x="389.013672"/>
       <use xlink:href="#ArialMT-61" x="444.628906"/>
       <use xlink:href="#ArialMT-20" x="500.244141"/>
       <use xlink:href="#ArialMT-64" x="528.027344"/>
       <use xlink:href="#ArialMT-65" x="583.642578"/>
       <use xlink:href="#ArialMT-20" x="639.257812"/>
       <use xlink:href="#ArialMT-4d" x="667.041016"/>
       <use xlink:href="#ArialMT-6f" x="750.341797"/>
       <use xlink:href="#ArialMT-72" x="805.957031"/>
       <use xlink:href="#ArialMT-65" x="839.257812"/>
       <use xlink:href="#ArialMT-6c" x="894.873047"/>
       <use xlink:href="#ArialMT-6f" x="917.089844"/>
       <use xlink:href="#ArialMT-73" x="972.705078"/>
      </g>
     </g>
    </g>
    <g id="xtick_11">
     <g id="line2d_11"/>
     <g id="text_11">
      <!-- Azcapotzalco -->
      <g style="fill: #262626" transform="translate(735.190081 530.587984) rotate(-45) scale(0.1 -0.1)">
       <use xlink:href="#ArialMT-41"/>
       <use xlink:href="#ArialMT-7a" x="66.699219"/>
       <use xlink:href="#ArialMT-63" x="116.699219"/>
       <use xlink:href="#ArialMT-61" x="166.699219"/>
       <use xlink:href="#ArialMT-70" x="222.314453"/>
       <use xlink:href="#ArialMT-6f" x="277.929688"/>
       <use xlink:href="#ArialMT-74" x="333.544922"/>
       <use xlink:href="#ArialMT-7a" x="361.328125"/>
       <use xlink:href="#ArialMT-61" x="411.328125"/>
       <use xlink:href="#ArialMT-6c" x="466.943359"/>
       <use xlink:href="#ArialMT-63" x="489.160156"/>
       <use xlink:href="#ArialMT-6f" x="539.160156"/>
      </g>
     </g>
    </g>
    <g id="xtick_12">
     <g id="line2d_12"/>
     <g id="text_12">
      <!-- Alvaro Obregon -->
      <g style="fill: #262626" transform="translate(799.864931 538.145188) rotate(-45) scale(0.1 -0.1)">
       <defs>
        <path id="ArialMT-4f" d="M 309 2231 
Q 309 3372 921 4017 
Q 1534 4663 2503 4663 
Q 3138 4663 3647 4359 
Q 4156 4056 4423 3514 
Q 4691 2972 4691 2284 
Q 4691 1588 4409 1038 
Q 4128 488 3612 205 
Q 3097 -78 2500 -78 
Q 1853 -78 1343 234 
Q 834 547 571 1087 
Q 309 1628 309 2231 
z
M 934 2222 
Q 934 1394 1379 917 
Q 1825 441 2497 441 
Q 3181 441 3623 922 
Q 4066 1403 4066 2288 
Q 4066 2847 3877 3264 
Q 3688 3681 3323 3911 
Q 2959 4141 2506 4141 
Q 1863 4141 1398 3698 
Q 934 3256 934 2222 
z
" transform="scale(0.015625)"/>
        <path id="ArialMT-62" d="M 941 0 
L 419 0 
L 419 4581 
L 981 4581 
L 981 2947 
Q 1338 3394 1891 3394 
Q 2197 3394 2470 3270 
Q 2744 3147 2920 2923 
Q 3097 2700 3197 2384 
Q 3297 2069 3297 1709 
Q 3297 856 2875 390 
Q 2453 -75 1863 -75 
Q 1275 -75 941 416 
L 941 0 
z
M 934 1684 
Q 934 1088 1097 822 
Q 1363 388 1816 388 
Q 2184 388 2453 708 
Q 2722 1028 2722 1663 
Q 2722 2313 2464 2622 
Q 2206 2931 1841 2931 
Q 1472 2931 1203 2611 
Q 934 2291 934 1684 
z
" transform="scale(0.015625)"/>
        <path id="ArialMT-67" d="M 319 -275 
L 866 -356 
Q 900 -609 1056 -725 
Q 1266 -881 1628 -881 
Q 2019 -881 2231 -725 
Q 2444 -569 2519 -288 
Q 2563 -116 2559 434 
Q 2191 0 1641 0 
Q 956 0 581 494 
Q 206 988 206 1678 
Q 206 2153 378 2554 
Q 550 2956 876 3175 
Q 1203 3394 1644 3394 
Q 2231 3394 2613 2919 
L 2613 3319 
L 3131 3319 
L 3131 450 
Q 3131 -325 2973 -648 
Q 2816 -972 2473 -1159 
Q 2131 -1347 1631 -1347 
Q 1038 -1347 672 -1080 
Q 306 -813 319 -275 
z
M 784 1719 
Q 784 1066 1043 766 
Q 1303 466 1694 466 
Q 2081 466 2343 764 
Q 2606 1063 2606 1700 
Q 2606 2309 2336 2618 
Q 2066 2928 1684 2928 
Q 1309 2928 1046 2623 
Q 784 2319 784 1719 
z
" transform="scale(0.015625)"/>
       </defs>
       <use xlink:href="#ArialMT-41"/>
       <use xlink:href="#ArialMT-6c" x="66.699219"/>
       <use xlink:href="#ArialMT-76" x="88.916016"/>
       <use xlink:href="#ArialMT-61" x="138.916016"/>
       <use xlink:href="#ArialMT-72" x="194.53125"/>
       <use xlink:href="#ArialMT-6f" x="227.832031"/>
       <use xlink:href="#ArialMT-20" x="283.447266"/>
       <use xlink:href="#ArialMT-4f" x="311.230469"/>
       <use xlink:href="#ArialMT-62" x="389.013672"/>
       <use xlink:href="#ArialMT-72" x="444.628906"/>
       <use xlink:href="#ArialMT-65" x="477.929688"/>
       <use xlink:href="#ArialMT-67" x="533.544922"/>
       <use xlink:href="#ArialMT-6f" x="589.160156"/>
       <use xlink:href="#ArialMT-6e" x="644.775391"/>
      </g>
     </g>
    </g>
    <g id="xtick_13">
     <g id="line2d_13"/>
     <g id="text_13">
      <!-- Miguel Hidalgo -->
      <g style="fill: #262626" transform="translate(869.599461 535.303503) rotate(-45) scale(0.1 -0.1)">
       <defs>
        <path id="ArialMT-48" d="M 513 0 
L 513 4581 
L 1119 4581 
L 1119 2700 
L 3500 2700 
L 3500 4581 
L 4106 4581 
L 4106 0 
L 3500 0 
L 3500 2159 
L 1119 2159 
L 1119 0 
L 513 0 
z
" transform="scale(0.015625)"/>
       </defs>
       <use xlink:href="#ArialMT-4d"/>
       <use xlink:href="#ArialMT-69" x="83.300781"/>
       <use xlink:href="#ArialMT-67" x="105.517578"/>
       <use xlink:href="#ArialMT-75" x="161.132812"/>
       <use xlink:href="#ArialMT-65" x="216.748047"/>
       <use xlink:href="#ArialMT-6c" x="272.363281"/>
       <use xlink:href="#ArialMT-20" x="294.580078"/>
       <use xlink:href="#ArialMT-48" x="322.363281"/>
       <use xlink:href="#ArialMT-69" x="394.580078"/>
       <use xlink:href="#ArialMT-64" x="416.796875"/>
       <use xlink:href="#ArialMT-61" x="472.412109"/>
       <use xlink:href="#ArialMT-6c" x="528.027344"/>
       <use xlink:href="#ArialMT-67" x="550.244141"/>
       <use xlink:href="#ArialMT-6f" x="605.859375"/>
      </g>
     </g>
    </g>
    <g id="xtick_14">
     <g id="line2d_14"/>
     <g id="text_14">
      <!-- Benito Juarez -->
      <g style="fill: #262626" transform="translate(939.812946 531.767969) rotate(-45) scale(0.1 -0.1)">
       <defs>
        <path id="ArialMT-42" d="M 469 0 
L 469 4581 
L 2188 4581 
Q 2713 4581 3030 4442 
Q 3347 4303 3526 4014 
Q 3706 3725 3706 3409 
Q 3706 3116 3547 2856 
Q 3388 2597 3066 2438 
Q 3481 2316 3704 2022 
Q 3928 1728 3928 1328 
Q 3928 1006 3792 729 
Q 3656 453 3456 303 
Q 3256 153 2954 76 
Q 2653 0 2216 0 
L 469 0 
z
M 1075 2656 
L 2066 2656 
Q 2469 2656 2644 2709 
Q 2875 2778 2992 2937 
Q 3109 3097 3109 3338 
Q 3109 3566 3000 3739 
Q 2891 3913 2687 3977 
Q 2484 4041 1991 4041 
L 1075 4041 
L 1075 2656 
z
M 1075 541 
L 2216 541 
Q 2509 541 2628 563 
Q 2838 600 2978 687 
Q 3119 775 3209 942 
Q 3300 1109 3300 1328 
Q 3300 1584 3169 1773 
Q 3038 1963 2805 2039 
Q 2572 2116 2134 2116 
L 1075 2116 
L 1075 541 
z
" transform="scale(0.015625)"/>
        <path id="ArialMT-4a" d="M 184 1300 
L 731 1375 
Q 753 850 928 656 
Q 1103 463 1413 463 
Q 1641 463 1806 567 
Q 1972 672 2034 851 
Q 2097 1031 2097 1425 
L 2097 4581 
L 2703 4581 
L 2703 1459 
Q 2703 884 2564 568 
Q 2425 253 2123 87 
Q 1822 -78 1416 -78 
Q 813 -78 492 269 
Q 172 616 184 1300 
z
" transform="scale(0.015625)"/>
       </defs>
       <use xlink:href="#ArialMT-42"/>
       <use xlink:href="#ArialMT-65" x="66.699219"/>
       <use xlink:href="#ArialMT-6e" x="122.314453"/>
       <use xlink:href="#ArialMT-69" x="177.929688"/>
       <use xlink:href="#ArialMT-74" x="200.146484"/>
       <use xlink:href="#ArialMT-6f" x="227.929688"/>
       <use xlink:href="#ArialMT-20" x="283.544922"/>
       <use xlink:href="#ArialMT-4a" x="311.328125"/>
       <use xlink:href="#ArialMT-75" x="361.328125"/>
       <use xlink:href="#ArialMT-61" x="416.943359"/>
       <use xlink:href="#ArialMT-72" x="472.558594"/>
       <use xlink:href="#ArialMT-65" x="505.859375"/>
       <use xlink:href="#ArialMT-7a" x="561.474609"/>
      </g>
     </g>
    </g>
   </g>
   <g id="matplotlib.axis_2">
    <g id="ytick_1">
     <g id="line2d_15">
      <path d="M 36.144688 407.848992 
L 993.804688 407.848992 
" clip-path="url(#p15d1e516ac)" style="fill: none; stroke: #cccccc; stroke-opacity: 0.3; stroke-width: 0.8; stroke-linecap: round"/>
     </g>
     <g id="line2d_16"/>
     <g id="text_15">
      <!-- 5 -->
      <g style="fill: #262626" transform="translate(27.08375 411.427899) scale(0.1 -0.1)">
       <defs>
        <path id="ArialMT-35" d="M 266 1200 
L 856 1250 
Q 922 819 1161 601 
Q 1400 384 1738 384 
Q 2144 384 2425 690 
Q 2706 997 2706 1503 
Q 2706 1984 2436 2262 
Q 2166 2541 1728 2541 
Q 1456 2541 1237 2417 
Q 1019 2294 894 2097 
L 366 2166 
L 809 4519 
L 3088 4519 
L 3088 3981 
L 1259 3981 
L 1013 2750 
Q 1425 3038 1878 3038 
Q 2478 3038 2890 2622 
Q 3303 2206 3303 1553 
Q 3303 931 2941 478 
Q 2500 -78 1738 -78 
Q 1113 -78 717 272 
Q 322 622 266 1200 
z
" transform="scale(0.015625)"/>
       </defs>
       <use xlink:href="#ArialMT-35"/>
      </g>
     </g>
    </g>
    <g id="ytick_2">
     <g id="line2d_17">
      <path d="M 36.144688 333.34183 
L 993.804688 333.34183 
" clip-path="url(#p15d1e516ac)" style="fill: none; stroke: #cccccc; stroke-opacity: 0.3; stroke-width: 0.8; stroke-linecap: round"/>
     </g>
     <g id="line2d_18"/>
     <g id="text_16">
      <!-- 10 -->
      <g style="fill: #262626" transform="translate(21.522813 336.920737) scale(0.1 -0.1)">
       <defs>
        <path id="ArialMT-31" d="M 2384 0 
L 1822 0 
L 1822 3584 
Q 1619 3391 1289 3197 
Q 959 3003 697 2906 
L 697 3450 
Q 1169 3672 1522 3987 
Q 1875 4303 2022 4600 
L 2384 4600 
L 2384 0 
z
" transform="scale(0.015625)"/>
        <path id="ArialMT-30" d="M 266 2259 
Q 266 3072 433 3567 
Q 600 4063 929 4331 
Q 1259 4600 1759 4600 
Q 2128 4600 2406 4451 
Q 2684 4303 2865 4023 
Q 3047 3744 3150 3342 
Q 3253 2941 3253 2259 
Q 3253 1453 3087 958 
Q 2922 463 2592 192 
Q 2263 -78 1759 -78 
Q 1097 -78 719 397 
Q 266 969 266 2259 
z
M 844 2259 
Q 844 1131 1108 757 
Q 1372 384 1759 384 
Q 2147 384 2411 759 
Q 2675 1134 2675 2259 
Q 2675 3391 2411 3762 
Q 2147 4134 1753 4134 
Q 1366 4134 1134 3806 
Q 844 3388 844 2259 
z
" transform="scale(0.015625)"/>
       </defs>
       <use xlink:href="#ArialMT-31"/>
       <use xlink:href="#ArialMT-30" x="55.615234"/>
      </g>
     </g>
    </g>
    <g id="ytick_3">
     <g id="line2d_19">
      <path d="M 36.144688 258.834668 
L 993.804688 258.834668 
" clip-path="url(#p15d1e516ac)" style="fill: none; stroke: #cccccc; stroke-opacity: 0.3; stroke-width: 0.8; stroke-linecap: round"/>
     </g>
     <g id="line2d_20"/>
     <g id="text_17">
      <!-- 15 -->
      <g style="fill: #262626" transform="translate(21.522813 262.413575) scale(0.1 -0.1)">
       <use xlink:href="#ArialMT-31"/>
       <use xlink:href="#ArialMT-35" x="55.615234"/>
      </g>
     </g>
    </g>
    <g id="ytick_4">
     <g id="line2d_21">
      <path d="M 36.144688 184.327506 
L 993.804688 184.327506 
" clip-path="url(#p15d1e516ac)" style="fill: none; stroke: #cccccc; stroke-opacity: 0.3; stroke-width: 0.8; stroke-linecap: round"/>
     </g>
     <g id="line2d_22"/>
     <g id="text_18">
      <!-- 20 -->
      <g style="fill: #262626" transform="translate(21.522813 187.906413) scale(0.1 -0.1)">
       <defs>
        <path id="ArialMT-32" d="M 3222 541 
L 3222 0 
L 194 0 
Q 188 203 259 391 
Q 375 700 629 1000 
Q 884 1300 1366 1694 
Q 2113 2306 2375 2664 
Q 2638 3022 2638 3341 
Q 2638 3675 2398 3904 
Q 2159 4134 1775 4134 
Q 1369 4134 1125 3890 
Q 881 3647 878 3216 
L 300 3275 
Q 359 3922 746 4261 
Q 1134 4600 1788 4600 
Q 2447 4600 2831 4234 
Q 3216 3869 3216 3328 
Q 3216 3053 3103 2787 
Q 2991 2522 2730 2228 
Q 2469 1934 1863 1422 
Q 1356 997 1212 845 
Q 1069 694 975 541 
L 3222 541 
z
" transform="scale(0.015625)"/>
       </defs>
       <use xlink:href="#ArialMT-32"/>
       <use xlink:href="#ArialMT-30" x="55.615234"/>
      </g>
     </g>
    </g>
    <g id="ytick_5">
     <g id="line2d_23">
      <path d="M 36.144688 109.820344 
L 993.804688 109.820344 
" clip-path="url(#p15d1e516ac)" style="fill: none; stroke: #cccccc; stroke-opacity: 0.3; stroke-width: 0.8; stroke-linecap: round"/>
     </g>
     <g id="line2d_24"/>
     <g id="text_19">
      <!-- 25 -->
      <g style="fill: #262626" transform="translate(21.522813 113.399251) scale(0.1 -0.1)">
       <use xlink:href="#ArialMT-32"/>
       <use xlink:href="#ArialMT-35" x="55.615234"/>
      </g>
     </g>
    </g>
    <g id="ytick_6">
     <g id="line2d_25">
      <path d="M 36.144688 35.313182 
L 993.804688 35.313182 
" clip-path="url(#p15d1e516ac)" style="fill: none; stroke: #cccccc; stroke-opacity: 0.3; stroke-width: 0.8; stroke-linecap: round"/>
     </g>
     <g id="line2d_26"/>
     <g id="text_20">
      <!-- 30 -->
      <g style="fill: #262626" transform="translate(21.522813 38.892089) scale(0.1 -0.1)">
       <defs>
        <path id="ArialMT-33" d="M 269 1209 
L 831 1284 
Q 928 806 1161 595 
Q 1394 384 1728 384 
Q 2125 384 2398 659 
Q 2672 934 2672 1341 
Q 2672 1728 2419 1979 
Q 2166 2231 1775 2231 
Q 1616 2231 1378 2169 
L 1441 2663 
Q 1497 2656 1531 2656 
Q 1891 2656 2178 2843 
Q 2466 3031 2466 3422 
Q 2466 3731 2256 3934 
Q 2047 4138 1716 4138 
Q 1388 4138 1169 3931 
Q 950 3725 888 3313 
L 325 3413 
Q 428 3978 793 4289 
Q 1159 4600 1703 4600 
Q 2078 4600 2393 4439 
Q 2709 4278 2876 4000 
Q 3044 3722 3044 3409 
Q 3044 3113 2884 2869 
Q 2725 2625 2413 2481 
Q 2819 2388 3044 2092 
Q 3269 1797 3269 1353 
Q 3269 753 2831 336 
Q 2394 -81 1725 -81 
Q 1122 -81 723 278 
Q 325 638 269 1209 
z
" transform="scale(0.015625)"/>
       </defs>
       <use xlink:href="#ArialMT-33"/>
       <use xlink:href="#ArialMT-30" x="55.615234"/>
      </g>
     </g>
    </g>
    <g id="text_21">
     <!-- Age-Standardized Mortality Rate (per 100,000) -->
     <g style="fill: #262626" transform="translate(15.207656 371.483048) rotate(-90) scale(0.11 -0.11)">
      <defs>
       <path id="ArialMT-2d" d="M 203 1375 
L 203 1941 
L 1931 1941 
L 1931 1375 
L 203 1375 
z
" transform="scale(0.015625)"/>
       <path id="ArialMT-53" d="M 288 1472 
L 859 1522 
Q 900 1178 1048 958 
Q 1197 738 1509 602 
Q 1822 466 2213 466 
Q 2559 466 2825 569 
Q 3091 672 3220 851 
Q 3350 1031 3350 1244 
Q 3350 1459 3225 1620 
Q 3100 1781 2813 1891 
Q 2628 1963 1997 2114 
Q 1366 2266 1113 2400 
Q 784 2572 623 2826 
Q 463 3081 463 3397 
Q 463 3744 659 4045 
Q 856 4347 1234 4503 
Q 1613 4659 2075 4659 
Q 2584 4659 2973 4495 
Q 3363 4331 3572 4012 
Q 3781 3694 3797 3291 
L 3216 3247 
Q 3169 3681 2898 3903 
Q 2628 4125 2100 4125 
Q 1550 4125 1298 3923 
Q 1047 3722 1047 3438 
Q 1047 3191 1225 3031 
Q 1400 2872 2139 2705 
Q 2878 2538 3153 2413 
Q 3553 2228 3743 1945 
Q 3934 1663 3934 1294 
Q 3934 928 3725 604 
Q 3516 281 3123 101 
Q 2731 -78 2241 -78 
Q 1619 -78 1198 103 
Q 778 284 539 648 
Q 300 1013 288 1472 
z
" transform="scale(0.015625)"/>
       <path id="ArialMT-52" d="M 503 0 
L 503 4581 
L 2534 4581 
Q 3147 4581 3465 4457 
Q 3784 4334 3975 4021 
Q 4166 3709 4166 3331 
Q 4166 2844 3850 2509 
Q 3534 2175 2875 2084 
Q 3116 1969 3241 1856 
Q 3506 1613 3744 1247 
L 4541 0 
L 3778 0 
L 3172 953 
Q 2906 1366 2734 1584 
Q 2563 1803 2427 1890 
Q 2291 1978 2150 2013 
Q 2047 2034 1813 2034 
L 1109 2034 
L 1109 0 
L 503 0 
z
M 1109 2559 
L 2413 2559 
Q 2828 2559 3062 2645 
Q 3297 2731 3419 2920 
Q 3541 3109 3541 3331 
Q 3541 3656 3305 3865 
Q 3069 4075 2559 4075 
L 1109 4075 
L 1109 2559 
z
" transform="scale(0.015625)"/>
       <path id="ArialMT-28" d="M 1497 -1347 
Q 1031 -759 709 28 
Q 388 816 388 1659 
Q 388 2403 628 3084 
Q 909 3875 1497 4659 
L 1900 4659 
Q 1522 4009 1400 3731 
Q 1209 3300 1100 2831 
Q 966 2247 966 1656 
Q 966 153 1900 -1347 
L 1497 -1347 
z
" transform="scale(0.015625)"/>
       <path id="ArialMT-2c" d="M 569 0 
L 569 641 
L 1209 641 
L 1209 0 
Q 1209 -353 1084 -570 
Q 959 -788 688 -906 
L 531 -666 
Q 709 -588 793 -436 
Q 878 -284 888 0 
L 569 0 
z
" transform="scale(0.015625)"/>
       <path id="ArialMT-29" d="M 791 -1347 
L 388 -1347 
Q 1322 153 1322 1656 
Q 1322 2244 1188 2822 
Q 1081 3291 891 3722 
Q 769 4003 388 4659 
L 791 4659 
Q 1378 3875 1659 3084 
Q 1900 2403 1900 1659 
Q 1900 816 1576 28 
Q 1253 -759 791 -1347 
z
" transform="scale(0.015625)"/>
      </defs>
      <use xlink:href="#ArialMT-41"/>
      <use xlink:href="#ArialMT-67" x="66.699219"/>
      <use xlink:href="#ArialMT-65" x="122.314453"/>
      <use xlink:href="#ArialMT-2d" x="177.929688"/>
      <use xlink:href="#ArialMT-53" x="211.230469"/>
      <use xlink:href="#ArialMT-74" x="277.929688"/>
      <use xlink:href="#ArialMT-61" x="305.712891"/>
      <use xlink:href="#ArialMT-6e" x="361.328125"/>
      <use xlink:href="#ArialMT-64" x="416.943359"/>
      <use xlink:href="#ArialMT-61" x="472.558594"/>
      <use xlink:href="#ArialMT-72" x="528.173828"/>
      <use xlink:href="#ArialMT-64" x="561.474609"/>
      <use xlink:href="#ArialMT-69" x="617.089844"/>
      <use xlink:href="#ArialMT-7a" x="639.306641"/>
      <use xlink:href="#ArialMT-65" x="689.306641"/>
      <use xlink:href="#ArialMT-64" x="744.921875"/>
      <use xlink:href="#ArialMT-20" x="800.537109"/>
      <use xlink:href="#ArialMT-4d" x="828.320312"/>
      <use xlink:href="#ArialMT-6f" x="911.621094"/>
      <use xlink:href="#ArialMT-72" x="967.236328"/>
      <use xlink:href="#ArialMT-74" x="1000.537109"/>
      <use xlink:href="#ArialMT-61" x="1028.320312"/>
      <use xlink:href="#ArialMT-6c" x="1083.935547"/>
      <use xlink:href="#ArialMT-69" x="1106.152344"/>
      <use xlink:href="#ArialMT-74" x="1128.369141"/>
      <use xlink:href="#ArialMT-79" x="1156.152344"/>
      <use xlink:href="#ArialMT-20" x="1206.152344"/>
      <use xlink:href="#ArialMT-52" x="1233.935547"/>
      <use xlink:href="#ArialMT-61" x="1306.152344"/>
      <use xlink:href="#ArialMT-74" x="1361.767578"/>
      <use xlink:href="#ArialMT-65" x="1389.550781"/>
      <use xlink:href="#ArialMT-20" x="1445.166016"/>
      <use xlink:href="#ArialMT-28" x="1472.949219"/>
      <use xlink:href="#ArialMT-70" x="1506.25"/>
      <use xlink:href="#ArialMT-65" x="1561.865234"/>
      <use xlink:href="#ArialMT-72" x="1617.480469"/>
      <use xlink:href="#ArialMT-20" x="1650.78125"/>
      <use xlink:href="#ArialMT-31" x="1678.564453"/>
      <use xlink:href="#ArialMT-30" x="1734.179688"/>
      <use xlink:href="#ArialMT-30" x="1789.794922"/>
      <use xlink:href="#ArialMT-2c" x="1845.410156"/>
      <use xlink:href="#ArialMT-30" x="1873.193359"/>
      <use xlink:href="#ArialMT-30" x="1928.808594"/>
      <use xlink:href="#ArialMT-30" x="1984.423828"/>
      <use xlink:href="#ArialMT-29" x="2040.039062"/>
     </g>
    </g>
   </g>
   <g id="patch_3">
    <path d="M 42.985116 428.900292 
L 97.708545 428.900292 
L 97.708545 343.238403 
L 42.985116 343.238403 
L 42.985116 428.900292 
z
" clip-path="url(#p15d1e516ac)" style="fill: #fbebe4; stroke: #2b2b2b; stroke-width: 1.5; stroke-linejoin: miter"/>
   </g>
   <g id="patch_4">
    <path d="M 111.389402 327.578008 
L 166.11283 327.578008 
L 166.11283 292.244395 
L 111.389402 292.244395 
L 111.389402 327.578008 
z
" clip-path="url(#p15d1e516ac)" style="fill: #f8e0d5; stroke: #2b2b2b; stroke-width: 1.5; stroke-linejoin: miter"/>
   </g>
   <g id="patch_5">
    <path d="M 179.793688 334.008111 
L 234.517116 334.008111 
L 234.517116 284.079087 
L 179.793688 284.079087 
L 179.793688 334.008111 
z
" clip-path="url(#p15d1e516ac)" style="fill: #f4cebe; stroke: #2b2b2b; stroke-width: 1.5; stroke-linejoin: miter"/>
   </g>
   <g id="patch_6">
    <path d="M 248.197973 321.716583 
L 302.921402 321.716583 
L 302.921402 290.527569 
L 248.197973 290.527569 
L 248.197973 321.716583 
z
" clip-path="url(#p15d1e516ac)" style="fill: #f0bba7; stroke: #2b2b2b; stroke-width: 1.5; stroke-linejoin: miter"/>
   </g>
   <g id="patch_7">
    <path d="M 316.602259 324.030367 
L 371.325688 324.030367 
L 371.325688 276.761904 
L 316.602259 276.761904 
L 316.602259 324.030367 
z
" clip-path="url(#p15d1e516ac)" style="fill: #eda791; stroke: #2b2b2b; stroke-width: 1.5; stroke-linejoin: miter"/>
   </g>
   <g id="patch_8">
    <path d="M 385.006545 311.504386 
L 439.729973 311.504386 
L 439.729973 273.396716 
L 385.006545 273.396716 
L 385.006545 311.504386 
z
" clip-path="url(#p15d1e516ac)" style="fill: #ea947c; stroke: #2b2b2b; stroke-width: 1.5; stroke-linejoin: miter"/>
   </g>
   <g id="patch_9">
    <path d="M 453.41083 315.012148 
L 508.134259 315.012148 
L 508.134259 259.718124 
L 453.41083 259.718124 
L 453.41083 315.012148 
z
" clip-path="url(#p15d1e516ac)" style="fill: #e68169; stroke: #2b2b2b; stroke-width: 1.5; stroke-linejoin: miter"/>
   </g>
   <g id="patch_10">
    <path d="M 521.815116 301.4698 
L 576.538545 301.4698 
L 576.538545 233.769305 
L 521.815116 233.769305 
L 521.815116 301.4698 
z
" clip-path="url(#p15d1e516ac)" style="fill: #e16d59; stroke: #2b2b2b; stroke-width: 1.5; stroke-linejoin: miter"/>
   </g>
   <g id="patch_11">
    <path d="M 590.219402 286.030526 
L 644.94283 286.030526 
L 644.94283 212.794138 
L 590.219402 212.794138 
L 590.219402 286.030526 
z
" clip-path="url(#p15d1e516ac)" style="fill: #d9584a; stroke: #2b2b2b; stroke-width: 1.5; stroke-linejoin: miter"/>
   </g>
   <g id="patch_12">
    <path d="M 658.623687 305.812856 
L 713.347116 305.812856 
L 713.347116 208.910562 
L 658.623687 208.910562 
L 658.623687 305.812856 
z
" clip-path="url(#p15d1e516ac)" style="fill: #cb453e; stroke: #2b2b2b; stroke-width: 1.5; stroke-linejoin: miter"/>
   </g>
   <g id="patch_13">
    <path d="M 727.027973 291.153096 
L 781.751402 291.153096 
L 781.751402 212.566703 
L 727.027973 212.566703 
L 727.027973 291.153096 
z
" clip-path="url(#p15d1e516ac)" style="fill: #b93335; stroke: #2b2b2b; stroke-width: 1.5; stroke-linejoin: miter"/>
   </g>
   <g id="patch_14">
    <path d="M 795.432259 270.633201 
L 850.155688 270.633201 
L 850.155688 211.660982 
L 795.432259 211.660982 
L 795.432259 270.633201 
z
" clip-path="url(#p15d1e516ac)" style="fill: #a7292d; stroke: #2b2b2b; stroke-width: 1.5; stroke-linejoin: miter"/>
   </g>
   <g id="patch_15">
    <path d="M 863.836545 266.9229 
L 918.559973 266.9229 
L 918.559973 197.083667 
L 863.836545 197.083667 
L 863.836545 266.9229 
z
" clip-path="url(#p15d1e516ac)" style="fill: #952327; stroke: #2b2b2b; stroke-width: 1.5; stroke-linejoin: miter"/>
   </g>
   <g id="patch_16">
    <path d="M 932.24083 248.705383 
L 986.964259 248.705383 
L 986.964259 213.963555 
L 932.24083 213.963555 
L 932.24083 248.705383 
z
" clip-path="url(#p15d1e516ac)" style="fill: #78181f; stroke: #2b2b2b; stroke-width: 1.5; stroke-linejoin: miter"/>
   </g>
   <g id="line2d_27">
    <path d="M 70.34683 428.900292 
L 70.34683 459.742949 
" clip-path="url(#p15d1e516ac)" style="fill: none; stroke: #2b2b2b; stroke-width: 1.5; stroke-linecap: round"/>
   </g>
   <g id="line2d_28">
    <path d="M 70.34683 343.238403 
L 70.34683 271.173333 
" clip-path="url(#p15d1e516ac)" style="fill: none; stroke: #2b2b2b; stroke-width: 1.5; stroke-linecap: round"/>
   </g>
   <g id="line2d_29">
    <path d="M 56.665973 459.742949 
L 84.027688 459.742949 
" clip-path="url(#p15d1e516ac)" style="fill: none; stroke: #2b2b2b; stroke-width: 1.5; stroke-linecap: round"/>
   </g>
   <g id="line2d_30">
    <path d="M 56.665973 271.173333 
L 84.027688 271.173333 
" clip-path="url(#p15d1e516ac)" style="fill: none; stroke: #2b2b2b; stroke-width: 1.5; stroke-linecap: round"/>
   </g>
   <g id="line2d_31"/>
   <g id="line2d_32">
    <path d="M 138.751116 327.578008 
L 138.751116 339.729059 
" clip-path="url(#p15d1e516ac)" style="fill: none; stroke: #2b2b2b; stroke-width: 1.5; stroke-linecap: round"/>
   </g>
   <g id="line2d_33">
    <path d="M 138.751116 292.244395 
L 138.751116 276.70461 
" clip-path="url(#p15d1e516ac)" style="fill: none; stroke: #2b2b2b; stroke-width: 1.5; stroke-linecap: round"/>
   </g>
   <g id="line2d_34">
    <path d="M 125.070259 339.729059 
L 152.431973 339.729059 
" clip-path="url(#p15d1e516ac)" style="fill: none; stroke: #2b2b2b; stroke-width: 1.5; stroke-linecap: round"/>
   </g>
   <g id="line2d_35">
    <path d="M 125.070259 276.70461 
L 152.431973 276.70461 
" clip-path="url(#p15d1e516ac)" style="fill: none; stroke: #2b2b2b; stroke-width: 1.5; stroke-linecap: round"/>
   </g>
   <g id="line2d_36"/>
   <g id="line2d_37">
    <path d="M 207.155402 334.008111 
L 207.155402 403.07379 
" clip-path="url(#p15d1e516ac)" style="fill: none; stroke: #2b2b2b; stroke-width: 1.5; stroke-linecap: round"/>
   </g>
   <g id="line2d_38">
    <path d="M 207.155402 284.079087 
L 207.155402 249.536503 
" clip-path="url(#p15d1e516ac)" style="fill: none; stroke: #2b2b2b; stroke-width: 1.5; stroke-linecap: round"/>
   </g>
   <g id="line2d_39">
    <path d="M 193.474545 403.07379 
L 220.836259 403.07379 
" clip-path="url(#p15d1e516ac)" style="fill: none; stroke: #2b2b2b; stroke-width: 1.5; stroke-linecap: round"/>
   </g>
   <g id="line2d_40">
    <path d="M 193.474545 249.536503 
L 220.836259 249.536503 
" clip-path="url(#p15d1e516ac)" style="fill: none; stroke: #2b2b2b; stroke-width: 1.5; stroke-linecap: round"/>
   </g>
   <g id="line2d_41"/>
   <g id="line2d_42">
    <path d="M 275.559687 321.716583 
L 275.559687 330.15758 
" clip-path="url(#p15d1e516ac)" style="fill: none; stroke: #2b2b2b; stroke-width: 1.5; stroke-linecap: round"/>
   </g>
   <g id="line2d_43">
    <path d="M 275.559687 290.527569 
L 275.559687 281.897664 
" clip-path="url(#p15d1e516ac)" style="fill: none; stroke: #2b2b2b; stroke-width: 1.5; stroke-linecap: round"/>
   </g>
   <g id="line2d_44">
    <path d="M 261.87883 330.15758 
L 289.240545 330.15758 
" clip-path="url(#p15d1e516ac)" style="fill: none; stroke: #2b2b2b; stroke-width: 1.5; stroke-linecap: round"/>
   </g>
   <g id="line2d_45">
    <path d="M 261.87883 281.897664 
L 289.240545 281.897664 
" clip-path="url(#p15d1e516ac)" style="fill: none; stroke: #2b2b2b; stroke-width: 1.5; stroke-linecap: round"/>
   </g>
   <g id="line2d_46">
    <defs>
     <path id="m588f725083" d="M -0 3.535534 
L 2.12132 0 
L -0 -3.535534 
L -2.12132 -0 
z
" style="stroke: #2b2b2b; stroke-linejoin: miter"/>
    </defs>
    <g clip-path="url(#p15d1e516ac)">
     <use xlink:href="#m588f725083" x="275.559687" y="380.829106" style="fill: #2b2b2b; stroke: #2b2b2b; stroke-linejoin: miter"/>
     <use xlink:href="#m588f725083" x="275.559687" y="215.948676" style="fill: #2b2b2b; stroke: #2b2b2b; stroke-linejoin: miter"/>
    </g>
   </g>
   <g id="line2d_47">
    <path d="M 343.963973 324.030367 
L 343.963973 353.850626 
" clip-path="url(#p15d1e516ac)" style="fill: none; stroke: #2b2b2b; stroke-width: 1.5; stroke-linecap: round"/>
   </g>
   <g id="line2d_48">
    <path d="M 343.963973 276.761904 
L 343.963973 250.736736 
" clip-path="url(#p15d1e516ac)" style="fill: none; stroke: #2b2b2b; stroke-width: 1.5; stroke-linecap: round"/>
   </g>
   <g id="line2d_49">
    <path d="M 330.283116 353.850626 
L 357.64483 353.850626 
" clip-path="url(#p15d1e516ac)" style="fill: none; stroke: #2b2b2b; stroke-width: 1.5; stroke-linecap: round"/>
   </g>
   <g id="line2d_50">
    <path d="M 330.283116 250.736736 
L 357.64483 250.736736 
" clip-path="url(#p15d1e516ac)" style="fill: none; stroke: #2b2b2b; stroke-width: 1.5; stroke-linecap: round"/>
   </g>
   <g id="line2d_51"/>
   <g id="line2d_52">
    <path d="M 412.368259 311.504386 
L 412.368259 328.224176 
" clip-path="url(#p15d1e516ac)" style="fill: none; stroke: #2b2b2b; stroke-width: 1.5; stroke-linecap: round"/>
   </g>
   <g id="line2d_53">
    <path d="M 412.368259 273.396716 
L 412.368259 225.139313 
" clip-path="url(#p15d1e516ac)" style="fill: none; stroke: #2b2b2b; stroke-width: 1.5; stroke-linecap: round"/>
   </g>
   <g id="line2d_54">
    <path d="M 398.687402 328.224176 
L 426.049116 328.224176 
" clip-path="url(#p15d1e516ac)" style="fill: none; stroke: #2b2b2b; stroke-width: 1.5; stroke-linecap: round"/>
   </g>
   <g id="line2d_55">
    <path d="M 398.687402 225.139313 
L 426.049116 225.139313 
" clip-path="url(#p15d1e516ac)" style="fill: none; stroke: #2b2b2b; stroke-width: 1.5; stroke-linecap: round"/>
   </g>
   <g id="line2d_56"/>
   <g id="line2d_57">
    <path d="M 480.772545 315.012148 
L 480.772545 348.663605 
" clip-path="url(#p15d1e516ac)" style="fill: none; stroke: #2b2b2b; stroke-width: 1.5; stroke-linecap: round"/>
   </g>
   <g id="line2d_58">
    <path d="M 480.772545 259.718124 
L 480.772545 217.578582 
" clip-path="url(#p15d1e516ac)" style="fill: none; stroke: #2b2b2b; stroke-width: 1.5; stroke-linecap: round"/>
   </g>
   <g id="line2d_59">
    <path d="M 467.091688 348.663605 
L 494.453402 348.663605 
" clip-path="url(#p15d1e516ac)" style="fill: none; stroke: #2b2b2b; stroke-width: 1.5; stroke-linecap: round"/>
   </g>
   <g id="line2d_60">
    <path d="M 467.091688 217.578582 
L 494.453402 217.578582 
" clip-path="url(#p15d1e516ac)" style="fill: none; stroke: #2b2b2b; stroke-width: 1.5; stroke-linecap: round"/>
   </g>
   <g id="line2d_61"/>
   <g id="line2d_62">
    <path d="M 549.17683 301.4698 
L 549.17683 393.910657 
" clip-path="url(#p15d1e516ac)" style="fill: none; stroke: #2b2b2b; stroke-width: 1.5; stroke-linecap: round"/>
   </g>
   <g id="line2d_63">
    <path d="M 549.17683 233.769305 
L 549.17683 194.803944 
" clip-path="url(#p15d1e516ac)" style="fill: none; stroke: #2b2b2b; stroke-width: 1.5; stroke-linecap: round"/>
   </g>
   <g id="line2d_64">
    <path d="M 535.495973 393.910657 
L 562.857688 393.910657 
" clip-path="url(#p15d1e516ac)" style="fill: none; stroke: #2b2b2b; stroke-width: 1.5; stroke-linecap: round"/>
   </g>
   <g id="line2d_65">
    <path d="M 535.495973 194.803944 
L 562.857688 194.803944 
" clip-path="url(#p15d1e516ac)" style="fill: none; stroke: #2b2b2b; stroke-width: 1.5; stroke-linecap: round"/>
   </g>
   <g id="line2d_66"/>
   <g id="line2d_67">
    <path d="M 617.581116 286.030526 
L 617.581116 357.856301 
" clip-path="url(#p15d1e516ac)" style="fill: none; stroke: #2b2b2b; stroke-width: 1.5; stroke-linecap: round"/>
   </g>
   <g id="line2d_68">
    <path d="M 617.581116 212.794138 
L 617.581116 171.352579 
" clip-path="url(#p15d1e516ac)" style="fill: none; stroke: #2b2b2b; stroke-width: 1.5; stroke-linecap: round"/>
   </g>
   <g id="line2d_69">
    <path d="M 603.900259 357.856301 
L 631.261973 357.856301 
" clip-path="url(#p15d1e516ac)" style="fill: none; stroke: #2b2b2b; stroke-width: 1.5; stroke-linecap: round"/>
   </g>
   <g id="line2d_70">
    <path d="M 603.900259 171.352579 
L 631.261973 171.352579 
" clip-path="url(#p15d1e516ac)" style="fill: none; stroke: #2b2b2b; stroke-width: 1.5; stroke-linecap: round"/>
   </g>
   <g id="line2d_71"/>
   <g id="line2d_72">
    <path d="M 685.985402 305.812856 
L 685.985402 363.63348 
" clip-path="url(#p15d1e516ac)" style="fill: none; stroke: #2b2b2b; stroke-width: 1.5; stroke-linecap: round"/>
   </g>
   <g id="line2d_73">
    <path d="M 685.985402 208.910562 
L 685.985402 130.829815 
" clip-path="url(#p15d1e516ac)" style="fill: none; stroke: #2b2b2b; stroke-width: 1.5; stroke-linecap: round"/>
   </g>
   <g id="line2d_74">
    <path d="M 672.304545 363.63348 
L 699.666259 363.63348 
" clip-path="url(#p15d1e516ac)" style="fill: none; stroke: #2b2b2b; stroke-width: 1.5; stroke-linecap: round"/>
   </g>
   <g id="line2d_75">
    <path d="M 672.304545 130.829815 
L 699.666259 130.829815 
" clip-path="url(#p15d1e516ac)" style="fill: none; stroke: #2b2b2b; stroke-width: 1.5; stroke-linecap: round"/>
   </g>
   <g id="line2d_76">
    <g clip-path="url(#p15d1e516ac)">
     <use xlink:href="#m588f725083" x="685.985402" y="55.172521" style="fill: #2b2b2b; stroke: #2b2b2b; stroke-linejoin: miter"/>
    </g>
   </g>
   <g id="line2d_77">
    <path d="M 754.389688 291.153096 
L 754.389688 332.572947 
" clip-path="url(#p15d1e516ac)" style="fill: none; stroke: #2b2b2b; stroke-width: 1.5; stroke-linecap: round"/>
   </g>
   <g id="line2d_78">
    <path d="M 754.389688 212.566703 
L 754.389688 111.835593 
" clip-path="url(#p15d1e516ac)" style="fill: none; stroke: #2b2b2b; stroke-width: 1.5; stroke-linecap: round"/>
   </g>
   <g id="line2d_79">
    <path d="M 740.70883 332.572947 
L 768.070545 332.572947 
" clip-path="url(#p15d1e516ac)" style="fill: none; stroke: #2b2b2b; stroke-width: 1.5; stroke-linecap: round"/>
   </g>
   <g id="line2d_80">
    <path d="M 740.70883 111.835593 
L 768.070545 111.835593 
" clip-path="url(#p15d1e516ac)" style="fill: none; stroke: #2b2b2b; stroke-width: 1.5; stroke-linecap: round"/>
   </g>
   <g id="line2d_81"/>
   <g id="line2d_82">
    <path d="M 822.793973 270.633201 
L 822.793973 320.867285 
" clip-path="url(#p15d1e516ac)" style="fill: none; stroke: #2b2b2b; stroke-width: 1.5; stroke-linecap: round"/>
   </g>
   <g id="line2d_83">
    <path d="M 822.793973 211.660982 
L 822.793973 136.041597 
" clip-path="url(#p15d1e516ac)" style="fill: none; stroke: #2b2b2b; stroke-width: 1.5; stroke-linecap: round"/>
   </g>
   <g id="line2d_84">
    <path d="M 809.113116 320.867285 
L 836.47483 320.867285 
" clip-path="url(#p15d1e516ac)" style="fill: none; stroke: #2b2b2b; stroke-width: 1.5; stroke-linecap: round"/>
   </g>
   <g id="line2d_85">
    <path d="M 809.113116 136.041597 
L 836.47483 136.041597 
" clip-path="url(#p15d1e516ac)" style="fill: none; stroke: #2b2b2b; stroke-width: 1.5; stroke-linecap: round"/>
   </g>
   <g id="line2d_86"/>
   <g id="line2d_87">
    <path d="M 891.198259 266.9229 
L 891.198259 330.415019 
" clip-path="url(#p15d1e516ac)" style="fill: none; stroke: #2b2b2b; stroke-width: 1.5; stroke-linecap: round"/>
   </g>
   <g id="line2d_88">
    <path d="M 891.198259 197.083667 
L 891.198259 152.199215 
" clip-path="url(#p15d1e516ac)" style="fill: none; stroke: #2b2b2b; stroke-width: 1.5; stroke-linecap: round"/>
   </g>
   <g id="line2d_89">
    <path d="M 877.517402 330.415019 
L 904.879116 330.415019 
" clip-path="url(#p15d1e516ac)" style="fill: none; stroke: #2b2b2b; stroke-width: 1.5; stroke-linecap: round"/>
   </g>
   <g id="line2d_90">
    <path d="M 877.517402 152.199215 
L 904.879116 152.199215 
" clip-path="url(#p15d1e516ac)" style="fill: none; stroke: #2b2b2b; stroke-width: 1.5; stroke-linecap: round"/>
   </g>
   <g id="line2d_91"/>
   <g id="line2d_92">
    <path d="M 959.602545 248.705383 
L 959.602545 268.959417 
" clip-path="url(#p15d1e516ac)" style="fill: none; stroke: #2b2b2b; stroke-width: 1.5; stroke-linecap: round"/>
   </g>
   <g id="line2d_93">
    <path d="M 959.602545 213.963555 
L 959.602545 212.767398 
" clip-path="url(#p15d1e516ac)" style="fill: none; stroke: #2b2b2b; stroke-width: 1.5; stroke-linecap: round"/>
   </g>
   <g id="line2d_94">
    <path d="M 945.921688 268.959417 
L 973.283402 268.959417 
" clip-path="url(#p15d1e516ac)" style="fill: none; stroke: #2b2b2b; stroke-width: 1.5; stroke-linecap: round"/>
   </g>
   <g id="line2d_95">
    <path d="M 945.921688 212.767398 
L 973.283402 212.767398 
" clip-path="url(#p15d1e516ac)" style="fill: none; stroke: #2b2b2b; stroke-width: 1.5; stroke-linecap: round"/>
   </g>
   <g id="line2d_96">
    <g clip-path="url(#p15d1e516ac)">
     <use xlink:href="#m588f725083" x="959.602545" y="78.010357" style="fill: #2b2b2b; stroke: #2b2b2b; stroke-linejoin: miter"/>
    </g>
   </g>
   <g id="line2d_97">
    <path d="M 42.985116 388.738516 
L 97.708545 388.738516 
" clip-path="url(#p15d1e516ac)" style="fill: none; stroke: #2b2b2b; stroke-width: 1.5; stroke-linecap: round"/>
   </g>
   <g id="line2d_98">
    <path d="M 111.389402 318.725877 
L 166.11283 318.725877 
" clip-path="url(#p15d1e516ac)" style="fill: none; stroke: #2b2b2b; stroke-width: 1.5; stroke-linecap: round"/>
   </g>
   <g id="line2d_99">
    <path d="M 179.793688 312.89011 
L 234.517116 312.89011 
" clip-path="url(#p15d1e516ac)" style="fill: none; stroke: #2b2b2b; stroke-width: 1.5; stroke-linecap: round"/>
   </g>
   <g id="line2d_100">
    <path d="M 248.197973 313.655463 
L 302.921402 313.655463 
" clip-path="url(#p15d1e516ac)" style="fill: none; stroke: #2b2b2b; stroke-width: 1.5; stroke-linecap: round"/>
   </g>
   <g id="line2d_101">
    <path d="M 316.602259 281.693506 
L 371.325688 281.693506 
" clip-path="url(#p15d1e516ac)" style="fill: none; stroke: #2b2b2b; stroke-width: 1.5; stroke-linecap: round"/>
   </g>
   <g id="line2d_102">
    <path d="M 385.006545 283.419597 
L 439.729973 283.419597 
" clip-path="url(#p15d1e516ac)" style="fill: none; stroke: #2b2b2b; stroke-width: 1.5; stroke-linecap: round"/>
   </g>
   <g id="line2d_103">
    <path d="M 453.41083 283.674754 
L 508.134259 283.674754 
" clip-path="url(#p15d1e516ac)" style="fill: none; stroke: #2b2b2b; stroke-width: 1.5; stroke-linecap: round"/>
   </g>
   <g id="line2d_104">
    <path d="M 521.815116 270.406459 
L 576.538545 270.406459 
" clip-path="url(#p15d1e516ac)" style="fill: none; stroke: #2b2b2b; stroke-width: 1.5; stroke-linecap: round"/>
   </g>
   <g id="line2d_105">
    <path d="M 590.219402 262.401771 
L 644.94283 262.401771 
" clip-path="url(#p15d1e516ac)" style="fill: none; stroke: #2b2b2b; stroke-width: 1.5; stroke-linecap: round"/>
   </g>
   <g id="line2d_106">
    <path d="M 658.623687 265.226756 
L 713.347116 265.226756 
" clip-path="url(#p15d1e516ac)" style="fill: none; stroke: #2b2b2b; stroke-width: 1.5; stroke-linecap: round"/>
   </g>
   <g id="line2d_107">
    <path d="M 727.027973 243.746259 
L 781.751402 243.746259 
" clip-path="url(#p15d1e516ac)" style="fill: none; stroke: #2b2b2b; stroke-width: 1.5; stroke-linecap: round"/>
   </g>
   <g id="line2d_108">
    <path d="M 795.432259 241.810974 
L 850.155688 241.810974 
" clip-path="url(#p15d1e516ac)" style="fill: none; stroke: #2b2b2b; stroke-width: 1.5; stroke-linecap: round"/>
   </g>
   <g id="line2d_109">
    <path d="M 863.836545 218.541507 
L 918.559973 218.541507 
" clip-path="url(#p15d1e516ac)" style="fill: none; stroke: #2b2b2b; stroke-width: 1.5; stroke-linecap: round"/>
   </g>
   <g id="line2d_110">
    <path d="M 932.24083 218.000691 
L 986.964259 218.000691 
" clip-path="url(#p15d1e516ac)" style="fill: none; stroke: #2b2b2b; stroke-width: 1.5; stroke-linecap: round"/>
   </g>
   <g id="patch_17">
    <path d="M 36.144688 479.971471 
L 36.144688 34.944 
" style="fill: none; stroke: #cccccc; stroke-linejoin: miter; stroke-linecap: square"/>
   </g>
   <g id="patch_18">
    <path d="M 993.804688 479.971471 
L 993.804688 34.944 
" style="fill: none; stroke: #cccccc; stroke-linejoin: miter; stroke-linecap: square"/>
   </g>
   <g id="patch_19">
    <path d="M 36.144688 479.971471 
L 993.804688 479.971471 
" style="fill: none; stroke: #cccccc; stroke-linejoin: miter; stroke-linecap: square"/>
   </g>
   <g id="patch_20">
    <path d="M 36.144688 34.944 
L 993.804688 34.944 
" style="fill: none; stroke: #cccccc; stroke-linejoin: miter; stroke-linecap: square"/>
   </g>
   <g id="text_22">
    <!-- Distribution of Lung Cancer Mortality Rates by Alcaldía -->
    <g style="fill: #262626" transform="translate(357.857188 15.935625) scale(0.12 -0.12)">
     <defs>
      <path id="Arial-BoldMT-44" d="M 463 4581 
L 2153 4581 
Q 2725 4581 3025 4494 
Q 3428 4375 3715 4072 
Q 4003 3769 4153 3330 
Q 4303 2891 4303 2247 
Q 4303 1681 4163 1272 
Q 3991 772 3672 463 
Q 3431 228 3022 97 
Q 2716 0 2203 0 
L 463 0 
L 463 4581 
z
M 1388 3806 
L 1388 772 
L 2078 772 
Q 2466 772 2638 816 
Q 2863 872 3011 1006 
Q 3159 1141 3253 1448 
Q 3347 1756 3347 2288 
Q 3347 2819 3253 3103 
Q 3159 3388 2990 3547 
Q 2822 3706 2563 3763 
Q 2369 3806 1803 3806 
L 1388 3806 
z
" transform="scale(0.015625)"/>
      <path id="Arial-BoldMT-69" d="M 459 3769 
L 459 4581 
L 1338 4581 
L 1338 3769 
L 459 3769 
z
M 459 0 
L 459 3319 
L 1338 3319 
L 1338 0 
L 459 0 
z
" transform="scale(0.015625)"/>
      <path id="Arial-BoldMT-73" d="M 150 947 
L 1031 1081 
Q 1088 825 1259 692 
Q 1431 559 1741 559 
Q 2081 559 2253 684 
Q 2369 772 2369 919 
Q 2369 1019 2306 1084 
Q 2241 1147 2013 1200 
Q 950 1434 666 1628 
Q 272 1897 272 2375 
Q 272 2806 612 3100 
Q 953 3394 1669 3394 
Q 2350 3394 2681 3172 
Q 3013 2950 3138 2516 
L 2309 2363 
Q 2256 2556 2107 2659 
Q 1959 2763 1684 2763 
Q 1338 2763 1188 2666 
Q 1088 2597 1088 2488 
Q 1088 2394 1175 2328 
Q 1294 2241 1995 2081 
Q 2697 1922 2975 1691 
Q 3250 1456 3250 1038 
Q 3250 581 2869 253 
Q 2488 -75 1741 -75 
Q 1063 -75 667 200 
Q 272 475 150 947 
z
" transform="scale(0.015625)"/>
      <path id="Arial-BoldMT-74" d="M 1981 3319 
L 1981 2619 
L 1381 2619 
L 1381 1281 
Q 1381 875 1398 808 
Q 1416 741 1477 697 
Q 1538 653 1625 653 
Q 1747 653 1978 738 
L 2053 56 
Q 1747 -75 1359 -75 
Q 1122 -75 931 4 
Q 741 84 652 211 
Q 563 338 528 553 
Q 500 706 500 1172 
L 500 2619 
L 97 2619 
L 97 3319 
L 500 3319 
L 500 3978 
L 1381 4491 
L 1381 3319 
L 1981 3319 
z
" transform="scale(0.015625)"/>
      <path id="Arial-BoldMT-72" d="M 1300 0 
L 422 0 
L 422 3319 
L 1238 3319 
L 1238 2847 
Q 1447 3181 1614 3287 
Q 1781 3394 1994 3394 
Q 2294 3394 2572 3228 
L 2300 2463 
Q 2078 2606 1888 2606 
Q 1703 2606 1575 2504 
Q 1447 2403 1373 2137 
Q 1300 1872 1300 1025 
L 1300 0 
z
" transform="scale(0.015625)"/>
      <path id="Arial-BoldMT-62" d="M 422 0 
L 422 4581 
L 1300 4581 
L 1300 2931 
Q 1706 3394 2263 3394 
Q 2869 3394 3266 2955 
Q 3663 2516 3663 1694 
Q 3663 844 3258 384 
Q 2853 -75 2275 -75 
Q 1991 -75 1714 67 
Q 1438 209 1238 488 
L 1238 0 
L 422 0 
z
M 1294 1731 
Q 1294 1216 1456 969 
Q 1684 619 2063 619 
Q 2353 619 2558 867 
Q 2763 1116 2763 1650 
Q 2763 2219 2556 2470 
Q 2350 2722 2028 2722 
Q 1713 2722 1503 2476 
Q 1294 2231 1294 1731 
z
" transform="scale(0.015625)"/>
      <path id="Arial-BoldMT-75" d="M 2644 0 
L 2644 497 
Q 2463 231 2167 78 
Q 1872 -75 1544 -75 
Q 1209 -75 943 72 
Q 678 219 559 484 
Q 441 750 441 1219 
L 441 3319 
L 1319 3319 
L 1319 1794 
Q 1319 1094 1367 936 
Q 1416 778 1544 686 
Q 1672 594 1869 594 
Q 2094 594 2272 717 
Q 2450 841 2515 1023 
Q 2581 1206 2581 1919 
L 2581 3319 
L 3459 3319 
L 3459 0 
L 2644 0 
z
" transform="scale(0.015625)"/>
      <path id="Arial-BoldMT-6f" d="M 256 1706 
Q 256 2144 472 2553 
Q 688 2963 1083 3178 
Q 1478 3394 1966 3394 
Q 2719 3394 3200 2905 
Q 3681 2416 3681 1669 
Q 3681 916 3195 420 
Q 2709 -75 1972 -75 
Q 1516 -75 1102 131 
Q 688 338 472 736 
Q 256 1134 256 1706 
z
M 1156 1659 
Q 1156 1166 1390 903 
Q 1625 641 1969 641 
Q 2313 641 2545 903 
Q 2778 1166 2778 1666 
Q 2778 2153 2545 2415 
Q 2313 2678 1969 2678 
Q 1625 2678 1390 2415 
Q 1156 2153 1156 1659 
z
" transform="scale(0.015625)"/>
      <path id="Arial-BoldMT-6e" d="M 3478 0 
L 2600 0 
L 2600 1694 
Q 2600 2231 2544 2389 
Q 2488 2547 2361 2634 
Q 2234 2722 2056 2722 
Q 1828 2722 1647 2597 
Q 1466 2472 1398 2265 
Q 1331 2059 1331 1503 
L 1331 0 
L 453 0 
L 453 3319 
L 1269 3319 
L 1269 2831 
Q 1703 3394 2363 3394 
Q 2653 3394 2893 3289 
Q 3134 3184 3257 3021 
Q 3381 2859 3429 2653 
Q 3478 2447 3478 2063 
L 3478 0 
z
" transform="scale(0.015625)"/>
      <path id="Arial-BoldMT-20" transform="scale(0.015625)"/>
      <path id="Arial-BoldMT-66" d="M 75 3319 
L 563 3319 
L 563 3569 
Q 563 3988 652 4194 
Q 741 4400 980 4529 
Q 1219 4659 1584 4659 
Q 1959 4659 2319 4547 
L 2200 3934 
Q 1991 3984 1797 3984 
Q 1606 3984 1523 3895 
Q 1441 3806 1441 3553 
L 1441 3319 
L 2097 3319 
L 2097 2628 
L 1441 2628 
L 1441 0 
L 563 0 
L 563 2628 
L 75 2628 
L 75 3319 
z
" transform="scale(0.015625)"/>
      <path id="Arial-BoldMT-4c" d="M 491 0 
L 491 4544 
L 1416 4544 
L 1416 772 
L 3716 772 
L 3716 0 
L 491 0 
z
" transform="scale(0.015625)"/>
      <path id="Arial-BoldMT-67" d="M 378 -219 
L 1381 -341 
Q 1406 -516 1497 -581 
Q 1622 -675 1891 -675 
Q 2234 -675 2406 -572 
Q 2522 -503 2581 -350 
Q 2622 -241 2622 53 
L 2622 538 
Q 2228 0 1628 0 
Q 959 0 569 566 
Q 263 1013 263 1678 
Q 263 2513 664 2953 
Q 1066 3394 1663 3394 
Q 2278 3394 2678 2853 
L 2678 3319 
L 3500 3319 
L 3500 341 
Q 3500 -247 3403 -537 
Q 3306 -828 3131 -993 
Q 2956 -1159 2664 -1253 
Q 2372 -1347 1925 -1347 
Q 1081 -1347 728 -1058 
Q 375 -769 375 -325 
Q 375 -281 378 -219 
z
M 1163 1728 
Q 1163 1200 1367 954 
Q 1572 709 1872 709 
Q 2194 709 2416 961 
Q 2638 1213 2638 1706 
Q 2638 2222 2425 2472 
Q 2213 2722 1888 2722 
Q 1572 2722 1367 2476 
Q 1163 2231 1163 1728 
z
" transform="scale(0.015625)"/>
      <path id="Arial-BoldMT-43" d="M 3397 1684 
L 4294 1400 
Q 4088 650 3608 286 
Q 3128 -78 2391 -78 
Q 1478 -78 890 545 
Q 303 1169 303 2250 
Q 303 3394 893 4026 
Q 1484 4659 2447 4659 
Q 3288 4659 3813 4163 
Q 4125 3869 4281 3319 
L 3366 3100 
Q 3284 3456 3026 3662 
Q 2769 3869 2400 3869 
Q 1891 3869 1573 3503 
Q 1256 3138 1256 2319 
Q 1256 1450 1568 1081 
Q 1881 713 2381 713 
Q 2750 713 3015 947 
Q 3281 1181 3397 1684 
z
" transform="scale(0.015625)"/>
      <path id="Arial-BoldMT-61" d="M 1116 2306 
L 319 2450 
Q 453 2931 781 3162 
Q 1109 3394 1756 3394 
Q 2344 3394 2631 3255 
Q 2919 3116 3036 2902 
Q 3153 2688 3153 2116 
L 3144 1091 
Q 3144 653 3186 445 
Q 3228 238 3344 0 
L 2475 0 
Q 2441 88 2391 259 
Q 2369 338 2359 363 
Q 2134 144 1878 34 
Q 1622 -75 1331 -75 
Q 819 -75 523 203 
Q 228 481 228 906 
Q 228 1188 362 1408 
Q 497 1628 739 1745 
Q 981 1863 1438 1950 
Q 2053 2066 2291 2166 
L 2291 2253 
Q 2291 2506 2166 2614 
Q 2041 2722 1694 2722 
Q 1459 2722 1328 2630 
Q 1197 2538 1116 2306 
z
M 2291 1594 
Q 2122 1538 1756 1459 
Q 1391 1381 1278 1306 
Q 1106 1184 1106 997 
Q 1106 813 1243 678 
Q 1381 544 1594 544 
Q 1831 544 2047 700 
Q 2206 819 2256 991 
Q 2291 1103 2291 1419 
L 2291 1594 
z
" transform="scale(0.015625)"/>
      <path id="Arial-BoldMT-63" d="M 3353 2338 
L 2488 2181 
Q 2444 2441 2289 2572 
Q 2134 2703 1888 2703 
Q 1559 2703 1364 2476 
Q 1169 2250 1169 1719 
Q 1169 1128 1367 884 
Q 1566 641 1900 641 
Q 2150 641 2309 783 
Q 2469 925 2534 1272 
L 3397 1125 
Q 3263 531 2881 228 
Q 2500 -75 1859 -75 
Q 1131 -75 698 384 
Q 266 844 266 1656 
Q 266 2478 700 2936 
Q 1134 3394 1875 3394 
Q 2481 3394 2839 3133 
Q 3197 2872 3353 2338 
z
" transform="scale(0.015625)"/>
      <path id="Arial-BoldMT-65" d="M 2381 1056 
L 3256 909 
Q 3088 428 2723 176 
Q 2359 -75 1813 -75 
Q 947 -75 531 491 
Q 203 944 203 1634 
Q 203 2459 634 2926 
Q 1066 3394 1725 3394 
Q 2466 3394 2894 2905 
Q 3322 2416 3303 1406 
L 1103 1406 
Q 1113 1016 1316 798 
Q 1519 581 1822 581 
Q 2028 581 2168 693 
Q 2309 806 2381 1056 
z
M 2431 1944 
Q 2422 2325 2234 2523 
Q 2047 2722 1778 2722 
Q 1491 2722 1303 2513 
Q 1116 2303 1119 1944 
L 2431 1944 
z
" transform="scale(0.015625)"/>
      <path id="Arial-BoldMT-4d" d="M 453 0 
L 453 4581 
L 1838 4581 
L 2669 1456 
L 3491 4581 
L 4878 4581 
L 4878 0 
L 4019 0 
L 4019 3606 
L 3109 0 
L 2219 0 
L 1313 3606 
L 1313 0 
L 453 0 
z
" transform="scale(0.015625)"/>
      <path id="Arial-BoldMT-6c" d="M 459 0 
L 459 4581 
L 1338 4581 
L 1338 0 
L 459 0 
z
" transform="scale(0.015625)"/>
      <path id="Arial-BoldMT-79" d="M 44 3319 
L 978 3319 
L 1772 963 
L 2547 3319 
L 3456 3319 
L 2284 125 
L 2075 -453 
Q 1959 -744 1854 -897 
Q 1750 -1050 1614 -1145 
Q 1478 -1241 1279 -1294 
Q 1081 -1347 831 -1347 
Q 578 -1347 334 -1294 
L 256 -606 
Q 463 -647 628 -647 
Q 934 -647 1081 -467 
Q 1228 -288 1306 -9 
L 44 3319 
z
" transform="scale(0.015625)"/>
      <path id="Arial-BoldMT-52" d="M 469 0 
L 469 4581 
L 2416 4581 
Q 3150 4581 3483 4457 
Q 3816 4334 4016 4018 
Q 4216 3703 4216 3297 
Q 4216 2781 3912 2445 
Q 3609 2109 3006 2022 
Q 3306 1847 3501 1637 
Q 3697 1428 4028 894 
L 4588 0 
L 3481 0 
L 2813 997 
Q 2456 1531 2325 1670 
Q 2194 1809 2047 1861 
Q 1900 1913 1581 1913 
L 1394 1913 
L 1394 0 
L 469 0 
z
M 1394 2644 
L 2078 2644 
Q 2744 2644 2909 2700 
Q 3075 2756 3169 2893 
Q 3263 3031 3263 3238 
Q 3263 3469 3139 3611 
Q 3016 3753 2791 3791 
Q 2678 3806 2116 3806 
L 1394 3806 
L 1394 2644 
z
" transform="scale(0.015625)"/>
      <path id="Arial-BoldMT-41" d="M 4597 0 
L 3591 0 
L 3191 1041 
L 1359 1041 
L 981 0 
L 0 0 
L 1784 4581 
L 2763 4581 
L 4597 0 
z
M 2894 1813 
L 2263 3513 
L 1644 1813 
L 2894 1813 
z
" transform="scale(0.015625)"/>
      <path id="Arial-BoldMT-64" d="M 3503 0 
L 2688 0 
L 2688 488 
Q 2484 203 2207 64 
Q 1931 -75 1650 -75 
Q 1078 -75 670 386 
Q 263 847 263 1672 
Q 263 2516 659 2955 
Q 1056 3394 1663 3394 
Q 2219 3394 2625 2931 
L 2625 4581 
L 3503 4581 
L 3503 0 
z
M 1159 1731 
Q 1159 1200 1306 963 
Q 1519 619 1900 619 
Q 2203 619 2415 876 
Q 2628 1134 2628 1647 
Q 2628 2219 2422 2470 
Q 2216 2722 1894 2722 
Q 1581 2722 1370 2473 
Q 1159 2225 1159 1731 
z
" transform="scale(0.015625)"/>
      <path id="Arial-BoldMT-ed" d="M 459 0 
L 459 3319 
L 1338 3319 
L 1338 0 
L 459 0 
z
M 394 3725 
L 825 4659 
L 1809 4659 
L 950 3725 
L 394 3725 
z
" transform="scale(0.015625)"/>
     </defs>
     <use xlink:href="#Arial-BoldMT-44"/>
     <use xlink:href="#Arial-BoldMT-69" x="72.216797"/>
     <use xlink:href="#Arial-BoldMT-73" x="100"/>
     <use xlink:href="#Arial-BoldMT-74" x="155.615234"/>
     <use xlink:href="#Arial-BoldMT-72" x="188.916016"/>
     <use xlink:href="#Arial-BoldMT-69" x="227.832031"/>
     <use xlink:href="#Arial-BoldMT-62" x="255.615234"/>
     <use xlink:href="#Arial-BoldMT-75" x="316.699219"/>
     <use xlink:href="#Arial-BoldMT-74" x="377.783203"/>
     <use xlink:href="#Arial-BoldMT-69" x="411.083984"/>
     <use xlink:href="#Arial-BoldMT-6f" x="438.867188"/>
     <use xlink:href="#Arial-BoldMT-6e" x="499.951172"/>
     <use xlink:href="#Arial-BoldMT-20" x="561.035156"/>
     <use xlink:href="#Arial-BoldMT-6f" x="588.818359"/>
     <use xlink:href="#Arial-BoldMT-66" x="649.902344"/>
     <use xlink:href="#Arial-BoldMT-20" x="683.203125"/>
     <use xlink:href="#Arial-BoldMT-4c" x="710.986328"/>
     <use xlink:href="#Arial-BoldMT-75" x="772.070312"/>
     <use xlink:href="#Arial-BoldMT-6e" x="833.154297"/>
     <use xlink:href="#Arial-BoldMT-67" x="894.238281"/>
     <use xlink:href="#Arial-BoldMT-20" x="955.322266"/>
     <use xlink:href="#Arial-BoldMT-43" x="983.105469"/>
     <use xlink:href="#Arial-BoldMT-61" x="1055.322266"/>
     <use xlink:href="#Arial-BoldMT-6e" x="1110.9375"/>
     <use xlink:href="#Arial-BoldMT-63" x="1172.021484"/>
     <use xlink:href="#Arial-BoldMT-65" x="1227.636719"/>
     <use xlink:href="#Arial-BoldMT-72" x="1283.251953"/>
     <use xlink:href="#Arial-BoldMT-20" x="1322.167969"/>
     <use xlink:href="#Arial-BoldMT-4d" x="1349.951172"/>
     <use xlink:href="#Arial-BoldMT-6f" x="1433.251953"/>
     <use xlink:href="#Arial-BoldMT-72" x="1494.335938"/>
     <use xlink:href="#Arial-BoldMT-74" x="1533.251953"/>
     <use xlink:href="#Arial-BoldMT-61" x="1566.552734"/>
     <use xlink:href="#Arial-BoldMT-6c" x="1622.167969"/>
     <use xlink:href="#Arial-BoldMT-69" x="1649.951172"/>
     <use xlink:href="#Arial-BoldMT-74" x="1677.734375"/>
     <use xlink:href="#Arial-BoldMT-79" x="1711.035156"/>
     <use xlink:href="#Arial-BoldMT-20" x="1766.650391"/>
     <use xlink:href="#Arial-BoldMT-52" x="1794.433594"/>
     <use xlink:href="#Arial-BoldMT-61" x="1866.650391"/>
     <use xlink:href="#Arial-BoldMT-74" x="1922.265625"/>
     <use xlink:href="#Arial-BoldMT-65" x="1955.566406"/>
     <use xlink:href="#Arial-BoldMT-73" x="2011.181641"/>
     <use xlink:href="#Arial-BoldMT-20" x="2066.796875"/>
     <use xlink:href="#Arial-BoldMT-62" x="2094.580078"/>
     <use xlink:href="#Arial-BoldMT-79" x="2155.664062"/>
     <use xlink:href="#Arial-BoldMT-20" x="2211.279297"/>
     <use xlink:href="#Arial-BoldMT-41" x="2235.3125"/>
     <use xlink:href="#Arial-BoldMT-6c" x="2307.529297"/>
     <use xlink:href="#Arial-BoldMT-63" x="2335.3125"/>
     <use xlink:href="#Arial-BoldMT-61" x="2390.927734"/>
     <use xlink:href="#Arial-BoldMT-6c" x="2446.542969"/>
     <use xlink:href="#Arial-BoldMT-64" x="2474.326172"/>
     <use xlink:href="#Arial-BoldMT-ed" x="2535.410156"/>
     <use xlink:href="#Arial-BoldMT-61" x="2563.193359"/>
    </g>
    <!-- Mexico City, 2004-2022 (14 Alcaldías) -->
    <g style="fill: #262626" transform="translate(409.930625 28.944) scale(0.12 -0.12)">
     <defs>
      <path id="Arial-BoldMT-78" d="M 38 0 
L 1234 1709 
L 88 3319 
L 1159 3319 
L 1747 2406 
L 2366 3319 
L 3397 3319 
L 2272 1747 
L 3500 0 
L 2422 0 
L 1747 1028 
L 1066 0 
L 38 0 
z
" transform="scale(0.015625)"/>
      <path id="Arial-BoldMT-2c" d="M 438 878 
L 1316 878 
L 1316 250 
Q 1316 -131 1250 -351 
Q 1184 -572 1001 -747 
Q 819 -922 538 -1022 
L 366 -659 
Q 631 -572 743 -419 
Q 856 -266 863 0 
L 438 0 
L 438 878 
z
" transform="scale(0.015625)"/>
      <path id="Arial-BoldMT-32" d="M 3238 816 
L 3238 0 
L 159 0 
Q 209 463 459 877 
Q 709 1291 1447 1975 
Q 2041 2528 2175 2725 
Q 2356 2997 2356 3263 
Q 2356 3556 2198 3714 
Q 2041 3872 1763 3872 
Q 1488 3872 1325 3706 
Q 1163 3541 1138 3156 
L 263 3244 
Q 341 3969 753 4284 
Q 1166 4600 1784 4600 
Q 2463 4600 2850 4234 
Q 3238 3869 3238 3325 
Q 3238 3016 3127 2736 
Q 3016 2456 2775 2150 
Q 2616 1947 2200 1565 
Q 1784 1184 1673 1059 
Q 1563 934 1494 816 
L 3238 816 
z
" transform="scale(0.015625)"/>
      <path id="Arial-BoldMT-30" d="M 1756 4600 
Q 2422 4600 2797 4125 
Q 3244 3563 3244 2259 
Q 3244 959 2794 391 
Q 2422 -78 1756 -78 
Q 1088 -78 678 436 
Q 269 950 269 2269 
Q 269 3563 719 4131 
Q 1091 4600 1756 4600 
z
M 1756 3872 
Q 1597 3872 1472 3770 
Q 1347 3669 1278 3406 
Q 1188 3066 1188 2259 
Q 1188 1453 1269 1151 
Q 1350 850 1473 750 
Q 1597 650 1756 650 
Q 1916 650 2041 751 
Q 2166 853 2234 1116 
Q 2325 1453 2325 2259 
Q 2325 3066 2244 3367 
Q 2163 3669 2039 3770 
Q 1916 3872 1756 3872 
z
" transform="scale(0.015625)"/>
      <path id="Arial-BoldMT-34" d="M 1994 0 
L 1994 922 
L 119 922 
L 119 1691 
L 2106 4600 
L 2844 4600 
L 2844 1694 
L 3413 1694 
L 3413 922 
L 2844 922 
L 2844 0 
L 1994 0 
z
M 1994 1694 
L 1994 3259 
L 941 1694 
L 1994 1694 
z
" transform="scale(0.015625)"/>
      <path id="Arial-BoldMT-2d" d="M 359 1222 
L 359 2100 
L 2084 2100 
L 2084 1222 
L 359 1222 
z
" transform="scale(0.015625)"/>
      <path id="Arial-BoldMT-28" d="M 1916 -1347 
L 1313 -1347 
Q 834 -625 584 153 
Q 334 931 334 1659 
Q 334 2563 644 3369 
Q 913 4069 1325 4659 
L 1925 4659 
Q 1497 3713 1336 3048 
Q 1175 2384 1175 1641 
Q 1175 1128 1270 590 
Q 1366 53 1531 -431 
Q 1641 -750 1916 -1347 
z
" transform="scale(0.015625)"/>
      <path id="Arial-BoldMT-31" d="M 2519 0 
L 1641 0 
L 1641 3309 
Q 1159 2859 506 2644 
L 506 3441 
Q 850 3553 1253 3867 
Q 1656 4181 1806 4600 
L 2519 4600 
L 2519 0 
z
" transform="scale(0.015625)"/>
      <path id="Arial-BoldMT-29" d="M 216 -1347 
Q 475 -791 581 -494 
Q 688 -197 778 190 
Q 869 578 912 926 
Q 956 1275 956 1641 
Q 956 2384 797 3048 
Q 638 3713 209 4659 
L 806 4659 
Q 1278 3988 1539 3234 
Q 1800 2481 1800 1706 
Q 1800 1053 1594 306 
Q 1359 -531 822 -1347 
L 216 -1347 
z
" transform="scale(0.015625)"/>
     </defs>
     <use xlink:href="#Arial-BoldMT-4d"/>
     <use xlink:href="#Arial-BoldMT-65" x="83.300781"/>
     <use xlink:href="#Arial-BoldMT-78" x="138.916016"/>
     <use xlink:href="#Arial-BoldMT-69" x="194.53125"/>
     <use xlink:href="#Arial-BoldMT-63" x="222.314453"/>
     <use xlink:href="#Arial-BoldMT-6f" x="277.929688"/>
     <use xlink:href="#Arial-BoldMT-20" x="339.013672"/>
     <use xlink:href="#Arial-BoldMT-43" x="366.796875"/>
     <use xlink:href="#Arial-BoldMT-69" x="439.013672"/>
     <use xlink:href="#Arial-BoldMT-74" x="466.796875"/>
     <use xlink:href="#Arial-BoldMT-79" x="500.097656"/>
     <use xlink:href="#Arial-BoldMT-2c" x="548.337891"/>
     <use xlink:href="#Arial-BoldMT-20" x="576.121094"/>
     <use xlink:href="#Arial-BoldMT-32" x="603.904297"/>
     <use xlink:href="#Arial-BoldMT-30" x="659.519531"/>
     <use xlink:href="#Arial-BoldMT-30" x="715.134766"/>
     <use xlink:href="#Arial-BoldMT-34" x="770.75"/>
     <use xlink:href="#Arial-BoldMT-2d" x="826.365234"/>
     <use xlink:href="#Arial-BoldMT-32" x="859.666016"/>
     <use xlink:href="#Arial-BoldMT-30" x="915.28125"/>
     <use xlink:href="#Arial-BoldMT-32" x="970.896484"/>
     <use xlink:href="#Arial-BoldMT-32" x="1026.511719"/>
     <use xlink:href="#Arial-BoldMT-20" x="1082.126953"/>
     <use xlink:href="#Arial-BoldMT-28" x="1109.910156"/>
     <use xlink:href="#Arial-BoldMT-31" x="1143.210938"/>
     <use xlink:href="#Arial-BoldMT-34" x="1198.826172"/>
     <use xlink:href="#Arial-BoldMT-20" x="1254.441406"/>
     <use xlink:href="#Arial-BoldMT-41" x="1278.474609"/>
     <use xlink:href="#Arial-BoldMT-6c" x="1350.691406"/>
     <use xlink:href="#Arial-BoldMT-63" x="1378.474609"/>
     <use xlink:href="#Arial-BoldMT-61" x="1434.089844"/>
     <use xlink:href="#Arial-BoldMT-6c" x="1489.705078"/>
     <use xlink:href="#Arial-BoldMT-64" x="1517.488281"/>
     <use xlink:href="#Arial-BoldMT-ed" x="1578.572266"/>
     <use xlink:href="#Arial-BoldMT-61" x="1606.355469"/>
     <use xlink:href="#Arial-BoldMT-73" x="1661.970703"/>
     <use xlink:href="#Arial-BoldMT-29" x="1717.585938"/>
    </g>
   </g>
  </g>
 </g>
 <defs>
  <clipPath id="p15d1e516ac">
   <rect x="36.144688" y="34.944" width="957.66" height="445.027471"/>
  </clipPath>
 </defs>
</svg>
