<?xml version="1.0" encoding="utf-8" standalone="no"?>
<!DOCTYPE svg PUBLIC "-//W3C//DTD SVG 1.1//EN"
  "http://www.w3.org/Graphics/SVG/1.1/DTD/svg11.dtd">
<svg xmlns:xlink="http://www.w3.org/1999/xlink" width="855.18696pt" height="713.302031pt" viewBox="0 0 855.18696 713.302031" xmlns="http://www.w3.org/2000/svg" version="1.1">
 <metadata>
  <rdf:RDF xmlns:dc="http://purl.org/dc/elements/1.1/" xmlns:cc="http://creativecommons.org/ns#" xmlns:rdf="http://www.w3.org/1999/02/22-rdf-syntax-ns#">
   <cc:Work>
    <dc:type rdf:resource="http://purl.org/dc/dcmitype/StillImage"/>
    <dc:date>2026-04-23T13:55:08.059386</dc:date>
    <dc:format>image/svg+xml</dc:format>
    <dc:creator>
     <cc:Agent>
      <dc:title>Matplotlib v3.7.1, https://matplotlib.org/</dc:title>
     </cc:Agent>
    </dc:creator>
   </cc:Work>
  </rdf:RDF>
 </metadata>
 <defs>
  <style type="text/css">*{stroke-linejoin: round; stroke-linecap: butt}</style>
 </defs>
 <g id="figure_1">
  <g id="patch_1">
   <path d="M 0 713.302031 
L 855.18696 713.302031 
L 855.18696 0 
L 0 0 
z
" style="fill: #ffffff"/>
  </g>
  <g id="axes_1">
   <g id="patch_2">
    <path d="M 36.144688 337.906875 
L 847.98696 337.906875 
L 847.98696 21.935625 
L 36.144688 21.935625 
z
" style="fill: #ffffff"/>
   </g>
   <g id="matplotlib.axis_1">
    <g id="xtick_1">
     <g id="line2d_1">
      <path d="M 114.048744 337.906875 
L 114.048744 21.935625 
" clip-path="url(#p1d2524dd6a)" style="fill: none; stroke: #cccccc; stroke-opacity: 0.3; stroke-width: 0.8; stroke-linecap: round"/>
     </g>
     <g id="line2d_2"/>
    </g>
    <g id="xtick_2">
     <g id="line2d_3">
      <path d="M 216.554081 337.906875 
L 216.554081 21.935625 
" clip-path="url(#p1d2524dd6a)" style="fill: none; stroke: #cccccc; stroke-opacity: 0.3; stroke-width: 0.8; stroke-linecap: round"/>
     </g>
     <g id="line2d_4"/>
    </g>
    <g id="xtick_3">
     <g id="line2d_5">
      <path d="M 319.059419 337.906875 
L 319.059419 21.935625 
" clip-path="url(#p1d2524dd6a)" style="fill: none; stroke: #cccccc; stroke-opacity: 0.3; stroke-width: 0.8; stroke-linecap: round"/>
     </g>
     <g id="line2d_6"/>
    </g>
    <g id="xtick_4">
     <g id="line2d_7">
      <path d="M 421.564756 337.906875 
L 421.564756 21.935625 
" clip-path="url(#p1d2524dd6a)" style="fill: none; stroke: #cccccc; stroke-opacity: 0.3; stroke-width: 0.8; stroke-linecap: round"/>
     </g>
     <g id="line2d_8"/>
    </g>
    <g id="xtick_5">
     <g id="line2d_9">
      <path d="M 524.070094 337.906875 
L 524.070094 21.935625 
" clip-path="url(#p1d2524dd6a)" style="fill: none; stroke: #cccccc; stroke-opacity: 0.3; stroke-width: 0.8; stroke-linecap: round"/>
     </g>
     <g id="line2d_10"/>
    </g>
    <g id="xtick_6">
     <g id="line2d_11">
      <path d="M 626.575431 337.906875 
L 626.575431 21.935625 
" clip-path="url(#p1d2524dd6a)" style="fill: none; stroke: #cccccc; stroke-opacity: 0.3; stroke-width: 0.8; stroke-linecap: round"/>
     </g>
     <g id="line2d_12"/>
    </g>
    <g id="xtick_7">
     <g id="line2d_13">
      <path d="M 729.080769 337.906875 
L 729.080769 21.935625 
" clip-path="url(#p1d2524dd6a)" style="fill: none; stroke: #cccccc; stroke-opacity: 0.3; stroke-width: 0.8; stroke-linecap: round"/>
     </g>
     <g id="line2d_14"/>
    </g>
    <g id="xtick_8">
     <g id="line2d_15">
      <path d="M 831.586106 337.906875 
L 831.586106 21.935625 
" clip-path="url(#p1d2524dd6a)" style="fill: none; stroke: #cccccc; stroke-opacity: 0.3; stroke-width: 0.8; stroke-linecap: round"/>
     </g>
     <g id="line2d_16"/>
    </g>
   </g>
   <g id="matplotlib.axis_2">
    <g id="ytick_1">
     <g id="line2d_17">
      <path d="M 36.144688 309.739155 
L 847.98696 309.739155 
" clip-path="url(#p1d2524dd6a)" style="fill: none; stroke: #cccccc; stroke-opacity: 0.3; stroke-width: 0.8; stroke-linecap: round"/>
     </g>
     <g id="line2d_18"/>
     <g id="text_1">
      <!-- 20 -->
      <g style="fill: #262626" transform="translate(21.522813 313.318061) scale(0.1 -0.1)">
       <defs>
        <path id="ArialMT-32" d="M 3222 541 
L 3222 0 
L 194 0 
Q 188 203 259 391 
Q 375 700 629 1000 
Q 884 1300 1366 1694 
Q 2113 2306 2375 2664 
Q 2638 3022 2638 3341 
Q 2638 3675 2398 3904 
Q 2159 4134 1775 4134 
Q 1369 4134 1125 3890 
Q 881 3647 878 3216 
L 300 3275 
Q 359 3922 746 4261 
Q 1134 4600 1788 4600 
Q 2447 4600 2831 4234 
Q 3216 3869 3216 3328 
Q 3216 3053 3103 2787 
Q 2991 2522 2730 2228 
Q 2469 1934 1863 1422 
Q 1356 997 1212 845 
Q 1069 694 975 541 
L 3222 541 
z
" transform="scale(0.015625)"/>
        <path id="ArialMT-30" d="M 266 2259 
Q 266 3072 433 3567 
Q 600 4063 929 4331 
Q 1259 4600 1759 4600 
Q 2128 4600 2406 4451 
Q 2684 4303 2865 4023 
Q 3047 3744 3150 3342 
Q 3253 2941 3253 2259 
Q 3253 1453 3087 958 
Q 2922 463 2592 192 
Q 2263 -78 1759 -78 
Q 1097 -78 719 397 
Q 266 969 266 2259 
z
M 844 2259 
Q 844 1131 1108 757 
Q 1372 384 1759 384 
Q 2147 384 2411 759 
Q 2675 1134 2675 2259 
Q 2675 3391 2411 3762 
Q 2147 4134 1753 4134 
Q 1366 4134 1134 3806 
Q 844 3388 844 2259 
z
" transform="scale(0.015625)"/>
       </defs>
       <use xlink:href="#ArialMT-32"/>
       <use xlink:href="#ArialMT-30" x="55.615234"/>
      </g>
     </g>
    </g>
    <g id="ytick_2">
     <g id="line2d_19">
      <path d="M 36.144688 258.167943 
L 847.98696 258.167943 
" clip-path="url(#p1d2524dd6a)" style="fill: none; stroke: #cccccc; stroke-opacity: 0.3; stroke-width: 0.8; stroke-linecap: round"/>
     </g>
     <g id="line2d_20"/>
     <g id="text_2">
      <!-- 25 -->
      <g style="fill: #262626" transform="translate(21.522813 261.746849) scale(0.1 -0.1)">
       <defs>
        <path id="ArialMT-35" d="M 266 1200 
L 856 1250 
Q 922 819 1161 601 
Q 1400 384 1738 384 
Q 2144 384 2425 690 
Q 2706 997 2706 1503 
Q 2706 1984 2436 2262 
Q 2166 2541 1728 2541 
Q 1456 2541 1237 2417 
Q 1019 2294 894 2097 
L 366 2166 
L 809 4519 
L 3088 4519 
L 3088 3981 
L 1259 3981 
L 1013 2750 
Q 1425 3038 1878 3038 
Q 2478 3038 2890 2622 
Q 3303 2206 3303 1553 
Q 3303 931 2941 478 
Q 2500 -78 1738 -78 
Q 1113 -78 717 272 
Q 322 622 266 1200 
z
" transform="scale(0.015625)"/>
       </defs>
       <use xlink:href="#ArialMT-32"/>
       <use xlink:href="#ArialMT-35" x="55.615234"/>
      </g>
     </g>
    </g>
    <g id="ytick_3">
     <g id="line2d_21">
      <path d="M 36.144688 206.596731 
L 847.98696 206.596731 
" clip-path="url(#p1d2524dd6a)" style="fill: none; stroke: #cccccc; stroke-opacity: 0.3; stroke-width: 0.8; stroke-linecap: round"/>
     </g>
     <g id="line2d_22"/>
     <g id="text_3">
      <!-- 30 -->
      <g style="fill: #262626" transform="translate(21.522813 210.175638) scale(0.1 -0.1)">
       <defs>
        <path id="ArialMT-33" d="M 269 1209 
L 831 1284 
Q 928 806 1161 595 
Q 1394 384 1728 384 
Q 2125 384 2398 659 
Q 2672 934 2672 1341 
Q 2672 1728 2419 1979 
Q 2166 2231 1775 2231 
Q 1616 2231 1378 2169 
L 1441 2663 
Q 1497 2656 1531 2656 
Q 1891 2656 2178 2843 
Q 2466 3031 2466 3422 
Q 2466 3731 2256 3934 
Q 2047 4138 1716 4138 
Q 1388 4138 1169 3931 
Q 950 3725 888 3313 
L 325 3413 
Q 428 3978 793 4289 
Q 1159 4600 1703 4600 
Q 2078 4600 2393 4439 
Q 2709 4278 2876 4000 
Q 3044 3722 3044 3409 
Q 3044 3113 2884 2869 
Q 2725 2625 2413 2481 
Q 2819 2388 3044 2092 
Q 3269 1797 3269 1353 
Q 3269 753 2831 336 
Q 2394 -81 1725 -81 
Q 1122 -81 723 278 
Q 325 638 269 1209 
z
" transform="scale(0.015625)"/>
       </defs>
       <use xlink:href="#ArialMT-33"/>
       <use xlink:href="#ArialMT-30" x="55.615234"/>
      </g>
     </g>
    </g>
    <g id="ytick_4">
     <g id="line2d_23">
      <path d="M 36.144688 155.02552 
L 847.98696 155.02552 
" clip-path="url(#p1d2524dd6a)" style="fill: none; stroke: #cccccc; stroke-opacity: 0.3; stroke-width: 0.8; stroke-linecap: round"/>
     </g>
     <g id="line2d_24"/>
     <g id="text_4">
      <!-- 35 -->
      <g style="fill: #262626" transform="translate(21.522813 158.604426) scale(0.1 -0.1)">
       <use xlink:href="#ArialMT-33"/>
       <use xlink:href="#ArialMT-35" x="55.615234"/>
      </g>
     </g>
    </g>
    <g id="ytick_5">
     <g id="line2d_25">
      <path d="M 36.144688 103.454308 
L 847.98696 103.454308 
" clip-path="url(#p1d2524dd6a)" style="fill: none; stroke: #cccccc; stroke-opacity: 0.3; stroke-width: 0.8; stroke-linecap: round"/>
     </g>
     <g id="line2d_26"/>
     <g id="text_5">
      <!-- 40 -->
      <g style="fill: #262626" transform="translate(21.522813 107.033214) scale(0.1 -0.1)">
       <defs>
        <path id="ArialMT-34" d="M 2069 0 
L 2069 1097 
L 81 1097 
L 81 1613 
L 2172 4581 
L 2631 4581 
L 2631 1613 
L 3250 1613 
L 3250 1097 
L 2631 1097 
L 2631 0 
L 2069 0 
z
M 2069 1613 
L 2069 3678 
L 634 1613 
L 2069 1613 
z
" transform="scale(0.015625)"/>
       </defs>
       <use xlink:href="#ArialMT-34"/>
       <use xlink:href="#ArialMT-30" x="55.615234"/>
      </g>
     </g>
    </g>
    <g id="ytick_6">
     <g id="line2d_27">
      <path d="M 36.144688 51.883096 
L 847.98696 51.883096 
" clip-path="url(#p1d2524dd6a)" style="fill: none; stroke: #cccccc; stroke-opacity: 0.3; stroke-width: 0.8; stroke-linecap: round"/>
     </g>
     <g id="line2d_28"/>
     <g id="text_6">
      <!-- 45 -->
      <g style="fill: #262626" transform="translate(21.522813 55.462003) scale(0.1 -0.1)">
       <use xlink:href="#ArialMT-34"/>
       <use xlink:href="#ArialMT-35" x="55.615234"/>
      </g>
     </g>
    </g>
    <g id="text_7">
     <!-- Concentration (μg/m³) -->
     <g style="fill: #262626" transform="translate(15.207656 233.521328) rotate(-90) scale(0.11 -0.11)">
      <defs>
       <path id="ArialMT-43" d="M 3763 1606 
L 4369 1453 
Q 4178 706 3683 314 
Q 3188 -78 2472 -78 
Q 1731 -78 1267 223 
Q 803 525 561 1097 
Q 319 1669 319 2325 
Q 319 3041 592 3573 
Q 866 4106 1370 4382 
Q 1875 4659 2481 4659 
Q 3169 4659 3637 4309 
Q 4106 3959 4291 3325 
L 3694 3184 
Q 3534 3684 3231 3912 
Q 2928 4141 2469 4141 
Q 1941 4141 1586 3887 
Q 1231 3634 1087 3207 
Q 944 2781 944 2328 
Q 944 1744 1114 1308 
Q 1284 872 1643 656 
Q 2003 441 2422 441 
Q 2931 441 3284 734 
Q 3638 1028 3763 1606 
z
" transform="scale(0.015625)"/>
       <path id="ArialMT-6f" d="M 213 1659 
Q 213 2581 725 3025 
Q 1153 3394 1769 3394 
Q 2453 3394 2887 2945 
Q 3322 2497 3322 1706 
Q 3322 1066 3130 698 
Q 2938 331 2570 128 
Q 2203 -75 1769 -75 
Q 1072 -75 642 372 
Q 213 819 213 1659 
z
M 791 1659 
Q 791 1022 1069 705 
Q 1347 388 1769 388 
Q 2188 388 2466 706 
Q 2744 1025 2744 1678 
Q 2744 2294 2464 2611 
Q 2184 2928 1769 2928 
Q 1347 2928 1069 2612 
Q 791 2297 791 1659 
z
" transform="scale(0.015625)"/>
       <path id="ArialMT-6e" d="M 422 0 
L 422 3319 
L 928 3319 
L 928 2847 
Q 1294 3394 1984 3394 
Q 2284 3394 2536 3286 
Q 2788 3178 2913 3003 
Q 3038 2828 3088 2588 
Q 3119 2431 3119 2041 
L 3119 0 
L 2556 0 
L 2556 2019 
Q 2556 2363 2490 2533 
Q 2425 2703 2258 2804 
Q 2091 2906 1866 2906 
Q 1506 2906 1245 2678 
Q 984 2450 984 1813 
L 984 0 
L 422 0 
z
" transform="scale(0.015625)"/>
       <path id="ArialMT-63" d="M 2588 1216 
L 3141 1144 
Q 3050 572 2676 248 
Q 2303 -75 1759 -75 
Q 1078 -75 664 370 
Q 250 816 250 1647 
Q 250 2184 428 2587 
Q 606 2991 970 3192 
Q 1334 3394 1763 3394 
Q 2303 3394 2647 3120 
Q 2991 2847 3088 2344 
L 2541 2259 
Q 2463 2594 2264 2762 
Q 2066 2931 1784 2931 
Q 1359 2931 1093 2626 
Q 828 2322 828 1663 
Q 828 994 1084 691 
Q 1341 388 1753 388 
Q 2084 388 2306 591 
Q 2528 794 2588 1216 
z
" transform="scale(0.015625)"/>
       <path id="ArialMT-65" d="M 2694 1069 
L 3275 997 
Q 3138 488 2766 206 
Q 2394 -75 1816 -75 
Q 1088 -75 661 373 
Q 234 822 234 1631 
Q 234 2469 665 2931 
Q 1097 3394 1784 3394 
Q 2450 3394 2872 2941 
Q 3294 2488 3294 1666 
Q 3294 1616 3291 1516 
L 816 1516 
Q 847 969 1125 678 
Q 1403 388 1819 388 
Q 2128 388 2347 550 
Q 2566 713 2694 1069 
z
M 847 1978 
L 2700 1978 
Q 2663 2397 2488 2606 
Q 2219 2931 1791 2931 
Q 1403 2931 1139 2672 
Q 875 2413 847 1978 
z
" transform="scale(0.015625)"/>
       <path id="ArialMT-74" d="M 1650 503 
L 1731 6 
Q 1494 -44 1306 -44 
Q 1000 -44 831 53 
Q 663 150 594 308 
Q 525 466 525 972 
L 525 2881 
L 113 2881 
L 113 3319 
L 525 3319 
L 525 4141 
L 1084 4478 
L 1084 3319 
L 1650 3319 
L 1650 2881 
L 1084 2881 
L 1084 941 
Q 1084 700 1114 631 
Q 1144 563 1211 522 
Q 1278 481 1403 481 
Q 1497 481 1650 503 
z
" transform="scale(0.015625)"/>
       <path id="ArialMT-72" d="M 416 0 
L 416 3319 
L 922 3319 
L 922 2816 
Q 1116 3169 1280 3281 
Q 1444 3394 1641 3394 
Q 1925 3394 2219 3213 
L 2025 2691 
Q 1819 2813 1613 2813 
Q 1428 2813 1281 2702 
Q 1134 2591 1072 2394 
Q 978 2094 978 1738 
L 978 0 
L 416 0 
z
" transform="scale(0.015625)"/>
       <path id="ArialMT-61" d="M 2588 409 
Q 2275 144 1986 34 
Q 1697 -75 1366 -75 
Q 819 -75 525 192 
Q 231 459 231 875 
Q 231 1119 342 1320 
Q 453 1522 633 1644 
Q 813 1766 1038 1828 
Q 1203 1872 1538 1913 
Q 2219 1994 2541 2106 
Q 2544 2222 2544 2253 
Q 2544 2597 2384 2738 
Q 2169 2928 1744 2928 
Q 1347 2928 1158 2789 
Q 969 2650 878 2297 
L 328 2372 
Q 403 2725 575 2942 
Q 747 3159 1072 3276 
Q 1397 3394 1825 3394 
Q 2250 3394 2515 3294 
Q 2781 3194 2906 3042 
Q 3031 2891 3081 2659 
Q 3109 2516 3109 2141 
L 3109 1391 
Q 3109 606 3145 398 
Q 3181 191 3288 0 
L 2700 0 
Q 2613 175 2588 409 
z
M 2541 1666 
Q 2234 1541 1622 1453 
Q 1275 1403 1131 1340 
Q 988 1278 909 1158 
Q 831 1038 831 891 
Q 831 666 1001 516 
Q 1172 366 1500 366 
Q 1825 366 2078 508 
Q 2331 650 2450 897 
Q 2541 1088 2541 1459 
L 2541 1666 
z
" transform="scale(0.015625)"/>
       <path id="ArialMT-69" d="M 425 3934 
L 425 4581 
L 988 4581 
L 988 3934 
L 425 3934 
z
M 425 0 
L 425 3319 
L 988 3319 
L 988 0 
L 425 0 
z
" transform="scale(0.015625)"/>
       <path id="ArialMT-20" transform="scale(0.015625)"/>
       <path id="ArialMT-28" d="M 1497 -1347 
Q 1031 -759 709 28 
Q 388 816 388 1659 
Q 388 2403 628 3084 
Q 909 3875 1497 4659 
L 1900 4659 
Q 1522 4009 1400 3731 
Q 1209 3300 1100 2831 
Q 966 2247 966 1656 
Q 966 153 1900 -1347 
L 1497 -1347 
z
" transform="scale(0.015625)"/>
       <path id="ArialMT-3bc" d="M 3181 3319 
L 3181 0 
L 2678 0 
L 2678 394 
Q 2516 144 2356 50 
Q 2138 -78 1847 -78 
Q 1588 -78 1388 25 
Q 1238 103 1056 334 
L 1056 -1272 
L 500 -1272 
L 500 3319 
L 1056 3319 
L 1056 1913 
Q 1056 1147 1137 920 
Q 1219 694 1401 562 
Q 1584 431 1822 431 
Q 2072 431 2269 568 
Q 2466 706 2547 923 
Q 2628 1141 2628 1903 
L 2628 3319 
L 3181 3319 
z
" transform="scale(0.015625)"/>
       <path id="ArialMT-67" d="M 319 -275 
L 866 -356 
Q 900 -609 1056 -725 
Q 1266 -881 1628 -881 
Q 2019 -881 2231 -725 
Q 2444 -569 2519 -288 
Q 2563 -116 2559 434 
Q 2191 0 1641 0 
Q 956 0 581 494 
Q 206 988 206 1678 
Q 206 2153 378 2554 
Q 550 2956 876 3175 
Q 1203 3394 1644 3394 
Q 2231 3394 2613 2919 
L 2613 3319 
L 3131 3319 
L 3131 450 
Q 3131 -325 2973 -648 
Q 2816 -972 2473 -1159 
Q 2131 -1347 1631 -1347 
Q 1038 -1347 672 -1080 
Q 306 -813 319 -275 
z
M 784 1719 
Q 784 1066 1043 766 
Q 1303 466 1694 466 
Q 2081 466 2343 764 
Q 2606 1063 2606 1700 
Q 2606 2309 2336 2618 
Q 2066 2928 1684 2928 
Q 1309 2928 1046 2623 
Q 784 2319 784 1719 
z
" transform="scale(0.015625)"/>
       <path id="ArialMT-2f" d="M 0 -78 
L 1328 4659 
L 1778 4659 
L 453 -78 
L 0 -78 
z
" transform="scale(0.015625)"/>
       <path id="ArialMT-6d" d="M 422 0 
L 422 3319 
L 925 3319 
L 925 2853 
Q 1081 3097 1340 3245 
Q 1600 3394 1931 3394 
Q 2300 3394 2536 3241 
Q 2772 3088 2869 2813 
Q 3263 3394 3894 3394 
Q 4388 3394 4653 3120 
Q 4919 2847 4919 2278 
L 4919 0 
L 4359 0 
L 4359 2091 
Q 4359 2428 4304 2576 
Q 4250 2725 4106 2815 
Q 3963 2906 3769 2906 
Q 3419 2906 3187 2673 
Q 2956 2441 2956 1928 
L 2956 0 
L 2394 0 
L 2394 2156 
Q 2394 2531 2256 2718 
Q 2119 2906 1806 2906 
Q 1569 2906 1367 2781 
Q 1166 2656 1075 2415 
Q 984 2175 984 1722 
L 984 0 
L 422 0 
z
" transform="scale(0.015625)"/>
       <path id="ArialMT-b3" d="M 103 2903 
L 559 2950 
Q 622 2763 722 2694 
Q 856 2600 1041 2600 
Q 1263 2600 1397 2722 
Q 1531 2844 1531 3016 
Q 1531 3172 1418 3265 
Q 1306 3359 1034 3359 
Q 997 3359 931 3353 
Q 888 3350 863 3350 
L 931 3694 
Q 1184 3691 1301 3784 
Q 1419 3878 1419 4013 
Q 1419 4128 1325 4209 
Q 1231 4291 1047 4291 
Q 872 4291 773 4222 
Q 675 4153 603 3972 
L 156 4044 
Q 284 4375 479 4506 
Q 675 4638 1050 4638 
Q 1500 4638 1704 4470 
Q 1909 4303 1909 4053 
Q 1909 3881 1798 3747 
Q 1688 3613 1478 3553 
Q 1756 3484 1887 3326 
Q 2019 3169 2019 2956 
Q 2019 2666 1772 2450 
Q 1525 2234 1069 2234 
Q 631 2234 400 2407 
Q 169 2581 103 2903 
z
" transform="scale(0.015625)"/>
       <path id="ArialMT-29" d="M 791 -1347 
L 388 -1347 
Q 1322 153 1322 1656 
Q 1322 2244 1188 2822 
Q 1081 3291 891 3722 
Q 769 4003 388 4659 
L 791 4659 
Q 1378 3875 1659 3084 
Q 1900 2403 1900 1659 
Q 1900 816 1576 28 
Q 1253 -759 791 -1347 
z
" transform="scale(0.015625)"/>
      </defs>
      <use xlink:href="#ArialMT-43"/>
      <use xlink:href="#ArialMT-6f" x="72.216797"/>
      <use xlink:href="#ArialMT-6e" x="127.832031"/>
      <use xlink:href="#ArialMT-63" x="183.447266"/>
      <use xlink:href="#ArialMT-65" x="233.447266"/>
      <use xlink:href="#ArialMT-6e" x="289.0625"/>
      <use xlink:href="#ArialMT-74" x="344.677734"/>
      <use xlink:href="#ArialMT-72" x="372.460938"/>
      <use xlink:href="#ArialMT-61" x="405.761719"/>
      <use xlink:href="#ArialMT-74" x="461.376953"/>
      <use xlink:href="#ArialMT-69" x="489.160156"/>
      <use xlink:href="#ArialMT-6f" x="511.376953"/>
      <use xlink:href="#ArialMT-6e" x="566.992188"/>
      <use xlink:href="#ArialMT-20" x="622.607422"/>
      <use xlink:href="#ArialMT-28" x="650.390625"/>
      <use xlink:href="#ArialMT-3bc" x="683.691406"/>
      <use xlink:href="#ArialMT-67" x="741.308594"/>
      <use xlink:href="#ArialMT-2f" x="796.923828"/>
      <use xlink:href="#ArialMT-6d" x="824.707031"/>
      <use xlink:href="#ArialMT-b3" x="908.007812"/>
      <use xlink:href="#ArialMT-29" x="941.308594"/>
     </g>
    </g>
   </g>
   <g id="line2d_29">
    <path d="M 73.046609 283.222105 
L 114.048744 259.200897 
L 155.050879 274.937846 
L 196.053014 274.691321 
L 237.055149 271.574301 
L 278.057284 293.715625 
L 319.059419 303.953571 
L 360.061554 282.737873 
L 401.063689 300.106388 
L 442.065824 296.504301 
L 483.067959 309.656912 
L 524.070094 293.652522 
L 565.072229 308.431713 
L 606.074364 299.639916 
L 647.076499 295.299395 
L 688.078634 305.295956 
L 729.080769 323.544545 
L 770.082904 320.182938 
L 811.085039 300.852861 
" clip-path="url(#p1d2524dd6a)" style="fill: none; stroke: #4682b4; stroke-width: 2; stroke-linecap: round"/>
    <defs>
     <path id="me60975f22e" d="M 0 3 
C 0.795609 3 1.55874 2.683901 2.12132 2.12132 
C 2.683901 1.55874 3 0.795609 3 0 
C 3 -0.795609 2.683901 -1.55874 2.12132 -2.12132 
C 1.55874 -2.683901 0.795609 -3 0 -3 
C -0.795609 -3 -1.55874 -2.683901 -2.12132 -2.12132 
C -2.683901 -1.55874 -3 -0.795609 -3 0 
C -3 0.795609 -2.683901 1.55874 -2.12132 2.12132 
C -1.55874 2.683901 -0.795609 3 0 3 
z
" style="stroke: #4682b4"/>
    </defs>
    <g clip-path="url(#p1d2524dd6a)">
     <use xlink:href="#me60975f22e" x="73.046609" y="283.222105" style="fill: #4682b4; stroke: #4682b4"/>
     <use xlink:href="#me60975f22e" x="114.048744" y="259.200897" style="fill: #4682b4; stroke: #4682b4"/>
     <use xlink:href="#me60975f22e" x="155.050879" y="274.937846" style="fill: #4682b4; stroke: #4682b4"/>
     <use xlink:href="#me60975f22e" x="196.053014" y="274.691321" style="fill: #4682b4; stroke: #4682b4"/>
     <use xlink:href="#me60975f22e" x="237.055149" y="271.574301" style="fill: #4682b4; stroke: #4682b4"/>
     <use xlink:href="#me60975f22e" x="278.057284" y="293.715625" style="fill: #4682b4; stroke: #4682b4"/>
     <use xlink:href="#me60975f22e" x="319.059419" y="303.953571" style="fill: #4682b4; stroke: #4682b4"/>
     <use xlink:href="#me60975f22e" x="360.061554" y="282.737873" style="fill: #4682b4; stroke: #4682b4"/>
     <use xlink:href="#me60975f22e" x="401.063689" y="300.106388" style="fill: #4682b4; stroke: #4682b4"/>
     <use xlink:href="#me60975f22e" x="442.065824" y="296.504301" style="fill: #4682b4; stroke: #4682b4"/>
     <use xlink:href="#me60975f22e" x="483.067959" y="309.656912" style="fill: #4682b4; stroke: #4682b4"/>
     <use xlink:href="#me60975f22e" x="524.070094" y="293.652522" style="fill: #4682b4; stroke: #4682b4"/>
     <use xlink:href="#me60975f22e" x="565.072229" y="308.431713" style="fill: #4682b4; stroke: #4682b4"/>
     <use xlink:href="#me60975f22e" x="606.074364" y="299.639916" style="fill: #4682b4; stroke: #4682b4"/>
     <use xlink:href="#me60975f22e" x="647.076499" y="295.299395" style="fill: #4682b4; stroke: #4682b4"/>
     <use xlink:href="#me60975f22e" x="688.078634" y="305.295956" style="fill: #4682b4; stroke: #4682b4"/>
     <use xlink:href="#me60975f22e" x="729.080769" y="323.544545" style="fill: #4682b4; stroke: #4682b4"/>
     <use xlink:href="#me60975f22e" x="770.082904" y="320.182938" style="fill: #4682b4; stroke: #4682b4"/>
     <use xlink:href="#me60975f22e" x="811.085039" y="300.852861" style="fill: #4682b4; stroke: #4682b4"/>
    </g>
   </g>
   <g id="line2d_30">
    <path d="M 73.046609 66.26177 
L 114.048744 36.297955 
L 155.050879 68.449696 
L 196.053014 54.625081 
L 237.055149 36.726699 
L 278.057284 78.5222 
L 319.059419 90.024425 
L 360.061554 48.529779 
L 401.063689 82.932516 
L 442.065824 90.56055 
L 483.067959 114.064654 
L 524.070094 106.528895 
L 565.072229 127.39265 
L 606.074364 101.67936 
L 647.076499 98.660559 
L 688.078634 115.179775 
L 729.080769 135.265952 
L 770.082904 133.304724 
L 811.085039 89.033699 
" clip-path="url(#p1d2524dd6a)" style="fill: none; stroke: #ff8c00; stroke-width: 2; stroke-linecap: round"/>
    <defs>
     <path id="me72846595f" d="M -3 3 
L 3 3 
L 3 -3 
L -3 -3 
z
" style="stroke: #ff8c00; stroke-linejoin: miter"/>
    </defs>
    <g clip-path="url(#p1d2524dd6a)">
     <use xlink:href="#me72846595f" x="73.046609" y="66.26177" style="fill: #ff8c00; stroke: #ff8c00; stroke-linejoin: miter"/>
     <use xlink:href="#me72846595f" x="114.048744" y="36.297955" style="fill: #ff8c00; stroke: #ff8c00; stroke-linejoin: miter"/>
     <use xlink:href="#me72846595f" x="155.050879" y="68.449696" style="fill: #ff8c00; stroke: #ff8c00; stroke-linejoin: miter"/>
     <use xlink:href="#me72846595f" x="196.053014" y="54.625081" style="fill: #ff8c00; stroke: #ff8c00; stroke-linejoin: miter"/>
     <use xlink:href="#me72846595f" x="237.055149" y="36.726699" style="fill: #ff8c00; stroke: #ff8c00; stroke-linejoin: miter"/>
     <use xlink:href="#me72846595f" x="278.057284" y="78.5222" style="fill: #ff8c00; stroke: #ff8c00; stroke-linejoin: miter"/>
     <use xlink:href="#me72846595f" x="319.059419" y="90.024425" style="fill: #ff8c00; stroke: #ff8c00; stroke-linejoin: miter"/>
     <use xlink:href="#me72846595f" x="360.061554" y="48.529779" style="fill: #ff8c00; stroke: #ff8c00; stroke-linejoin: miter"/>
     <use xlink:href="#me72846595f" x="401.063689" y="82.932516" style="fill: #ff8c00; stroke: #ff8c00; stroke-linejoin: miter"/>
     <use xlink:href="#me72846595f" x="442.065824" y="90.56055" style="fill: #ff8c00; stroke: #ff8c00; stroke-linejoin: miter"/>
     <use xlink:href="#me72846595f" x="483.067959" y="114.064654" style="fill: #ff8c00; stroke: #ff8c00; stroke-linejoin: miter"/>
     <use xlink:href="#me72846595f" x="524.070094" y="106.528895" style="fill: #ff8c00; stroke: #ff8c00; stroke-linejoin: miter"/>
     <use xlink:href="#me72846595f" x="565.072229" y="127.39265" style="fill: #ff8c00; stroke: #ff8c00; stroke-linejoin: miter"/>
     <use xlink:href="#me72846595f" x="606.074364" y="101.67936" style="fill: #ff8c00; stroke: #ff8c00; stroke-linejoin: miter"/>
     <use xlink:href="#me72846595f" x="647.076499" y="98.660559" style="fill: #ff8c00; stroke: #ff8c00; stroke-linejoin: miter"/>
     <use xlink:href="#me72846595f" x="688.078634" y="115.179775" style="fill: #ff8c00; stroke: #ff8c00; stroke-linejoin: miter"/>
     <use xlink:href="#me72846595f" x="729.080769" y="135.265952" style="fill: #ff8c00; stroke: #ff8c00; stroke-linejoin: miter"/>
     <use xlink:href="#me72846595f" x="770.082904" y="133.304724" style="fill: #ff8c00; stroke: #ff8c00; stroke-linejoin: miter"/>
     <use xlink:href="#me72846595f" x="811.085039" y="89.033699" style="fill: #ff8c00; stroke: #ff8c00; stroke-linejoin: miter"/>
    </g>
   </g>
   <g id="patch_3">
    <path d="M 36.144688 337.906875 
L 36.144688 21.935625 
" style="fill: none; stroke: #cccccc; stroke-linejoin: miter; stroke-linecap: square"/>
   </g>
   <g id="patch_4">
    <path d="M 847.98696 337.906875 
L 847.98696 21.935625 
" style="fill: none; stroke: #cccccc; stroke-linejoin: miter; stroke-linecap: square"/>
   </g>
   <g id="patch_5">
    <path d="M 36.144687 337.906875 
L 847.98696 337.906875 
" style="fill: none; stroke: #cccccc; stroke-linejoin: miter; stroke-linecap: square"/>
   </g>
   <g id="patch_6">
    <path d="M 36.144687 21.935625 
L 847.98696 21.935625 
" style="fill: none; stroke: #cccccc; stroke-linejoin: miter; stroke-linecap: square"/>
   </g>
   <g id="text_8">
    <!-- Air Pollution Trends in Mexico City (2004-2022, 14 Alcaldías) -->
    <g style="fill: #262626" transform="translate(270.913011 15.935625) scale(0.12 -0.12)">
     <defs>
      <path id="Arial-BoldMT-41" d="M 4597 0 
L 3591 0 
L 3191 1041 
L 1359 1041 
L 981 0 
L 0 0 
L 1784 4581 
L 2763 4581 
L 4597 0 
z
M 2894 1813 
L 2263 3513 
L 1644 1813 
L 2894 1813 
z
" transform="scale(0.015625)"/>
      <path id="Arial-BoldMT-69" d="M 459 3769 
L 459 4581 
L 1338 4581 
L 1338 3769 
L 459 3769 
z
M 459 0 
L 459 3319 
L 1338 3319 
L 1338 0 
L 459 0 
z
" transform="scale(0.015625)"/>
      <path id="Arial-BoldMT-72" d="M 1300 0 
L 422 0 
L 422 3319 
L 1238 3319 
L 1238 2847 
Q 1447 3181 1614 3287 
Q 1781 3394 1994 3394 
Q 2294 3394 2572 3228 
L 2300 2463 
Q 2078 2606 1888 2606 
Q 1703 2606 1575 2504 
Q 1447 2403 1373 2137 
Q 1300 1872 1300 1025 
L 1300 0 
z
" transform="scale(0.015625)"/>
      <path id="Arial-BoldMT-20" transform="scale(0.015625)"/>
      <path id="Arial-BoldMT-50" d="M 466 0 
L 466 4581 
L 1950 4581 
Q 2794 4581 3050 4513 
Q 3444 4409 3709 4064 
Q 3975 3719 3975 3172 
Q 3975 2750 3822 2462 
Q 3669 2175 3433 2011 
Q 3197 1847 2953 1794 
Q 2622 1728 1994 1728 
L 1391 1728 
L 1391 0 
L 466 0 
z
M 1391 3806 
L 1391 2506 
L 1897 2506 
Q 2444 2506 2628 2578 
Q 2813 2650 2917 2803 
Q 3022 2956 3022 3159 
Q 3022 3409 2875 3571 
Q 2728 3734 2503 3775 
Q 2338 3806 1838 3806 
L 1391 3806 
z
" transform="scale(0.015625)"/>
      <path id="Arial-BoldMT-6f" d="M 256 1706 
Q 256 2144 472 2553 
Q 688 2963 1083 3178 
Q 1478 3394 1966 3394 
Q 2719 3394 3200 2905 
Q 3681 2416 3681 1669 
Q 3681 916 3195 420 
Q 2709 -75 1972 -75 
Q 1516 -75 1102 131 
Q 688 338 472 736 
Q 256 1134 256 1706 
z
M 1156 1659 
Q 1156 1166 1390 903 
Q 1625 641 1969 641 
Q 2313 641 2545 903 
Q 2778 1166 2778 1666 
Q 2778 2153 2545 2415 
Q 2313 2678 1969 2678 
Q 1625 2678 1390 2415 
Q 1156 2153 1156 1659 
z
" transform="scale(0.015625)"/>
      <path id="Arial-BoldMT-6c" d="M 459 0 
L 459 4581 
L 1338 4581 
L 1338 0 
L 459 0 
z
" transform="scale(0.015625)"/>
      <path id="Arial-BoldMT-75" d="M 2644 0 
L 2644 497 
Q 2463 231 2167 78 
Q 1872 -75 1544 -75 
Q 1209 -75 943 72 
Q 678 219 559 484 
Q 441 750 441 1219 
L 441 3319 
L 1319 3319 
L 1319 1794 
Q 1319 1094 1367 936 
Q 1416 778 1544 686 
Q 1672 594 1869 594 
Q 2094 594 2272 717 
Q 2450 841 2515 1023 
Q 2581 1206 2581 1919 
L 2581 3319 
L 3459 3319 
L 3459 0 
L 2644 0 
z
" transform="scale(0.015625)"/>
      <path id="Arial-BoldMT-74" d="M 1981 3319 
L 1981 2619 
L 1381 2619 
L 1381 1281 
Q 1381 875 1398 808 
Q 1416 741 1477 697 
Q 1538 653 1625 653 
Q 1747 653 1978 738 
L 2053 56 
Q 1747 -75 1359 -75 
Q 1122 -75 931 4 
Q 741 84 652 211 
Q 563 338 528 553 
Q 500 706 500 1172 
L 500 2619 
L 97 2619 
L 97 3319 
L 500 3319 
L 500 3978 
L 1381 4491 
L 1381 3319 
L 1981 3319 
z
" transform="scale(0.015625)"/>
      <path id="Arial-BoldMT-6e" d="M 3478 0 
L 2600 0 
L 2600 1694 
Q 2600 2231 2544 2389 
Q 2488 2547 2361 2634 
Q 2234 2722 2056 2722 
Q 1828 2722 1647 2597 
Q 1466 2472 1398 2265 
Q 1331 2059 1331 1503 
L 1331 0 
L 453 0 
L 453 3319 
L 1269 3319 
L 1269 2831 
Q 1703 3394 2363 3394 
Q 2653 3394 2893 3289 
Q 3134 3184 3257 3021 
Q 3381 2859 3429 2653 
Q 3478 2447 3478 2063 
L 3478 0 
z
" transform="scale(0.015625)"/>
      <path id="Arial-BoldMT-54" d="M 1497 0 
L 1497 3806 
L 138 3806 
L 138 4581 
L 3778 4581 
L 3778 3806 
L 2422 3806 
L 2422 0 
L 1497 0 
z
" transform="scale(0.015625)"/>
      <path id="Arial-BoldMT-65" d="M 2381 1056 
L 3256 909 
Q 3088 428 2723 176 
Q 2359 -75 1813 -75 
Q 947 -75 531 491 
Q 203 944 203 1634 
Q 203 2459 634 2926 
Q 1066 3394 1725 3394 
Q 2466 3394 2894 2905 
Q 3322 2416 3303 1406 
L 1103 1406 
Q 1113 1016 1316 798 
Q 1519 581 1822 581 
Q 2028 581 2168 693 
Q 2309 806 2381 1056 
z
M 2431 1944 
Q 2422 2325 2234 2523 
Q 2047 2722 1778 2722 
Q 1491 2722 1303 2513 
Q 1116 2303 1119 1944 
L 2431 1944 
z
" transform="scale(0.015625)"/>
      <path id="Arial-BoldMT-64" d="M 3503 0 
L 2688 0 
L 2688 488 
Q 2484 203 2207 64 
Q 1931 -75 1650 -75 
Q 1078 -75 670 386 
Q 263 847 263 1672 
Q 263 2516 659 2955 
Q 1056 3394 1663 3394 
Q 2219 3394 2625 2931 
L 2625 4581 
L 3503 4581 
L 3503 0 
z
M 1159 1731 
Q 1159 1200 1306 963 
Q 1519 619 1900 619 
Q 2203 619 2415 876 
Q 2628 1134 2628 1647 
Q 2628 2219 2422 2470 
Q 2216 2722 1894 2722 
Q 1581 2722 1370 2473 
Q 1159 2225 1159 1731 
z
" transform="scale(0.015625)"/>
      <path id="Arial-BoldMT-73" d="M 150 947 
L 1031 1081 
Q 1088 825 1259 692 
Q 1431 559 1741 559 
Q 2081 559 2253 684 
Q 2369 772 2369 919 
Q 2369 1019 2306 1084 
Q 2241 1147 2013 1200 
Q 950 1434 666 1628 
Q 272 1897 272 2375 
Q 272 2806 612 3100 
Q 953 3394 1669 3394 
Q 2350 3394 2681 3172 
Q 3013 2950 3138 2516 
L 2309 2363 
Q 2256 2556 2107 2659 
Q 1959 2763 1684 2763 
Q 1338 2763 1188 2666 
Q 1088 2597 1088 2488 
Q 1088 2394 1175 2328 
Q 1294 2241 1995 2081 
Q 2697 1922 2975 1691 
Q 3250 1456 3250 1038 
Q 3250 581 2869 253 
Q 2488 -75 1741 -75 
Q 1063 -75 667 200 
Q 272 475 150 947 
z
" transform="scale(0.015625)"/>
      <path id="Arial-BoldMT-4d" d="M 453 0 
L 453 4581 
L 1838 4581 
L 2669 1456 
L 3491 4581 
L 4878 4581 
L 4878 0 
L 4019 0 
L 4019 3606 
L 3109 0 
L 2219 0 
L 1313 3606 
L 1313 0 
L 453 0 
z
" transform="scale(0.015625)"/>
      <path id="Arial-BoldMT-78" d="M 38 0 
L 1234 1709 
L 88 3319 
L 1159 3319 
L 1747 2406 
L 2366 3319 
L 3397 3319 
L 2272 1747 
L 3500 0 
L 2422 0 
L 1747 1028 
L 1066 0 
L 38 0 
z
" transform="scale(0.015625)"/>
      <path id="Arial-BoldMT-63" d="M 3353 2338 
L 2488 2181 
Q 2444 2441 2289 2572 
Q 2134 2703 1888 2703 
Q 1559 2703 1364 2476 
Q 1169 2250 1169 1719 
Q 1169 1128 1367 884 
Q 1566 641 1900 641 
Q 2150 641 2309 783 
Q 2469 925 2534 1272 
L 3397 1125 
Q 3263 531 2881 228 
Q 2500 -75 1859 -75 
Q 1131 -75 698 384 
Q 266 844 266 1656 
Q 266 2478 700 2936 
Q 1134 3394 1875 3394 
Q 2481 3394 2839 3133 
Q 3197 2872 3353 2338 
z
" transform="scale(0.015625)"/>
      <path id="Arial-BoldMT-43" d="M 3397 1684 
L 4294 1400 
Q 4088 650 3608 286 
Q 3128 -78 2391 -78 
Q 1478 -78 890 545 
Q 303 1169 303 2250 
Q 303 3394 893 4026 
Q 1484 4659 2447 4659 
Q 3288 4659 3813 4163 
Q 4125 3869 4281 3319 
L 3366 3100 
Q 3284 3456 3026 3662 
Q 2769 3869 2400 3869 
Q 1891 3869 1573 3503 
Q 1256 3138 1256 2319 
Q 1256 1450 1568 1081 
Q 1881 713 2381 713 
Q 2750 713 3015 947 
Q 3281 1181 3397 1684 
z
" transform="scale(0.015625)"/>
      <path id="Arial-BoldMT-79" d="M 44 3319 
L 978 3319 
L 1772 963 
L 2547 3319 
L 3456 3319 
L 2284 125 
L 2075 -453 
Q 1959 -744 1854 -897 
Q 1750 -1050 1614 -1145 
Q 1478 -1241 1279 -1294 
Q 1081 -1347 831 -1347 
Q 578 -1347 334 -1294 
L 256 -606 
Q 463 -647 628 -647 
Q 934 -647 1081 -467 
Q 1228 -288 1306 -9 
L 44 3319 
z
" transform="scale(0.015625)"/>
      <path id="Arial-BoldMT-28" d="M 1916 -1347 
L 1313 -1347 
Q 834 -625 584 153 
Q 334 931 334 1659 
Q 334 2563 644 3369 
Q 913 4069 1325 4659 
L 1925 4659 
Q 1497 3713 1336 3048 
Q 1175 2384 1175 1641 
Q 1175 1128 1270 590 
Q 1366 53 1531 -431 
Q 1641 -750 1916 -1347 
z
" transform="scale(0.015625)"/>
      <path id="Arial-BoldMT-32" d="M 3238 816 
L 3238 0 
L 159 0 
Q 209 463 459 877 
Q 709 1291 1447 1975 
Q 2041 2528 2175 2725 
Q 2356 2997 2356 3263 
Q 2356 3556 2198 3714 
Q 2041 3872 1763 3872 
Q 1488 3872 1325 3706 
Q 1163 3541 1138 3156 
L 263 3244 
Q 341 3969 753 4284 
Q 1166 4600 1784 4600 
Q 2463 4600 2850 4234 
Q 3238 3869 3238 3325 
Q 3238 3016 3127 2736 
Q 3016 2456 2775 2150 
Q 2616 1947 2200 1565 
Q 1784 1184 1673 1059 
Q 1563 934 1494 816 
L 3238 816 
z
" transform="scale(0.015625)"/>
      <path id="Arial-BoldMT-30" d="M 1756 4600 
Q 2422 4600 2797 4125 
Q 3244 3563 3244 2259 
Q 3244 959 2794 391 
Q 2422 -78 1756 -78 
Q 1088 -78 678 436 
Q 269 950 269 2269 
Q 269 3563 719 4131 
Q 1091 4600 1756 4600 
z
M 1756 3872 
Q 1597 3872 1472 3770 
Q 1347 3669 1278 3406 
Q 1188 3066 1188 2259 
Q 1188 1453 1269 1151 
Q 1350 850 1473 750 
Q 1597 650 1756 650 
Q 1916 650 2041 751 
Q 2166 853 2234 1116 
Q 2325 1453 2325 2259 
Q 2325 3066 2244 3367 
Q 2163 3669 2039 3770 
Q 1916 3872 1756 3872 
z
" transform="scale(0.015625)"/>
      <path id="Arial-BoldMT-34" d="M 1994 0 
L 1994 922 
L 119 922 
L 119 1691 
L 2106 4600 
L 2844 4600 
L 2844 1694 
L 3413 1694 
L 3413 922 
L 2844 922 
L 2844 0 
L 1994 0 
z
M 1994 1694 
L 1994 3259 
L 941 1694 
L 1994 1694 
z
" transform="scale(0.015625)"/>
      <path id="Arial-BoldMT-2d" d="M 359 1222 
L 359 2100 
L 2084 2100 
L 2084 1222 
L 359 1222 
z
" transform="scale(0.015625)"/>
      <path id="Arial-BoldMT-2c" d="M 438 878 
L 1316 878 
L 1316 250 
Q 1316 -131 1250 -351 
Q 1184 -572 1001 -747 
Q 819 -922 538 -1022 
L 366 -659 
Q 631 -572 743 -419 
Q 856 -266 863 0 
L 438 0 
L 438 878 
z
" transform="scale(0.015625)"/>
      <path id="Arial-BoldMT-31" d="M 2519 0 
L 1641 0 
L 1641 3309 
Q 1159 2859 506 2644 
L 506 3441 
Q 850 3553 1253 3867 
Q 1656 4181 1806 4600 
L 2519 4600 
L 2519 0 
z
" transform="scale(0.015625)"/>
      <path id="Arial-BoldMT-61" d="M 1116 2306 
L 319 2450 
Q 453 2931 781 3162 
Q 1109 3394 1756 3394 
Q 2344 3394 2631 3255 
Q 2919 3116 3036 2902 
Q 3153 2688 3153 2116 
L 3144 1091 
Q 3144 653 3186 445 
Q 3228 238 3344 0 
L 2475 0 
Q 2441 88 2391 259 
Q 2369 338 2359 363 
Q 2134 144 1878 34 
Q 1622 -75 1331 -75 
Q 819 -75 523 203 
Q 228 481 228 906 
Q 228 1188 362 1408 
Q 497 1628 739 1745 
Q 981 1863 1438 1950 
Q 2053 2066 2291 2166 
L 2291 2253 
Q 2291 2506 2166 2614 
Q 2041 2722 1694 2722 
Q 1459 2722 1328 2630 
Q 1197 2538 1116 2306 
z
M 2291 1594 
Q 2122 1538 1756 1459 
Q 1391 1381 1278 1306 
Q 1106 1184 1106 997 
Q 1106 813 1243 678 
Q 1381 544 1594 544 
Q 1831 544 2047 700 
Q 2206 819 2256 991 
Q 2291 1103 2291 1419 
L 2291 1594 
z
" transform="scale(0.015625)"/>
      <path id="Arial-BoldMT-ed" d="M 459 0 
L 459 3319 
L 1338 3319 
L 1338 0 
L 459 0 
z
M 394 3725 
L 825 4659 
L 1809 4659 
L 950 3725 
L 394 3725 
z
" transform="scale(0.015625)"/>
      <path id="Arial-BoldMT-29" d="M 216 -1347 
Q 475 -791 581 -494 
Q 688 -197 778 190 
Q 869 578 912 926 
Q 956 1275 956 1641 
Q 956 2384 797 3048 
Q 638 3713 209 4659 
L 806 4659 
Q 1278 3988 1539 3234 
Q 1800 2481 1800 1706 
Q 1800 1053 1594 306 
Q 1359 -531 822 -1347 
L 216 -1347 
z
" transform="scale(0.015625)"/>
     </defs>
     <use xlink:href="#Arial-BoldMT-41"/>
     <use xlink:href="#Arial-BoldMT-69" x="72.216797"/>
     <use xlink:href="#Arial-BoldMT-72" x="100"/>
     <use xlink:href="#Arial-BoldMT-20" x="138.916016"/>
     <use xlink:href="#Arial-BoldMT-50" x="166.699219"/>
     <use xlink:href="#Arial-BoldMT-6f" x="233.398438"/>
     <use xlink:href="#Arial-BoldMT-6c" x="294.482422"/>
     <use xlink:href="#Arial-BoldMT-6c" x="322.265625"/>
     <use xlink:href="#Arial-BoldMT-75" x="350.048828"/>
     <use xlink:href="#Arial-BoldMT-74" x="411.132812"/>
     <use xlink:href="#Arial-BoldMT-69" x="444.433594"/>
     <use xlink:href="#Arial-BoldMT-6f" x="472.216797"/>
     <use xlink:href="#Arial-BoldMT-6e" x="533.300781"/>
     <use xlink:href="#Arial-BoldMT-20" x="594.384766"/>
     <use xlink:href="#Arial-BoldMT-54" x="622.167969"/>
     <use xlink:href="#Arial-BoldMT-72" x="677.751953"/>
     <use xlink:href="#Arial-BoldMT-65" x="716.667969"/>
     <use xlink:href="#Arial-BoldMT-6e" x="772.283203"/>
     <use xlink:href="#Arial-BoldMT-64" x="833.367188"/>
     <use xlink:href="#Arial-BoldMT-73" x="894.451172"/>
     <use xlink:href="#Arial-BoldMT-20" x="950.066406"/>
     <use xlink:href="#Arial-BoldMT-69" x="977.849609"/>
     <use xlink:href="#Arial-BoldMT-6e" x="1005.632812"/>
     <use xlink:href="#Arial-BoldMT-20" x="1066.716797"/>
     <use xlink:href="#Arial-BoldMT-4d" x="1094.5"/>
     <use xlink:href="#Arial-BoldMT-65" x="1177.800781"/>
     <use xlink:href="#Arial-BoldMT-78" x="1233.416016"/>
     <use xlink:href="#Arial-BoldMT-69" x="1289.03125"/>
     <use xlink:href="#Arial-BoldMT-63" x="1316.814453"/>
     <use xlink:href="#Arial-BoldMT-6f" x="1372.429688"/>
     <use xlink:href="#Arial-BoldMT-20" x="1433.513672"/>
     <use xlink:href="#Arial-BoldMT-43" x="1461.296875"/>
     <use xlink:href="#Arial-BoldMT-69" x="1533.513672"/>
     <use xlink:href="#Arial-BoldMT-74" x="1561.296875"/>
     <use xlink:href="#Arial-BoldMT-79" x="1594.597656"/>
     <use xlink:href="#Arial-BoldMT-20" x="1650.212891"/>
     <use xlink:href="#Arial-BoldMT-28" x="1677.996094"/>
     <use xlink:href="#Arial-BoldMT-32" x="1711.296875"/>
     <use xlink:href="#Arial-BoldMT-30" x="1766.912109"/>
     <use xlink:href="#Arial-BoldMT-30" x="1822.527344"/>
     <use xlink:href="#Arial-BoldMT-34" x="1878.142578"/>
     <use xlink:href="#Arial-BoldMT-2d" x="1933.757812"/>
     <use xlink:href="#Arial-BoldMT-32" x="1967.058594"/>
     <use xlink:href="#Arial-BoldMT-30" x="2022.673828"/>
     <use xlink:href="#Arial-BoldMT-32" x="2078.289062"/>
     <use xlink:href="#Arial-BoldMT-32" x="2133.904297"/>
     <use xlink:href="#Arial-BoldMT-2c" x="2189.519531"/>
     <use xlink:href="#Arial-BoldMT-20" x="2217.302734"/>
     <use xlink:href="#Arial-BoldMT-31" x="2245.085938"/>
     <use xlink:href="#Arial-BoldMT-34" x="2300.701172"/>
     <use xlink:href="#Arial-BoldMT-20" x="2356.316406"/>
     <use xlink:href="#Arial-BoldMT-41" x="2380.349609"/>
     <use xlink:href="#Arial-BoldMT-6c" x="2452.566406"/>
     <use xlink:href="#Arial-BoldMT-63" x="2480.349609"/>
     <use xlink:href="#Arial-BoldMT-61" x="2535.964844"/>
     <use xlink:href="#Arial-BoldMT-6c" x="2591.580078"/>
     <use xlink:href="#Arial-BoldMT-64" x="2619.363281"/>
     <use xlink:href="#Arial-BoldMT-ed" x="2680.447266"/>
     <use xlink:href="#Arial-BoldMT-61" x="2708.230469"/>
     <use xlink:href="#Arial-BoldMT-73" x="2763.845703"/>
     <use xlink:href="#Arial-BoldMT-29" x="2819.460938"/>
    </g>
   </g>
   <g id="legend_1">
    <g id="line2d_31">
     <path d="M 782.08696 34.593438 
L 792.08696 34.593438 
L 802.08696 34.593438 
" style="fill: none; stroke: #4682b4; stroke-width: 2; stroke-linecap: round"/>
     <g>
      <use xlink:href="#me60975f22e" x="792.08696" y="34.593438" style="fill: #4682b4; stroke: #4682b4"/>
     </g>
    </g>
    <g id="text_9">
     <!-- PM2.5 -->
     <g style="fill: #262626" transform="translate(810.08696 38.093438) scale(0.1 -0.1)">
      <defs>
       <path id="ArialMT-50" d="M 494 0 
L 494 4581 
L 2222 4581 
Q 2678 4581 2919 4538 
Q 3256 4481 3484 4323 
Q 3713 4166 3852 3881 
Q 3991 3597 3991 3256 
Q 3991 2672 3619 2267 
Q 3247 1863 2275 1863 
L 1100 1863 
L 1100 0 
L 494 0 
z
M 1100 2403 
L 2284 2403 
Q 2872 2403 3119 2622 
Q 3366 2841 3366 3238 
Q 3366 3525 3220 3729 
Q 3075 3934 2838 4000 
Q 2684 4041 2272 4041 
L 1100 4041 
L 1100 2403 
z
" transform="scale(0.015625)"/>
       <path id="ArialMT-4d" d="M 475 0 
L 475 4581 
L 1388 4581 
L 2472 1338 
Q 2622 884 2691 659 
Q 2769 909 2934 1394 
L 4031 4581 
L 4847 4581 
L 4847 0 
L 4263 0 
L 4263 3834 
L 2931 0 
L 2384 0 
L 1059 3900 
L 1059 0 
L 475 0 
z
" transform="scale(0.015625)"/>
       <path id="ArialMT-2e" d="M 581 0 
L 581 641 
L 1222 641 
L 1222 0 
L 581 0 
z
" transform="scale(0.015625)"/>
      </defs>
      <use xlink:href="#ArialMT-50"/>
      <use xlink:href="#ArialMT-4d" x="66.699219"/>
      <use xlink:href="#ArialMT-32" x="150"/>
      <use xlink:href="#ArialMT-2e" x="205.615234"/>
      <use xlink:href="#ArialMT-35" x="233.398438"/>
     </g>
    </g>
    <g id="line2d_32">
     <path d="M 782.08696 48.73875 
L 792.08696 48.73875 
L 802.08696 48.73875 
" style="fill: none; stroke: #ff8c00; stroke-width: 2; stroke-linecap: round"/>
     <g>
      <use xlink:href="#me72846595f" x="792.08696" y="48.73875" style="fill: #ff8c00; stroke: #ff8c00; stroke-linejoin: miter"/>
     </g>
    </g>
    <g id="text_10">
     <!-- PM10 -->
     <g style="fill: #262626" transform="translate(810.08696 52.23875) scale(0.1 -0.1)">
      <defs>
       <path id="ArialMT-31" d="M 2384 0 
L 1822 0 
L 1822 3584 
Q 1619 3391 1289 3197 
Q 959 3003 697 2906 
L 697 3450 
Q 1169 3672 1522 3987 
Q 1875 4303 2022 4600 
L 2384 4600 
L 2384 0 
z
" transform="scale(0.015625)"/>
      </defs>
      <use xlink:href="#ArialMT-50"/>
      <use xlink:href="#ArialMT-4d" x="66.699219"/>
      <use xlink:href="#ArialMT-31" x="150"/>
      <use xlink:href="#ArialMT-30" x="205.615234"/>
     </g>
    </g>
   </g>
  </g>
  <g id="axes_2">
   <g id="patch_7">
    <path d="M 36.144688 679.396875 
L 847.98696 679.396875 
L 847.98696 363.425625 
L 36.144688 363.425625 
z
" style="fill: #ffffff"/>
   </g>
   <g id="matplotlib.axis_3">
    <g id="xtick_9">
     <g id="line2d_33">
      <path d="M 114.048744 679.396875 
L 114.048744 363.425625 
" clip-path="url(#p2a81a87be4)" style="fill: none; stroke: #cccccc; stroke-opacity: 0.3; stroke-width: 0.8; stroke-linecap: round"/>
     </g>
     <g id="line2d_34"/>
     <g id="text_11">
      <!-- 2005.0 -->
      <g style="fill: #262626" transform="translate(98.757338 690.054688) scale(0.1 -0.1)">
       <use xlink:href="#ArialMT-32"/>
       <use xlink:href="#ArialMT-30" x="55.615234"/>
       <use xlink:href="#ArialMT-30" x="111.230469"/>
       <use xlink:href="#ArialMT-35" x="166.845703"/>
       <use xlink:href="#ArialMT-2e" x="222.460938"/>
       <use xlink:href="#ArialMT-30" x="250.244141"/>
      </g>
     </g>
    </g>
    <g id="xtick_10">
     <g id="line2d_35">
      <path d="M 216.554081 679.396875 
L 216.554081 363.425625 
" clip-path="url(#p2a81a87be4)" style="fill: none; stroke: #cccccc; stroke-opacity: 0.3; stroke-width: 0.8; stroke-linecap: round"/>
     </g>
     <g id="line2d_36"/>
     <g id="text_12">
      <!-- 2007.5 -->
      <g style="fill: #262626" transform="translate(201.262675 690.054688) scale(0.1 -0.1)">
       <defs>
        <path id="ArialMT-37" d="M 303 3981 
L 303 4522 
L 3269 4522 
L 3269 4084 
Q 2831 3619 2401 2847 
Q 1972 2075 1738 1259 
Q 1569 684 1522 0 
L 944 0 
Q 953 541 1156 1306 
Q 1359 2072 1739 2783 
Q 2119 3494 2547 3981 
L 303 3981 
z
" transform="scale(0.015625)"/>
       </defs>
       <use xlink:href="#ArialMT-32"/>
       <use xlink:href="#ArialMT-30" x="55.615234"/>
       <use xlink:href="#ArialMT-30" x="111.230469"/>
       <use xlink:href="#ArialMT-37" x="166.845703"/>
       <use xlink:href="#ArialMT-2e" x="222.460938"/>
       <use xlink:href="#ArialMT-35" x="250.244141"/>
      </g>
     </g>
    </g>
    <g id="xtick_11">
     <g id="line2d_37">
      <path d="M 319.059419 679.396875 
L 319.059419 363.425625 
" clip-path="url(#p2a81a87be4)" style="fill: none; stroke: #cccccc; stroke-opacity: 0.3; stroke-width: 0.8; stroke-linecap: round"/>
     </g>
     <g id="line2d_38"/>
     <g id="text_13">
      <!-- 2010.0 -->
      <g style="fill: #262626" transform="translate(303.768013 690.054688) scale(0.1 -0.1)">
       <use xlink:href="#ArialMT-32"/>
       <use xlink:href="#ArialMT-30" x="55.615234"/>
       <use xlink:href="#ArialMT-31" x="111.230469"/>
       <use xlink:href="#ArialMT-30" x="166.845703"/>
       <use xlink:href="#ArialMT-2e" x="222.460938"/>
       <use xlink:href="#ArialMT-30" x="250.244141"/>
      </g>
     </g>
    </g>
    <g id="xtick_12">
     <g id="line2d_39">
      <path d="M 421.564756 679.396875 
L 421.564756 363.425625 
" clip-path="url(#p2a81a87be4)" style="fill: none; stroke: #cccccc; stroke-opacity: 0.3; stroke-width: 0.8; stroke-linecap: round"/>
     </g>
     <g id="line2d_40"/>
     <g id="text_14">
      <!-- 2012.5 -->
      <g style="fill: #262626" transform="translate(406.27335 690.054688) scale(0.1 -0.1)">
       <use xlink:href="#ArialMT-32"/>
       <use xlink:href="#ArialMT-30" x="55.615234"/>
       <use xlink:href="#ArialMT-31" x="111.230469"/>
       <use xlink:href="#ArialMT-32" x="166.845703"/>
       <use xlink:href="#ArialMT-2e" x="222.460938"/>
       <use xlink:href="#ArialMT-35" x="250.244141"/>
      </g>
     </g>
    </g>
    <g id="xtick_13">
     <g id="line2d_41">
      <path d="M 524.070094 679.396875 
L 524.070094 363.425625 
" clip-path="url(#p2a81a87be4)" style="fill: none; stroke: #cccccc; stroke-opacity: 0.3; stroke-width: 0.8; stroke-linecap: round"/>
     </g>
     <g id="line2d_42"/>
     <g id="text_15">
      <!-- 2015.0 -->
      <g style="fill: #262626" transform="translate(508.778688 690.054688) scale(0.1 -0.1)">
       <use xlink:href="#ArialMT-32"/>
       <use xlink:href="#ArialMT-30" x="55.615234"/>
       <use xlink:href="#ArialMT-31" x="111.230469"/>
       <use xlink:href="#ArialMT-35" x="166.845703"/>
       <use xlink:href="#ArialMT-2e" x="222.460938"/>
       <use xlink:href="#ArialMT-30" x="250.244141"/>
      </g>
     </g>
    </g>
    <g id="xtick_14">
     <g id="line2d_43">
      <path d="M 626.575431 679.396875 
L 626.575431 363.425625 
" clip-path="url(#p2a81a87be4)" style="fill: none; stroke: #cccccc; stroke-opacity: 0.3; stroke-width: 0.8; stroke-linecap: round"/>
     </g>
     <g id="line2d_44"/>
     <g id="text_16">
      <!-- 2017.5 -->
      <g style="fill: #262626" transform="translate(611.284025 690.054688) scale(0.1 -0.1)">
       <use xlink:href="#ArialMT-32"/>
       <use xlink:href="#ArialMT-30" x="55.615234"/>
       <use xlink:href="#ArialMT-31" x="111.230469"/>
       <use xlink:href="#ArialMT-37" x="166.845703"/>
       <use xlink:href="#ArialMT-2e" x="222.460938"/>
       <use xlink:href="#ArialMT-35" x="250.244141"/>
      </g>
     </g>
    </g>
    <g id="xtick_15">
     <g id="line2d_45">
      <path d="M 729.080769 679.396875 
L 729.080769 363.425625 
" clip-path="url(#p2a81a87be4)" style="fill: none; stroke: #cccccc; stroke-opacity: 0.3; stroke-width: 0.8; stroke-linecap: round"/>
     </g>
     <g id="line2d_46"/>
     <g id="text_17">
      <!-- 2020.0 -->
      <g style="fill: #262626" transform="translate(713.789363 690.054688) scale(0.1 -0.1)">
       <use xlink:href="#ArialMT-32"/>
       <use xlink:href="#ArialMT-30" x="55.615234"/>
       <use xlink:href="#ArialMT-32" x="111.230469"/>
       <use xlink:href="#ArialMT-30" x="166.845703"/>
       <use xlink:href="#ArialMT-2e" x="222.460938"/>
       <use xlink:href="#ArialMT-30" x="250.244141"/>
      </g>
     </g>
    </g>
    <g id="xtick_16">
     <g id="line2d_47">
      <path d="M 831.586106 679.396875 
L 831.586106 363.425625 
" clip-path="url(#p2a81a87be4)" style="fill: none; stroke: #cccccc; stroke-opacity: 0.3; stroke-width: 0.8; stroke-linecap: round"/>
     </g>
     <g id="line2d_48"/>
     <g id="text_18">
      <!-- 2022.5 -->
      <g style="fill: #262626" transform="translate(816.2947 690.054688) scale(0.1 -0.1)">
       <use xlink:href="#ArialMT-32"/>
       <use xlink:href="#ArialMT-30" x="55.615234"/>
       <use xlink:href="#ArialMT-32" x="111.230469"/>
       <use xlink:href="#ArialMT-32" x="166.845703"/>
       <use xlink:href="#ArialMT-2e" x="222.460938"/>
       <use xlink:href="#ArialMT-35" x="250.244141"/>
      </g>
     </g>
    </g>
    <g id="text_19">
     <!-- Year -->
     <g style="fill: #262626" transform="translate(430.950668 703.915781) scale(0.11 -0.11)">
      <defs>
       <path id="ArialMT-59" d="M 1784 0 
L 1784 1941 
L 19 4581 
L 756 4581 
L 1659 3200 
Q 1909 2813 2125 2425 
Q 2331 2784 2625 3234 
L 3513 4581 
L 4219 4581 
L 2391 1941 
L 2391 0 
L 1784 0 
z
" transform="scale(0.015625)"/>
      </defs>
      <use xlink:href="#ArialMT-59"/>
      <use xlink:href="#ArialMT-65" x="57.574219"/>
      <use xlink:href="#ArialMT-61" x="113.189453"/>
      <use xlink:href="#ArialMT-72" x="168.804688"/>
     </g>
    </g>
   </g>
   <g id="matplotlib.axis_4">
    <g id="ytick_7">
     <g id="line2d_49">
      <path d="M 36.144688 673.461857 
L 847.98696 673.461857 
" clip-path="url(#p2a81a87be4)" style="fill: none; stroke: #cccccc; stroke-opacity: 0.3; stroke-width: 0.8; stroke-linecap: round"/>
     </g>
     <g id="line2d_50"/>
     <g id="text_20">
      <!-- 6 -->
      <g style="fill: #262626" transform="translate(27.08375 677.040763) scale(0.1 -0.1)">
       <defs>
        <path id="ArialMT-36" d="M 3184 3459 
L 2625 3416 
Q 2550 3747 2413 3897 
Q 2184 4138 1850 4138 
Q 1581 4138 1378 3988 
Q 1113 3794 959 3422 
Q 806 3050 800 2363 
Q 1003 2672 1297 2822 
Q 1591 2972 1913 2972 
Q 2475 2972 2870 2558 
Q 3266 2144 3266 1488 
Q 3266 1056 3080 686 
Q 2894 316 2569 119 
Q 2244 -78 1831 -78 
Q 1128 -78 684 439 
Q 241 956 241 2144 
Q 241 3472 731 4075 
Q 1159 4600 1884 4600 
Q 2425 4600 2770 4297 
Q 3116 3994 3184 3459 
z
M 888 1484 
Q 888 1194 1011 928 
Q 1134 663 1356 523 
Q 1578 384 1822 384 
Q 2178 384 2434 671 
Q 2691 959 2691 1453 
Q 2691 1928 2437 2201 
Q 2184 2475 1800 2475 
Q 1419 2475 1153 2201 
Q 888 1928 888 1484 
z
" transform="scale(0.015625)"/>
       </defs>
       <use xlink:href="#ArialMT-36"/>
      </g>
     </g>
    </g>
    <g id="ytick_8">
     <g id="line2d_51">
      <path d="M 36.144688 631.623877 
L 847.98696 631.623877 
" clip-path="url(#p2a81a87be4)" style="fill: none; stroke: #cccccc; stroke-opacity: 0.3; stroke-width: 0.8; stroke-linecap: round"/>
     </g>
     <g id="line2d_52"/>
     <g id="text_21">
      <!-- 8 -->
      <g style="fill: #262626" transform="translate(27.08375 635.202783) scale(0.1 -0.1)">
       <defs>
        <path id="ArialMT-38" d="M 1131 2484 
Q 781 2613 612 2850 
Q 444 3088 444 3419 
Q 444 3919 803 4259 
Q 1163 4600 1759 4600 
Q 2359 4600 2725 4251 
Q 3091 3903 3091 3403 
Q 3091 3084 2923 2848 
Q 2756 2613 2416 2484 
Q 2838 2347 3058 2040 
Q 3278 1734 3278 1309 
Q 3278 722 2862 322 
Q 2447 -78 1769 -78 
Q 1091 -78 675 323 
Q 259 725 259 1325 
Q 259 1772 486 2073 
Q 713 2375 1131 2484 
z
M 1019 3438 
Q 1019 3113 1228 2906 
Q 1438 2700 1772 2700 
Q 2097 2700 2305 2904 
Q 2513 3109 2513 3406 
Q 2513 3716 2298 3927 
Q 2084 4138 1766 4138 
Q 1444 4138 1231 3931 
Q 1019 3725 1019 3438 
z
M 838 1322 
Q 838 1081 952 856 
Q 1066 631 1291 507 
Q 1516 384 1775 384 
Q 2178 384 2440 643 
Q 2703 903 2703 1303 
Q 2703 1709 2433 1975 
Q 2163 2241 1756 2241 
Q 1359 2241 1098 1978 
Q 838 1716 838 1322 
z
" transform="scale(0.015625)"/>
       </defs>
       <use xlink:href="#ArialMT-38"/>
      </g>
     </g>
    </g>
    <g id="ytick_9">
     <g id="line2d_53">
      <path d="M 36.144688 589.785897 
L 847.98696 589.785897 
" clip-path="url(#p2a81a87be4)" style="fill: none; stroke: #cccccc; stroke-opacity: 0.3; stroke-width: 0.8; stroke-linecap: round"/>
     </g>
     <g id="line2d_54"/>
     <g id="text_22">
      <!-- 10 -->
      <g style="fill: #262626" transform="translate(21.522813 593.364803) scale(0.1 -0.1)">
       <use xlink:href="#ArialMT-31"/>
       <use xlink:href="#ArialMT-30" x="55.615234"/>
      </g>
     </g>
    </g>
    <g id="ytick_10">
     <g id="line2d_55">
      <path d="M 36.144688 547.947917 
L 847.98696 547.947917 
" clip-path="url(#p2a81a87be4)" style="fill: none; stroke: #cccccc; stroke-opacity: 0.3; stroke-width: 0.8; stroke-linecap: round"/>
     </g>
     <g id="line2d_56"/>
     <g id="text_23">
      <!-- 12 -->
      <g style="fill: #262626" transform="translate(21.522813 551.526823) scale(0.1 -0.1)">
       <use xlink:href="#ArialMT-31"/>
       <use xlink:href="#ArialMT-32" x="55.615234"/>
      </g>
     </g>
    </g>
    <g id="ytick_11">
     <g id="line2d_57">
      <path d="M 36.144688 506.109936 
L 847.98696 506.109936 
" clip-path="url(#p2a81a87be4)" style="fill: none; stroke: #cccccc; stroke-opacity: 0.3; stroke-width: 0.8; stroke-linecap: round"/>
     </g>
     <g id="line2d_58"/>
     <g id="text_24">
      <!-- 14 -->
      <g style="fill: #262626" transform="translate(21.522813 509.688843) scale(0.1 -0.1)">
       <use xlink:href="#ArialMT-31"/>
       <use xlink:href="#ArialMT-34" x="55.615234"/>
      </g>
     </g>
    </g>
    <g id="ytick_12">
     <g id="line2d_59">
      <path d="M 36.144688 464.271956 
L 847.98696 464.271956 
" clip-path="url(#p2a81a87be4)" style="fill: none; stroke: #cccccc; stroke-opacity: 0.3; stroke-width: 0.8; stroke-linecap: round"/>
     </g>
     <g id="line2d_60"/>
     <g id="text_25">
      <!-- 16 -->
      <g style="fill: #262626" transform="translate(21.522813 467.850862) scale(0.1 -0.1)">
       <use xlink:href="#ArialMT-31"/>
       <use xlink:href="#ArialMT-36" x="55.615234"/>
      </g>
     </g>
    </g>
    <g id="ytick_13">
     <g id="line2d_61">
      <path d="M 36.144688 422.433976 
L 847.98696 422.433976 
" clip-path="url(#p2a81a87be4)" style="fill: none; stroke: #cccccc; stroke-opacity: 0.3; stroke-width: 0.8; stroke-linecap: round"/>
     </g>
     <g id="line2d_62"/>
     <g id="text_26">
      <!-- 18 -->
      <g style="fill: #262626" transform="translate(21.522813 426.012882) scale(0.1 -0.1)">
       <use xlink:href="#ArialMT-31"/>
       <use xlink:href="#ArialMT-38" x="55.615234"/>
      </g>
     </g>
    </g>
    <g id="ytick_14">
     <g id="line2d_63">
      <path d="M 36.144688 380.595996 
L 847.98696 380.595996 
" clip-path="url(#p2a81a87be4)" style="fill: none; stroke: #cccccc; stroke-opacity: 0.3; stroke-width: 0.8; stroke-linecap: round"/>
     </g>
     <g id="line2d_64"/>
     <g id="text_27">
      <!-- 20 -->
      <g style="fill: #262626" transform="translate(21.522813 384.174902) scale(0.1 -0.1)">
       <use xlink:href="#ArialMT-32"/>
       <use xlink:href="#ArialMT-30" x="55.615234"/>
      </g>
     </g>
    </g>
    <g id="text_28">
     <!-- Mortality Rate (per 100,000) -->
     <g style="fill: #262626" transform="translate(15.207656 589.881953) rotate(-90) scale(0.11 -0.11)">
      <defs>
       <path id="ArialMT-6c" d="M 409 0 
L 409 4581 
L 972 4581 
L 972 0 
L 409 0 
z
" transform="scale(0.015625)"/>
       <path id="ArialMT-79" d="M 397 -1278 
L 334 -750 
Q 519 -800 656 -800 
Q 844 -800 956 -737 
Q 1069 -675 1141 -563 
Q 1194 -478 1313 -144 
Q 1328 -97 1363 -6 
L 103 3319 
L 709 3319 
L 1400 1397 
Q 1534 1031 1641 628 
Q 1738 1016 1872 1384 
L 2581 3319 
L 3144 3319 
L 1881 -56 
Q 1678 -603 1566 -809 
Q 1416 -1088 1222 -1217 
Q 1028 -1347 759 -1347 
Q 597 -1347 397 -1278 
z
" transform="scale(0.015625)"/>
       <path id="ArialMT-52" d="M 503 0 
L 503 4581 
L 2534 4581 
Q 3147 4581 3465 4457 
Q 3784 4334 3975 4021 
Q 4166 3709 4166 3331 
Q 4166 2844 3850 2509 
Q 3534 2175 2875 2084 
Q 3116 1969 3241 1856 
Q 3506 1613 3744 1247 
L 4541 0 
L 3778 0 
L 3172 953 
Q 2906 1366 2734 1584 
Q 2563 1803 2427 1890 
Q 2291 1978 2150 2013 
Q 2047 2034 1813 2034 
L 1109 2034 
L 1109 0 
L 503 0 
z
M 1109 2559 
L 2413 2559 
Q 2828 2559 3062 2645 
Q 3297 2731 3419 2920 
Q 3541 3109 3541 3331 
Q 3541 3656 3305 3865 
Q 3069 4075 2559 4075 
L 1109 4075 
L 1109 2559 
z
" transform="scale(0.015625)"/>
       <path id="ArialMT-70" d="M 422 -1272 
L 422 3319 
L 934 3319 
L 934 2888 
Q 1116 3141 1344 3267 
Q 1572 3394 1897 3394 
Q 2322 3394 2647 3175 
Q 2972 2956 3137 2557 
Q 3303 2159 3303 1684 
Q 3303 1175 3120 767 
Q 2938 359 2589 142 
Q 2241 -75 1856 -75 
Q 1575 -75 1351 44 
Q 1128 163 984 344 
L 984 -1272 
L 422 -1272 
z
M 931 1641 
Q 931 1000 1190 694 
Q 1450 388 1819 388 
Q 2194 388 2461 705 
Q 2728 1022 2728 1688 
Q 2728 2322 2467 2637 
Q 2206 2953 1844 2953 
Q 1484 2953 1207 2617 
Q 931 2281 931 1641 
z
" transform="scale(0.015625)"/>
       <path id="ArialMT-2c" d="M 569 0 
L 569 641 
L 1209 641 
L 1209 0 
Q 1209 -353 1084 -570 
Q 959 -788 688 -906 
L 531 -666 
Q 709 -588 793 -436 
Q 878 -284 888 0 
L 569 0 
z
" transform="scale(0.015625)"/>
      </defs>
      <use xlink:href="#ArialMT-4d"/>
      <use xlink:href="#ArialMT-6f" x="83.300781"/>
      <use xlink:href="#ArialMT-72" x="138.916016"/>
      <use xlink:href="#ArialMT-74" x="172.216797"/>
      <use xlink:href="#ArialMT-61" x="200"/>
      <use xlink:href="#ArialMT-6c" x="255.615234"/>
      <use xlink:href="#ArialMT-69" x="277.832031"/>
      <use xlink:href="#ArialMT-74" x="300.048828"/>
      <use xlink:href="#ArialMT-79" x="327.832031"/>
      <use xlink:href="#ArialMT-20" x="377.832031"/>
      <use xlink:href="#ArialMT-52" x="405.615234"/>
      <use xlink:href="#ArialMT-61" x="477.832031"/>
      <use xlink:href="#ArialMT-74" x="533.447266"/>
      <use xlink:href="#ArialMT-65" x="561.230469"/>
      <use xlink:href="#ArialMT-20" x="616.845703"/>
      <use xlink:href="#ArialMT-28" x="644.628906"/>
      <use xlink:href="#ArialMT-70" x="677.929688"/>
      <use xlink:href="#ArialMT-65" x="733.544922"/>
      <use xlink:href="#ArialMT-72" x="789.160156"/>
      <use xlink:href="#ArialMT-20" x="822.460938"/>
      <use xlink:href="#ArialMT-31" x="850.244141"/>
      <use xlink:href="#ArialMT-30" x="905.859375"/>
      <use xlink:href="#ArialMT-30" x="961.474609"/>
      <use xlink:href="#ArialMT-2c" x="1017.089844"/>
      <use xlink:href="#ArialMT-30" x="1044.873047"/>
      <use xlink:href="#ArialMT-30" x="1100.488281"/>
      <use xlink:href="#ArialMT-30" x="1156.103516"/>
      <use xlink:href="#ArialMT-29" x="1211.71875"/>
     </g>
    </g>
   </g>
   <g id="line2d_65">
    <path d="M 73.046609 632.537093 
L 114.048744 646.596104 
L 155.050879 651.752292 
L 196.053014 665.034545 
L 237.055149 661.059872 
L 278.057284 658.057711 
L 319.059419 661.564329 
L 360.061554 653.298043 
L 401.063689 661.97476 
L 442.065824 639.788776 
L 483.067959 642.462506 
L 524.070094 647.676243 
L 565.072229 645.173786 
L 606.074364 636.1998 
L 647.076499 639.767089 
L 688.078634 646.801253 
L 729.080769 644.879185 
L 770.082904 663.311417 
L 811.085039 656.316804 
" clip-path="url(#p2a81a87be4)" style="fill: none; stroke: #008000; stroke-width: 2; stroke-linecap: round"/>
    <defs>
     <path id="m84bd4f4ae5" d="M 0 3 
C 0.795609 3 1.55874 2.683901 2.12132 2.12132 
C 2.683901 1.55874 3 0.795609 3 0 
C 3 -0.795609 2.683901 -1.55874 2.12132 -2.12132 
C 1.55874 -2.683901 0.795609 -3 0 -3 
C -0.795609 -3 -1.55874 -2.683901 -2.12132 -2.12132 
C -2.683901 -1.55874 -3 -0.795609 -3 0 
C -3 0.795609 -2.683901 1.55874 -2.12132 2.12132 
C -1.55874 2.683901 -0.795609 3 0 3 
z
" style="stroke: #008000"/>
    </defs>
    <g clip-path="url(#p2a81a87be4)">
     <use xlink:href="#m84bd4f4ae5" x="73.046609" y="632.537093" style="fill: #008000; stroke: #008000"/>
     <use xlink:href="#m84bd4f4ae5" x="114.048744" y="646.596104" style="fill: #008000; stroke: #008000"/>
     <use xlink:href="#m84bd4f4ae5" x="155.050879" y="651.752292" style="fill: #008000; stroke: #008000"/>
     <use xlink:href="#m84bd4f4ae5" x="196.053014" y="665.034545" style="fill: #008000; stroke: #008000"/>
     <use xlink:href="#m84bd4f4ae5" x="237.055149" y="661.059872" style="fill: #008000; stroke: #008000"/>
     <use xlink:href="#m84bd4f4ae5" x="278.057284" y="658.057711" style="fill: #008000; stroke: #008000"/>
     <use xlink:href="#m84bd4f4ae5" x="319.059419" y="661.564329" style="fill: #008000; stroke: #008000"/>
     <use xlink:href="#m84bd4f4ae5" x="360.061554" y="653.298043" style="fill: #008000; stroke: #008000"/>
     <use xlink:href="#m84bd4f4ae5" x="401.063689" y="661.97476" style="fill: #008000; stroke: #008000"/>
     <use xlink:href="#m84bd4f4ae5" x="442.065824" y="639.788776" style="fill: #008000; stroke: #008000"/>
     <use xlink:href="#m84bd4f4ae5" x="483.067959" y="642.462506" style="fill: #008000; stroke: #008000"/>
     <use xlink:href="#m84bd4f4ae5" x="524.070094" y="647.676243" style="fill: #008000; stroke: #008000"/>
     <use xlink:href="#m84bd4f4ae5" x="565.072229" y="645.173786" style="fill: #008000; stroke: #008000"/>
     <use xlink:href="#m84bd4f4ae5" x="606.074364" y="636.1998" style="fill: #008000; stroke: #008000"/>
     <use xlink:href="#m84bd4f4ae5" x="647.076499" y="639.767089" style="fill: #008000; stroke: #008000"/>
     <use xlink:href="#m84bd4f4ae5" x="688.078634" y="646.801253" style="fill: #008000; stroke: #008000"/>
     <use xlink:href="#m84bd4f4ae5" x="729.080769" y="644.879185" style="fill: #008000; stroke: #008000"/>
     <use xlink:href="#m84bd4f4ae5" x="770.082904" y="663.311417" style="fill: #008000; stroke: #008000"/>
     <use xlink:href="#m84bd4f4ae5" x="811.085039" y="656.316804" style="fill: #008000; stroke: #008000"/>
    </g>
   </g>
   <g id="line2d_66">
    <path d="M 73.046609 377.787955 
L 114.048744 393.404064 
L 155.050879 404.865404 
L 196.053014 461.599967 
L 237.055149 465.689384 
L 278.057284 460.988779 
L 319.059419 486.103613 
L 360.061554 473.719101 
L 401.063689 514.306767 
L 442.065824 475.480167 
L 483.067959 498.94058 
L 524.070094 517.396205 
L 565.072229 522.133396 
L 606.074364 511.037095 
L 647.076499 518.419475 
L 688.078634 543.824175 
L 729.080769 542.092995 
L 770.082904 585.190629 
L 811.085039 572.689647 
" clip-path="url(#p2a81a87be4)" style="fill: none; stroke: #dc143c; stroke-width: 2; stroke-linecap: round"/>
    <defs>
     <path id="mfe3996101d" d="M -3 3 
L 3 3 
L 3 -3 
L -3 -3 
z
" style="stroke: #dc143c; stroke-linejoin: miter"/>
    </defs>
    <g clip-path="url(#p2a81a87be4)">
     <use xlink:href="#mfe3996101d" x="73.046609" y="377.787955" style="fill: #dc143c; stroke: #dc143c; stroke-linejoin: miter"/>
     <use xlink:href="#mfe3996101d" x="114.048744" y="393.404064" style="fill: #dc143c; stroke: #dc143c; stroke-linejoin: miter"/>
     <use xlink:href="#mfe3996101d" x="155.050879" y="404.865404" style="fill: #dc143c; stroke: #dc143c; stroke-linejoin: miter"/>
     <use xlink:href="#mfe3996101d" x="196.053014" y="461.599967" style="fill: #dc143c; stroke: #dc143c; stroke-linejoin: miter"/>
     <use xlink:href="#mfe3996101d" x="237.055149" y="465.689384" style="fill: #dc143c; stroke: #dc143c; stroke-linejoin: miter"/>
     <use xlink:href="#mfe3996101d" x="278.057284" y="460.988779" style="fill: #dc143c; stroke: #dc143c; stroke-linejoin: miter"/>
     <use xlink:href="#mfe3996101d" x="319.059419" y="486.103613" style="fill: #dc143c; stroke: #dc143c; stroke-linejoin: miter"/>
     <use xlink:href="#mfe3996101d" x="360.061554" y="473.719101" style="fill: #dc143c; stroke: #dc143c; stroke-linejoin: miter"/>
     <use xlink:href="#mfe3996101d" x="401.063689" y="514.306767" style="fill: #dc143c; stroke: #dc143c; stroke-linejoin: miter"/>
     <use xlink:href="#mfe3996101d" x="442.065824" y="475.480167" style="fill: #dc143c; stroke: #dc143c; stroke-linejoin: miter"/>
     <use xlink:href="#mfe3996101d" x="483.067959" y="498.94058" style="fill: #dc143c; stroke: #dc143c; stroke-linejoin: miter"/>
     <use xlink:href="#mfe3996101d" x="524.070094" y="517.396205" style="fill: #dc143c; stroke: #dc143c; stroke-linejoin: miter"/>
     <use xlink:href="#mfe3996101d" x="565.072229" y="522.133396" style="fill: #dc143c; stroke: #dc143c; stroke-linejoin: miter"/>
     <use xlink:href="#mfe3996101d" x="606.074364" y="511.037095" style="fill: #dc143c; stroke: #dc143c; stroke-linejoin: miter"/>
     <use xlink:href="#mfe3996101d" x="647.076499" y="518.419475" style="fill: #dc143c; stroke: #dc143c; stroke-linejoin: miter"/>
     <use xlink:href="#mfe3996101d" x="688.078634" y="543.824175" style="fill: #dc143c; stroke: #dc143c; stroke-linejoin: miter"/>
     <use xlink:href="#mfe3996101d" x="729.080769" y="542.092995" style="fill: #dc143c; stroke: #dc143c; stroke-linejoin: miter"/>
     <use xlink:href="#mfe3996101d" x="770.082904" y="585.190629" style="fill: #dc143c; stroke: #dc143c; stroke-linejoin: miter"/>
     <use xlink:href="#mfe3996101d" x="811.085039" y="572.689647" style="fill: #dc143c; stroke: #dc143c; stroke-linejoin: miter"/>
    </g>
   </g>
   <g id="patch_8">
    <path d="M 36.144688 679.396875 
L 36.144688 363.425625 
" style="fill: none; stroke: #cccccc; stroke-linejoin: miter; stroke-linecap: square"/>
   </g>
   <g id="patch_9">
    <path d="M 847.98696 679.396875 
L 847.98696 363.425625 
" style="fill: none; stroke: #cccccc; stroke-linejoin: miter; stroke-linecap: square"/>
   </g>
   <g id="patch_10">
    <path d="M 36.144687 679.396875 
L 847.98696 679.396875 
" style="fill: none; stroke: #cccccc; stroke-linejoin: miter; stroke-linecap: square"/>
   </g>
   <g id="patch_11">
    <path d="M 36.144687 363.425625 
L 847.98696 363.425625 
" style="fill: none; stroke: #cccccc; stroke-linejoin: miter; stroke-linecap: square"/>
   </g>
   <g id="text_29">
    <!-- Lung Cancer Mortality Trends in Mexico City (2004-2022, 14 Alcaldías) -->
    <g style="fill: #262626" transform="translate(243.238949 357.425625) scale(0.12 -0.12)">
     <defs>
      <path id="Arial-BoldMT-4c" d="M 491 0 
L 491 4544 
L 1416 4544 
L 1416 772 
L 3716 772 
L 3716 0 
L 491 0 
z
" transform="scale(0.015625)"/>
      <path id="Arial-BoldMT-67" d="M 378 -219 
L 1381 -341 
Q 1406 -516 1497 -581 
Q 1622 -675 1891 -675 
Q 2234 -675 2406 -572 
Q 2522 -503 2581 -350 
Q 2622 -241 2622 53 
L 2622 538 
Q 2228 0 1628 0 
Q 959 0 569 566 
Q 263 1013 263 1678 
Q 263 2513 664 2953 
Q 1066 3394 1663 3394 
Q 2278 3394 2678 2853 
L 2678 3319 
L 3500 3319 
L 3500 341 
Q 3500 -247 3403 -537 
Q 3306 -828 3131 -993 
Q 2956 -1159 2664 -1253 
Q 2372 -1347 1925 -1347 
Q 1081 -1347 728 -1058 
Q 375 -769 375 -325 
Q 375 -281 378 -219 
z
M 1163 1728 
Q 1163 1200 1367 954 
Q 1572 709 1872 709 
Q 2194 709 2416 961 
Q 2638 1213 2638 1706 
Q 2638 2222 2425 2472 
Q 2213 2722 1888 2722 
Q 1572 2722 1367 2476 
Q 1163 2231 1163 1728 
z
" transform="scale(0.015625)"/>
     </defs>
     <use xlink:href="#Arial-BoldMT-4c"/>
     <use xlink:href="#Arial-BoldMT-75" x="61.083984"/>
     <use xlink:href="#Arial-BoldMT-6e" x="122.167969"/>
     <use xlink:href="#Arial-BoldMT-67" x="183.251953"/>
     <use xlink:href="#Arial-BoldMT-20" x="244.335938"/>
     <use xlink:href="#Arial-BoldMT-43" x="272.119141"/>
     <use xlink:href="#Arial-BoldMT-61" x="344.335938"/>
     <use xlink:href="#Arial-BoldMT-6e" x="399.951172"/>
     <use xlink:href="#Arial-BoldMT-63" x="461.035156"/>
     <use xlink:href="#Arial-BoldMT-65" x="516.650391"/>
     <use xlink:href="#Arial-BoldMT-72" x="572.265625"/>
     <use xlink:href="#Arial-BoldMT-20" x="611.181641"/>
     <use xlink:href="#Arial-BoldMT-4d" x="638.964844"/>
     <use xlink:href="#Arial-BoldMT-6f" x="722.265625"/>
     <use xlink:href="#Arial-BoldMT-72" x="783.349609"/>
     <use xlink:href="#Arial-BoldMT-74" x="822.265625"/>
     <use xlink:href="#Arial-BoldMT-61" x="855.566406"/>
     <use xlink:href="#Arial-BoldMT-6c" x="911.181641"/>
     <use xlink:href="#Arial-BoldMT-69" x="938.964844"/>
     <use xlink:href="#Arial-BoldMT-74" x="966.748047"/>
     <use xlink:href="#Arial-BoldMT-79" x="1000.048828"/>
     <use xlink:href="#Arial-BoldMT-20" x="1055.664062"/>
     <use xlink:href="#Arial-BoldMT-54" x="1083.447266"/>
     <use xlink:href="#Arial-BoldMT-72" x="1139.03125"/>
     <use xlink:href="#Arial-BoldMT-65" x="1177.947266"/>
     <use xlink:href="#Arial-BoldMT-6e" x="1233.5625"/>
     <use xlink:href="#Arial-BoldMT-64" x="1294.646484"/>
     <use xlink:href="#Arial-BoldMT-73" x="1355.730469"/>
     <use xlink:href="#Arial-BoldMT-20" x="1411.345703"/>
     <use xlink:href="#Arial-BoldMT-69" x="1439.128906"/>
     <use xlink:href="#Arial-BoldMT-6e" x="1466.912109"/>
     <use xlink:href="#Arial-BoldMT-20" x="1527.996094"/>
     <use xlink:href="#Arial-BoldMT-4d" x="1555.779297"/>
     <use xlink:href="#Arial-BoldMT-65" x="1639.080078"/>
     <use xlink:href="#Arial-BoldMT-78" x="1694.695312"/>
     <use xlink:href="#Arial-BoldMT-69" x="1750.310547"/>
     <use xlink:href="#Arial-BoldMT-63" x="1778.09375"/>
     <use xlink:href="#Arial-BoldMT-6f" x="1833.708984"/>
     <use xlink:href="#Arial-BoldMT-20" x="1894.792969"/>
     <use xlink:href="#Arial-BoldMT-43" x="1922.576172"/>
     <use xlink:href="#Arial-BoldMT-69" x="1994.792969"/>
     <use xlink:href="#Arial-BoldMT-74" x="2022.576172"/>
     <use xlink:href="#Arial-BoldMT-79" x="2055.876953"/>
     <use xlink:href="#Arial-BoldMT-20" x="2111.492188"/>
     <use xlink:href="#Arial-BoldMT-28" x="2139.275391"/>
     <use xlink:href="#Arial-BoldMT-32" x="2172.576172"/>
     <use xlink:href="#Arial-BoldMT-30" x="2228.191406"/>
     <use xlink:href="#Arial-BoldMT-30" x="2283.806641"/>
     <use xlink:href="#Arial-BoldMT-34" x="2339.421875"/>
     <use xlink:href="#Arial-BoldMT-2d" x="2395.037109"/>
     <use xlink:href="#Arial-BoldMT-32" x="2428.337891"/>
     <use xlink:href="#Arial-BoldMT-30" x="2483.953125"/>
     <use xlink:href="#Arial-BoldMT-32" x="2539.568359"/>
     <use xlink:href="#Arial-BoldMT-32" x="2595.183594"/>
     <use xlink:href="#Arial-BoldMT-2c" x="2650.798828"/>
     <use xlink:href="#Arial-BoldMT-20" x="2678.582031"/>
     <use xlink:href="#Arial-BoldMT-31" x="2706.365234"/>
     <use xlink:href="#Arial-BoldMT-34" x="2761.980469"/>
     <use xlink:href="#Arial-BoldMT-20" x="2817.595703"/>
     <use xlink:href="#Arial-BoldMT-41" x="2841.628906"/>
     <use xlink:href="#Arial-BoldMT-6c" x="2913.845703"/>
     <use xlink:href="#Arial-BoldMT-63" x="2941.628906"/>
     <use xlink:href="#Arial-BoldMT-61" x="2997.244141"/>
     <use xlink:href="#Arial-BoldMT-6c" x="3052.859375"/>
     <use xlink:href="#Arial-BoldMT-64" x="3080.642578"/>
     <use xlink:href="#Arial-BoldMT-ed" x="3141.726562"/>
     <use xlink:href="#Arial-BoldMT-61" x="3169.509766"/>
     <use xlink:href="#Arial-BoldMT-73" x="3225.125"/>
     <use xlink:href="#Arial-BoldMT-29" x="3280.740234"/>
    </g>
   </g>
   <g id="legend_2">
    <g id="line2d_67">
     <path d="M 707.038523 376.083438 
L 717.038523 376.083438 
L 727.038523 376.083438 
" style="fill: none; stroke: #008000; stroke-width: 2; stroke-linecap: round"/>
     <g>
      <use xlink:href="#m84bd4f4ae5" x="717.038523" y="376.083438" style="fill: #008000; stroke: #008000"/>
     </g>
    </g>
    <g id="text_30">
     <!-- Crude Rate -->
     <g style="fill: #262626" transform="translate(735.038523 379.583438) scale(0.1 -0.1)">
      <defs>
       <path id="ArialMT-75" d="M 2597 0 
L 2597 488 
Q 2209 -75 1544 -75 
Q 1250 -75 995 37 
Q 741 150 617 320 
Q 494 491 444 738 
Q 409 903 409 1263 
L 409 3319 
L 972 3319 
L 972 1478 
Q 972 1038 1006 884 
Q 1059 663 1231 536 
Q 1403 409 1656 409 
Q 1909 409 2131 539 
Q 2353 669 2445 892 
Q 2538 1116 2538 1541 
L 2538 3319 
L 3100 3319 
L 3100 0 
L 2597 0 
z
" transform="scale(0.015625)"/>
       <path id="ArialMT-64" d="M 2575 0 
L 2575 419 
Q 2259 -75 1647 -75 
Q 1250 -75 917 144 
Q 584 363 401 755 
Q 219 1147 219 1656 
Q 219 2153 384 2558 
Q 550 2963 881 3178 
Q 1213 3394 1622 3394 
Q 1922 3394 2156 3267 
Q 2391 3141 2538 2938 
L 2538 4581 
L 3097 4581 
L 3097 0 
L 2575 0 
z
M 797 1656 
Q 797 1019 1065 703 
Q 1334 388 1700 388 
Q 2069 388 2326 689 
Q 2584 991 2584 1609 
Q 2584 2291 2321 2609 
Q 2059 2928 1675 2928 
Q 1300 2928 1048 2622 
Q 797 2316 797 1656 
z
" transform="scale(0.015625)"/>
      </defs>
      <use xlink:href="#ArialMT-43"/>
      <use xlink:href="#ArialMT-72" x="72.216797"/>
      <use xlink:href="#ArialMT-75" x="105.517578"/>
      <use xlink:href="#ArialMT-64" x="161.132812"/>
      <use xlink:href="#ArialMT-65" x="216.748047"/>
      <use xlink:href="#ArialMT-20" x="272.363281"/>
      <use xlink:href="#ArialMT-52" x="300.146484"/>
      <use xlink:href="#ArialMT-61" x="372.363281"/>
      <use xlink:href="#ArialMT-74" x="427.978516"/>
      <use xlink:href="#ArialMT-65" x="455.761719"/>
     </g>
    </g>
    <g id="line2d_68">
     <path d="M 707.038523 390.350625 
L 717.038523 390.350625 
L 727.038523 390.350625 
" style="fill: none; stroke: #dc143c; stroke-width: 2; stroke-linecap: round"/>
     <g>
      <use xlink:href="#mfe3996101d" x="717.038523" y="390.350625" style="fill: #dc143c; stroke: #dc143c; stroke-linejoin: miter"/>
     </g>
    </g>
    <g id="text_31">
     <!-- Age-Standardized Rate -->
     <g style="fill: #262626" transform="translate(735.038523 393.850625) scale(0.1 -0.1)">
      <defs>
       <path id="ArialMT-41" d="M -9 0 
L 1750 4581 
L 2403 4581 
L 4278 0 
L 3588 0 
L 3053 1388 
L 1138 1388 
L 634 0 
L -9 0 
z
M 1313 1881 
L 2866 1881 
L 2388 3150 
Q 2169 3728 2063 4100 
Q 1975 3659 1816 3225 
L 1313 1881 
z
" transform="scale(0.015625)"/>
       <path id="ArialMT-2d" d="M 203 1375 
L 203 1941 
L 1931 1941 
L 1931 1375 
L 203 1375 
z
" transform="scale(0.015625)"/>
       <path id="ArialMT-53" d="M 288 1472 
L 859 1522 
Q 900 1178 1048 958 
Q 1197 738 1509 602 
Q 1822 466 2213 466 
Q 2559 466 2825 569 
Q 3091 672 3220 851 
Q 3350 1031 3350 1244 
Q 3350 1459 3225 1620 
Q 3100 1781 2813 1891 
Q 2628 1963 1997 2114 
Q 1366 2266 1113 2400 
Q 784 2572 623 2826 
Q 463 3081 463 3397 
Q 463 3744 659 4045 
Q 856 4347 1234 4503 
Q 1613 4659 2075 4659 
Q 2584 4659 2973 4495 
Q 3363 4331 3572 4012 
Q 3781 3694 3797 3291 
L 3216 3247 
Q 3169 3681 2898 3903 
Q 2628 4125 2100 4125 
Q 1550 4125 1298 3923 
Q 1047 3722 1047 3438 
Q 1047 3191 1225 3031 
Q 1400 2872 2139 2705 
Q 2878 2538 3153 2413 
Q 3553 2228 3743 1945 
Q 3934 1663 3934 1294 
Q 3934 928 3725 604 
Q 3516 281 3123 101 
Q 2731 -78 2241 -78 
Q 1619 -78 1198 103 
Q 778 284 539 648 
Q 300 1013 288 1472 
z
" transform="scale(0.015625)"/>
       <path id="ArialMT-7a" d="M 125 0 
L 125 456 
L 2238 2881 
Q 1878 2863 1603 2863 
L 250 2863 
L 250 3319 
L 2963 3319 
L 2963 2947 
L 1166 841 
L 819 456 
Q 1197 484 1528 484 
L 3063 484 
L 3063 0 
L 125 0 
z
" transform="scale(0.015625)"/>
      </defs>
      <use xlink:href="#ArialMT-41"/>
      <use xlink:href="#ArialMT-67" x="66.699219"/>
      <use xlink:href="#ArialMT-65" x="122.314453"/>
      <use xlink:href="#ArialMT-2d" x="177.929688"/>
      <use xlink:href="#ArialMT-53" x="211.230469"/>
      <use xlink:href="#ArialMT-74" x="277.929688"/>
      <use xlink:href="#ArialMT-61" x="305.712891"/>
      <use xlink:href="#ArialMT-6e" x="361.328125"/>
      <use xlink:href="#ArialMT-64" x="416.943359"/>
      <use xlink:href="#ArialMT-61" x="472.558594"/>
      <use xlink:href="#ArialMT-72" x="528.173828"/>
      <use xlink:href="#ArialMT-64" x="561.474609"/>
      <use xlink:href="#ArialMT-69" x="617.089844"/>
      <use xlink:href="#ArialMT-7a" x="639.306641"/>
      <use xlink:href="#ArialMT-65" x="689.306641"/>
      <use xlink:href="#ArialMT-64" x="744.921875"/>
      <use xlink:href="#ArialMT-20" x="800.537109"/>
      <use xlink:href="#ArialMT-52" x="828.320312"/>
      <use xlink:href="#ArialMT-61" x="900.537109"/>
      <use xlink:href="#ArialMT-74" x="956.152344"/>
      <use xlink:href="#ArialMT-65" x="983.935547"/>
     </g>
    </g>
   </g>
  </g>
 </g>
 <defs>
  <clipPath id="p1d2524dd6a">
   <rect x="36.144688" y="21.935625" width="811.842273" height="315.97125"/>
  </clipPath>
  <clipPath id="p2a81a87be4">
   <rect x="36.144688" y="363.425625" width="811.842273" height="315.97125"/>
  </clipPath>
 </defs>
</svg>
